<svg xmlns="http://www.w3.org/2000/svg" viewBox="0 0 320 282">
  <g>
    <path d="M295,37a10,10,0,0,1,10,10V257a10,10,0,0,1-10,10H25a10,10,0,0,1-10-10V47A10,10,0,0,1,25,37H295m0-15H25A25,25,0,0,0,0,47V257a25,25,0,0,0,25,25H295a25,25,0,0,0,25-25V47a25,25,0,0,0-25-25Z" fill="#146ac4"/>
    <path d="M30,47H290a5,5,0,0,1,5,5v85a0,0,0,0,1,0,0H25a0,0,0,0,1,0,0V52A5,5,0,0,1,30,47Z" fill="#004d77"/>
    <g>
      <g>
        <path d="M209.52,79q7.57-6,15.19-11.87l37.22,3.55c6,.57,12.05,1.17,18.07,1.72-.07,1.36-.25,2.71-.36,4.07q-1.9,20.22-3.8,40.44-27.72-2.56-55.42-5.18-6.15-7.18-12.28-14.38c-.11-.15-.33-.29-.3-.5Q208.68,87.91,209.52,79Zm.95.43c-.12.53-.12,1.09-.19,1.63l-1.53,15.57,12.13,14.09L275,115.89l4-42.59-17.34-1.67Q243.36,69.88,225,68.12,217.77,73.78,210.47,79.41Z"/>
        <path d="M219,75.78c2.74.26,5.47.54,8.2.81a12.52,12.52,0,0,1,4.38,1.11,3.45,3.45,0,0,1,1.94,1.92,3,3,0,0,1-1.06,3,4.93,4.93,0,0,1-1.46.75A4.67,4.67,0,0,1,233.37,85a2.72,2.72,0,0,1,0,3.22,4.63,4.63,0,0,1-2.82,1.41,21.14,21.14,0,0,1-6.15-.1l-6.6-.67Zm5.7,5.65a4,4,0,0,0,2.36-.1.77.77,0,0,0,.12-1.3,4.06,4.06,0,0,0-2.31-.38C224.82,80.24,224.76,80.84,224.72,81.43Zm-.27,2.78c0,.72-.1,1.43-.14,2.14a6.81,6.81,0,0,0,2.66.06,1,1,0,0,0,.84-.87,1.09,1.09,0,0,0-.78-1A6.85,6.85,0,0,0,224.45,84.21Z"/>
        <path d="M235.4,77.42l12.25,1.17c-.11,1.23-.23,2.45-.35,3.68l-5.52-.53c0,.39-.07.79-.11,1.18,1.68.15,3.36.32,5,.48-.1,1.12-.21,2.24-.32,3.37-1.67-.16-3.34-.33-5-.47,0,.44-.09.88-.13,1.33l5.64.54c-.11,1.16-.23,2.32-.33,3.48l-12.34-1.17Q234.81,84,235.4,77.42Z"/>
        <path d="M253.12,79.42a13.58,13.58,0,0,1,6.36.37,11.8,11.8,0,0,1,3,1.3c-.66,1-1.39,2-2.11,3A7.59,7.59,0,0,0,257.3,83a3.45,3.45,0,0,0-1.83.14c-.18.08-.39.32-.2.5a2.65,2.65,0,0,0,1,.51c1.27.45,2.58.74,3.86,1.15A3.5,3.5,0,0,1,262.35,89a3.9,3.9,0,0,1-2.11,2.73,10.72,10.72,0,0,1-5.61,1,20.16,20.16,0,0,1-7.47-2c.77-1.15,1.55-2.28,2.31-3.42a7.56,7.56,0,0,0,2.68,1.36,6.42,6.42,0,0,0,2.64.35c.32-.07.74-.13.86-.48s-.24-.43-.43-.56a8,8,0,0,0-1.8-.56,9.68,9.68,0,0,1-3.85-1.62,3,3,0,0,1-.11-4.59A7.57,7.57,0,0,1,253.12,79.42Z"/>
        <path d="M263.1,80.12c4.63.4,9.26.87,13.89,1.31-.13,1.42-.27,2.83-.4,4.25-1.2-.12-2.41-.24-3.61-.34-.27,2.94-.56,5.88-.84,8.82l-6.58-.63.75-8.83c-1.2-.12-2.39-.25-3.59-.34C262.81,82.94,263,81.53,263.1,80.12Z"/>
        <path d="M213,86.34a2.46,2.46,0,1,1-1.79,1.42A2.46,2.46,0,0,1,213,86.34Zm0,.93a1.55,1.55,0,1,0,2,1.29A1.56,1.56,0,0,0,213,87.27Z"/>
        <path d="M220.34,90.8c3,.27,6,.58,8.95.88a11.33,11.33,0,0,1,4,1.24,2.93,2.93,0,0,1,1.57,1.86,3.13,3.13,0,0,1-.66,2.47,3.79,3.79,0,0,1-1.89,1.13,5,5,0,0,1,2.39,1.7,2.74,2.74,0,0,1,0,3.11,4.1,4.1,0,0,1-2.24,1.33,14.7,14.7,0,0,1-5.37.18c-2.67-.25-5.34-.54-8-.81C219.52,99.53,219.94,95.16,220.34,90.8ZM226,96.4a4.76,4.76,0,0,0,2.09,0,.92.92,0,0,0,.7-.73.73.73,0,0,0-.46-.78,4.63,4.63,0,0,0-2.16-.28C226.08,95.21,226,95.81,226,96.4Zm-.27,2.79c-.05.71-.1,1.42-.14,2.13a6.75,6.75,0,0,0,2.65.06,1,1,0,0,0,.84-.8,1,1,0,0,0-.72-1A6.89,6.89,0,0,0,225.71,99.19Z"/>
        <path d="M236.43,92.34l6.37.58-.66,7.15a2.77,2.77,0,0,0,0,1.31,1.47,1.47,0,0,0,1.18.88,2.13,2.13,0,0,0,1.79-.3,1.81,1.81,0,0,0,.57-1.35c.22-2.44.46-4.88.69-7.32,2.12.18,4.24.44,6.36.58a5.3,5.3,0,0,1,0,1c-.25,2.57-.48,5.15-.75,7.72a4.91,4.91,0,0,1-2.82,3.2,13.17,13.17,0,0,1-11.15-1,5.22,5.22,0,0,1-2.3-3.92C235.88,98,236.16,95.16,236.43,92.34Z"/>
        <path d="M252.76,94.12l.16-.18c2.38.23,4.76.44,7.14.65.63,1.19,1.22,2.41,1.84,3.61.8-1.06,1.57-2.14,2.36-3.2l7.42.71-6.59,6.53c-.14.16-.37.29-.35.54-.17,1.8-.35,3.61-.52,5.41-2.17-.2-4.34-.42-6.51-.61.16-1.84.36-3.67.51-5.51-.51-.83-1.1-1.62-1.64-2.44-1.22-1.78-2.44-3.55-3.64-5.33Z"/>
        <path d="M272.35,96.14a1.06,1.06,0,1,1-.56,1.31A1.05,1.05,0,0,1,272.35,96.14Zm.1.18a.88.88,0,0,0,.05,1.58.82.82,0,0,0,1.08-.87A.8.8,0,0,0,272.45,96.32Z"/>
        <path d="M272.44,96.46c.26.05.59,0,.79.19a.36.36,0,0,1-.27.56l.25.52c-.34.06-.34-.38-.5-.57-.24,0-.1.36-.17.51h-.22Zm.22.17c0,.09-.05.26-.06.35.16,0,.45.11.47-.14S272.79,96.69,272.66,96.63Z"/>
      </g>
      <g>
        <path d="M210.47,79.41q7.28-5.66,14.57-11.29,18.32,1.72,36.63,3.51L279,73.3l-4,42.59-54.14-5.19L208.75,96.61,210.28,81C210.35,80.5,210.35,79.94,210.47,79.41ZM219,75.78l-1.23,13.1,6.6.67a21.14,21.14,0,0,0,6.15.1,4.63,4.63,0,0,0,2.82-1.41,2.72,2.72,0,0,0,0-3.22A4.67,4.67,0,0,0,231,83.4a4.93,4.93,0,0,0,1.46-.75,3,3,0,0,0,1.06-3,3.45,3.45,0,0,0-1.94-1.92,12.52,12.52,0,0,0-4.38-1.11C224.49,76.32,221.76,76,219,75.78Zm16.38,1.64q-.59,6.54-1.18,13.06l12.34,1.17c.1-1.16.22-2.32.33-3.48l-5.64-.54c0-.45.09-.89.13-1.33,1.66.14,3.33.31,5,.47.11-1.13.22-2.25.32-3.37-1.67-.16-3.35-.33-5-.48,0-.39.08-.79.11-1.18l5.52.53c.12-1.23.24-2.45.35-3.68Zm17.72,2a7.57,7.57,0,0,0-3.66,1.83,3,3,0,0,0,.11,4.59,9.68,9.68,0,0,0,3.85,1.62,8,8,0,0,1,1.8.56c.19.13.43.3.43.56s-.54.41-.86.48a6.42,6.42,0,0,1-2.64-.35,7.56,7.56,0,0,1-2.68-1.36c-.76,1.14-1.54,2.27-2.31,3.42a20.16,20.16,0,0,0,7.47,2,10.72,10.72,0,0,0,5.61-1A3.9,3.9,0,0,0,262.35,89a3.5,3.5,0,0,0-2.27-3.75c-1.28-.41-2.59-.7-3.86-1.15a2.65,2.65,0,0,1-1-.51c-.19-.18,0-.42.2-.5A3.45,3.45,0,0,1,257.3,83a7.59,7.59,0,0,1,3.1,1.19c.72-1,1.45-2,2.11-3a11.8,11.8,0,0,0-3-1.3A13.58,13.58,0,0,0,253.12,79.42Zm10,.7c-.1,1.41-.29,2.82-.38,4.24,1.2.09,2.39.22,3.59.34l-.75,8.83,6.58.63c.28-2.94.57-5.88.84-8.82,1.2.1,2.41.22,3.61.34.13-1.42.27-2.83.4-4.25C272.36,81,267.73,80.52,263.1,80.12ZM213,86.34a2.45,2.45,0,0,0-1.79,1.42,2.45,2.45,0,0,0,2.36,3.45,2.46,2.46,0,1,0-.57-4.87Zm7.37,4.46c-.4,4.36-.82,8.73-1.23,13.09,2.67.27,5.34.56,8,.81a14.7,14.7,0,0,0,5.37-.18,4.1,4.1,0,0,0,2.24-1.33,2.74,2.74,0,0,0,0-3.11,5,5,0,0,0-2.39-1.7,3.79,3.79,0,0,0,1.89-1.13,3.13,3.13,0,0,0,.66-2.47,2.93,2.93,0,0,0-1.57-1.86,11.33,11.33,0,0,0-4-1.24C226.31,91.38,223.33,91.07,220.34,90.8Zm16.09,1.54c-.27,2.82-.55,5.64-.8,8.46a5.22,5.22,0,0,0,2.3,3.92,13.17,13.17,0,0,0,11.15,1,4.91,4.91,0,0,0,2.82-3.2c.27-2.57.5-5.15.75-7.72a5.3,5.3,0,0,0,0-1c-2.12-.14-4.24-.4-6.36-.58-.23,2.44-.47,4.88-.69,7.32a1.81,1.81,0,0,1-.57,1.35,2.13,2.13,0,0,1-1.79.3,1.47,1.47,0,0,1-1.18-.88,2.77,2.77,0,0,1,0-1.31l.66-7.15Zm16.33,1.78.18.18c1.2,1.78,2.42,3.55,3.64,5.33.54.82,1.13,1.61,1.64,2.44-.15,1.84-.35,3.67-.51,5.51,2.17.19,4.34.41,6.51.61.17-1.8.35-3.61.52-5.41,0-.25.21-.38.35-.54l6.59-6.53L264.26,95c-.79,1.06-1.56,2.14-2.36,3.2-.62-1.2-1.21-2.42-1.84-3.61-2.38-.21-4.76-.42-7.14-.65Zm19.59,2a1.06,1.06,0,0,0,.73,2,1.06,1.06,0,1,0-.73-2Z" fill="#f6ea18"/>
        <path d="M224.72,81.43c0-.59.1-1.19.17-1.78a4.06,4.06,0,0,1,2.31.38.77.77,0,0,1-.12,1.3A4,4,0,0,1,224.72,81.43Z" fill="#f6ea18"/>
        <path d="M224.45,84.21a6.85,6.85,0,0,1,2.58.37,1.09,1.09,0,0,1,.78,1,1,1,0,0,1-.84.87,6.81,6.81,0,0,1-2.66-.06C224.35,85.64,224.4,84.93,224.45,84.21Z" fill="#f6ea18"/>
        <path d="M226,96.4c.06-.59.1-1.19.17-1.77a4.63,4.63,0,0,1,2.16.28.73.73,0,0,1,.46.78.92.92,0,0,1-.7.73A4.76,4.76,0,0,1,226,96.4Z" fill="#f6ea18"/>
        <path d="M272.45,96.32a.8.8,0,0,1,1.13.71.82.82,0,0,1-1.08.87A.88.88,0,0,1,272.45,96.32Zm0,.14-.12,1.2h.22c.07-.15-.07-.51.17-.51.16.19.16.63.5.57l-.25-.52a.36.36,0,0,0,.27-.56C273,96.44,272.7,96.51,272.44,96.46Z" fill="#f6ea18"/>
        <path d="M272.66,96.63c.13.06.39,0,.41.21s-.31.16-.47.14C272.61,96.89,272.64,96.72,272.66,96.63Z" fill="#f6ea18"/>
        <path d="M225.71,99.19a6.89,6.89,0,0,1,2.63.38,1,1,0,0,1,.72,1,1,1,0,0,1-.84.8,6.75,6.75,0,0,1-2.65-.06C225.61,100.61,225.66,99.9,225.71,99.19Z" fill="#f6ea18"/>
      </g>
    </g>
    <g>
      <path d="M47.14,86.86l-3.63-9.49h-.06c.07.75.1,1.64.1,2.68v6.81H42.41V76.15h1.87L47.67,85h0l3.42-8.83H53V86.86H51.76V80c0-.79,0-1.65.1-2.58H51.8l-3.66,9.48Z" fill="#fff"/>
      <path d="M54.48,78.83h1.3l1.76,4.58a17.46,17.46,0,0,1,.71,2.26h.06c.06-.25.2-.67.4-1.28s.86-2.45,2-5.56H62L58.55,88a4.49,4.49,0,0,1-1.19,1.92,2.55,2.55,0,0,1-1.68.57,5.08,5.08,0,0,1-1.1-.12v-1a4.16,4.16,0,0,0,.9.09A1.85,1.85,0,0,0,57.26,88l.45-1.14Z" fill="#fff"/>
      <path d="M67.37,76.15h3a5.63,5.63,0,0,1,3.08.64,2.23,2.23,0,0,1,1,2,2.29,2.29,0,0,1-.54,1.57,2.47,2.47,0,0,1-1.54.8v.08c1.62.28,2.43,1.13,2.43,2.56a2.73,2.73,0,0,1-1,2.24,4.08,4.08,0,0,1-2.71.81H67.37Zm1.25,4.59h2a3.3,3.3,0,0,0,1.89-.42,1.58,1.58,0,0,0,.58-1.39,1.41,1.41,0,0,0-.65-1.3,4,4,0,0,0-2-.4H68.62Zm0,1.05v4h2.23a3.15,3.15,0,0,0,2-.51,1.85,1.85,0,0,0,.65-1.57,1.65,1.65,0,0,0-.67-1.46,3.56,3.56,0,0,0-2-.47Z" fill="#fff"/>
      <path d="M80.29,87a3.68,3.68,0,0,1-2.81-1.08,4.17,4.17,0,0,1-1-3,4.63,4.63,0,0,1,1-3.08A3.17,3.17,0,0,1,80,78.68a3.06,3.06,0,0,1,2.39,1,3.82,3.82,0,0,1,.87,2.62v.76H77.71a3.17,3.17,0,0,0,.71,2.15,2.47,2.47,0,0,0,1.91.73,6.5,6.5,0,0,0,2.56-.54v1.09a6,6,0,0,1-2.6.51ZM80,79.7a2,2,0,0,0-1.54.63,2.88,2.88,0,0,0-.68,1.75h4.19a2.71,2.71,0,0,0-.51-1.77A1.82,1.82,0,0,0,80,79.7Z" fill="#fff"/>
      <path d="M90.47,84.67a2,2,0,0,1-.83,1.73,4,4,0,0,1-2.34.6,5.09,5.09,0,0,1-2.49-.5V85.37a5.75,5.75,0,0,0,1.24.46,4.85,4.85,0,0,0,1.28.17,2.92,2.92,0,0,0,1.46-.3A1.05,1.05,0,0,0,88.9,84a6.32,6.32,0,0,0-1.59-.79,8.88,8.88,0,0,1-1.59-.73,2.22,2.22,0,0,1-.7-.7,1.91,1.91,0,0,1-.23-1,1.82,1.82,0,0,1,.8-1.55,3.7,3.7,0,0,1,2.19-.57,6.45,6.45,0,0,1,2.53.53l-.43,1a5.9,5.9,0,0,0-2.19-.5,2.5,2.5,0,0,0-1.3.27.83.83,0,0,0-.44.75.9.9,0,0,0,.16.55,1.6,1.6,0,0,0,.53.43,11.31,11.31,0,0,0,1.41.6,5.11,5.11,0,0,1,1.92,1A1.83,1.83,0,0,1,90.47,84.67Z" fill="#fff"/>
      <path d="M95,86a3.18,3.18,0,0,0,.62,0,3,3,0,0,0,.48-.1v.94a2.36,2.36,0,0,1-.59.15,4.39,4.39,0,0,1-.69.06c-1.55,0-2.32-.81-2.32-2.45V79.78H91.39v-.59l1.15-.51L93.05,77h.7v1.86h2.33v1H93.75V84.5a1.62,1.62,0,0,0,.35,1.11A1.19,1.19,0,0,0,95,86Z" fill="#fff"/>
      <path d="M101.81,76.15h3a5.63,5.63,0,0,1,3.08.64,2.23,2.23,0,0,1,1,2,2.29,2.29,0,0,1-.54,1.57,2.47,2.47,0,0,1-1.54.8v.08c1.62.28,2.43,1.13,2.43,2.56a2.73,2.73,0,0,1-1,2.24,4.08,4.08,0,0,1-2.71.81h-3.73Zm1.25,4.59h2a3.28,3.28,0,0,0,1.89-.42,1.6,1.6,0,0,0,.58-1.39,1.41,1.41,0,0,0-.65-1.3,4,4,0,0,0-2-.4h-1.83Zm0,1.05v4h2.23a3.15,3.15,0,0,0,1.95-.51,1.85,1.85,0,0,0,.65-1.57,1.65,1.65,0,0,0-.67-1.46,3.56,3.56,0,0,0-2-.47Z" fill="#fff"/>
      <path d="M112.48,78.83V84a2.08,2.08,0,0,0,.45,1.46,1.77,1.77,0,0,0,1.39.49,2.26,2.26,0,0,0,1.84-.69,3.47,3.47,0,0,0,.58-2.25V78.83H118v8h-1l-.18-1.08h-.07a2.34,2.34,0,0,1-1,.91,3.48,3.48,0,0,1-1.51.31,3.06,3.06,0,0,1-2.19-.69,3,3,0,0,1-.73-2.23V78.83Z" fill="#fff"/>
      <path d="M119.26,78.83h1.3l1.76,4.58a19.85,19.85,0,0,1,.72,2.26h0c.07-.25.2-.67.4-1.28s.87-2.45,2-5.56h1.3L123.33,88a4.49,4.49,0,0,1-1.19,1.92,2.55,2.55,0,0,1-1.68.57,5.08,5.08,0,0,1-1.1-.12v-1a4.16,4.16,0,0,0,.9.09A1.86,1.86,0,0,0,122.05,88l.44-1.14Z" fill="#fff"/>
      <path d="M40.87,109a1.9,1.9,0,0,1-.87-.16V108a3.15,3.15,0,0,0,.87.12,1.12,1.12,0,0,0,.88-.35,1.55,1.55,0,0,0,.3-1V98.18h1v8.48a2.45,2.45,0,0,1-.56,1.73A2.09,2.09,0,0,1,40.87,109Z" fill="#fff"/>
      <path d="M52.74,102.45a4.71,4.71,0,0,1-1,3.23,3.63,3.63,0,0,1-2.89,1.18,3.68,3.68,0,0,1-2.91-1.16,5.66,5.66,0,0,1,0-6.51A3.75,3.75,0,0,1,48.83,98a3.67,3.67,0,0,1,2.88,1.17A4.79,4.79,0,0,1,52.74,102.45Zm-6.82,0a4.09,4.09,0,0,0,.74,2.64,2.63,2.63,0,0,0,2.15.9,2.59,2.59,0,0,0,2.15-.9,4.09,4.09,0,0,0,.73-2.64A4,4,0,0,0,51,99.83a2.56,2.56,0,0,0-2.13-.9,2.66,2.66,0,0,0-2.17.9A4.05,4.05,0,0,0,45.92,102.45Z" fill="#fff"/>
      <path d="M61.14,106.74h-1v-4H55.64v4h-1V98.18h1v3.64h4.51V98.18h1Z" fill="#fff"/>
      <path d="M70.17,106.74H69l-4.68-7.19h0c.06.85.09,1.62.09,2.32v4.87h-.92V98.18h1.12l4.67,7.16h0q0-.16-.06-1t0-1.23V98.18h.93Z" fill="#fff"/>
      <path d="M80.47,104.46a2.12,2.12,0,0,1-.82,1.77,3.58,3.58,0,0,1-2.23.63,5.62,5.62,0,0,1-2.34-.39v-1a6.7,6.7,0,0,0,1.15.35,6.42,6.42,0,0,0,1.23.13,2.51,2.51,0,0,0,1.5-.38,1.25,1.25,0,0,0,.5-1,1.34,1.34,0,0,0-.18-.73,1.72,1.72,0,0,0-.59-.53,8.3,8.3,0,0,0-1.28-.54,4.12,4.12,0,0,1-1.7-1,2.28,2.28,0,0,1-.51-1.53,1.89,1.89,0,0,1,.74-1.58,3.07,3.07,0,0,1,2-.59,5.84,5.84,0,0,1,2.35.47l-.31.87a5.25,5.25,0,0,0-2.06-.45,2,2,0,0,0-1.23.34,1.14,1.14,0,0,0-.45,1,1.31,1.31,0,0,0,.72,1.25,6.5,6.5,0,0,0,1.19.52A4.79,4.79,0,0,1,80,103,2,2,0,0,1,80.47,104.46Z" fill="#fff"/>
      <path d="M86,106.74l-2.9-7.59h0c.06.6.09,1.32.09,2.14v5.45h-.92V98.18h1.5l2.71,7.06h0l2.74-7.06h1.48v8.56h-1v-5.52c0-.63,0-1.32.08-2.06h0l-2.92,7.58Z" fill="#fff"/>
      <path d="M93,106.74V98.18h1v8.56Z" fill="#fff"/>
      <path d="M99,106.74H98V99.06H95.31v-.88h6.41v.88H99Z" fill="#fff"/>
      <path d="M109.51,106.74h-1v-4H104v4h-1V98.18h1v3.64h4.5V98.18h1Z" fill="#fff"/>
    </g>
    <g>
      <path d="M40.3,149.52H43a5.1,5.1,0,0,1,2.72.55,1.94,1.94,0,0,1,.84,1.75,2,2,0,0,1-.47,1.36,2.22,2.22,0,0,1-1.37.69v.07c1.44.24,2.15,1,2.15,2.22A2.35,2.35,0,0,1,46,158.1a3.67,3.67,0,0,1-2.4.7H40.3Zm1.1,4h1.81a3,3,0,0,0,1.67-.36,1.36,1.36,0,0,0,.51-1.21,1.22,1.22,0,0,0-.57-1.12,3.61,3.61,0,0,0-1.81-.35H41.4Zm0,.92v3.47h2a2.83,2.83,0,0,0,1.72-.44,1.58,1.58,0,0,0,.58-1.36,1.45,1.45,0,0,0-.59-1.27,3.24,3.24,0,0,0-1.8-.4Z" fill="#146ac4"/>
      <path d="M53.07,158.8l-.22-1H52.8a3,3,0,0,1-1,.89,3.39,3.39,0,0,1-1.32.23,2.38,2.38,0,0,1-1.65-.54,1.91,1.91,0,0,1-.6-1.51c0-1.41,1.15-2.14,3.43-2.21l1.21,0v-.43a1.73,1.73,0,0,0-.36-1.21,1.51,1.51,0,0,0-1.15-.39,4.78,4.78,0,0,0-2,.53l-.33-.8a4.73,4.73,0,0,1,1.14-.44,5,5,0,0,1,1.26-.16,2.71,2.71,0,0,1,1.87.55,2.27,2.27,0,0,1,.61,1.77v4.75Zm-2.43-.74a2.21,2.21,0,0,0,1.58-.54,2,2,0,0,0,.57-1.51v-.63l-1.07,0a4,4,0,0,0-1.85.39,1.18,1.18,0,0,0-.56,1.08,1.06,1.06,0,0,0,.35.87A1.45,1.45,0,0,0,50.64,158.06Z" fill="#146ac4"/>
      <path d="M57.14,158.8H56.07v-9.88h1.07Z" fill="#146ac4"/>
      <path d="M63.78,158.8l-.22-1h-.05a3,3,0,0,1-1.06.89,3.34,3.34,0,0,1-1.31.23,2.38,2.38,0,0,1-1.65-.54,1.91,1.91,0,0,1-.6-1.51c0-1.41,1.14-2.14,3.43-2.21l1.2,0v-.43a1.73,1.73,0,0,0-.36-1.21A1.47,1.47,0,0,0,62,152.6a4.86,4.86,0,0,0-2,.53l-.33-.8a4.81,4.81,0,0,1,1.15-.44,4.87,4.87,0,0,1,1.25-.16,2.72,2.72,0,0,1,1.88.55,2.27,2.27,0,0,1,.61,1.77v4.75Zm-2.43-.74a2.23,2.23,0,0,0,1.58-.54A2,2,0,0,0,63.5,156v-.63l-1.08,0a4,4,0,0,0-1.84.39,1.17,1.17,0,0,0-.57,1.08,1.07,1.07,0,0,0,.36.87A1.45,1.45,0,0,0,61.35,158.06Z" fill="#146ac4"/>
      <path d="M71.63,158.8v-4.5a1.81,1.81,0,0,0-.4-1.27,1.61,1.61,0,0,0-1.23-.42,2.07,2.07,0,0,0-1.63.59,2.9,2.9,0,0,0-.52,2v3.65H66.78v-7h.87l.18.95h0a2.22,2.22,0,0,1,.92-.79,3,3,0,0,1,1.33-.28,2.73,2.73,0,0,1,1.92.6,2.56,2.56,0,0,1,.65,1.94v4.54Z" fill="#146ac4"/>
      <path d="M77.73,158.93a3.05,3.05,0,0,1-2.38-.93,3.79,3.79,0,0,1-.84-2.63,3.89,3.89,0,0,1,.85-2.7,3.1,3.1,0,0,1,2.44-.95,5,5,0,0,1,1,.1,3.57,3.57,0,0,1,.8.26l-.32.89a5.5,5.5,0,0,0-.78-.23,3.61,3.61,0,0,0-.74-.09q-2.16,0-2.16,2.7a3.12,3.12,0,0,0,.53,2,1.84,1.84,0,0,0,1.56.69,4.82,4.82,0,0,0,1.81-.38v.94A3.93,3.93,0,0,1,77.73,158.93Z" fill="#146ac4"/>
      <path d="M84.19,158.93a3.29,3.29,0,0,1-2.47-.94,3.59,3.59,0,0,1-.91-2.61,4,4,0,0,1,.84-2.67,2.83,2.83,0,0,1,2.27-1,2.66,2.66,0,0,1,2.1.86,3.23,3.23,0,0,1,.78,2.26v.67H81.92a2.7,2.7,0,0,0,.63,1.86,2.21,2.21,0,0,0,1.68.64,5.79,5.79,0,0,0,2.26-.47v.94a5.49,5.49,0,0,1-1.07.34A6.16,6.16,0,0,1,84.19,158.93Zm-.29-6.33a1.78,1.78,0,0,0-1.36.54,2.56,2.56,0,0,0-.59,1.52h3.7a2.29,2.29,0,0,0-.45-1.53A1.61,1.61,0,0,0,83.9,152.6Z" fill="#146ac4"/>
      <path d="M88.47,152.52c0-.57.26-.85.76-.85s.8.28.8.85a.9.9,0,0,1-.21.64.82.82,0,0,1-.59.22.77.77,0,0,1-.54-.2A.83.83,0,0,1,88.47,152.52Zm0,5.61a1,1,0,0,1,.2-.65.74.74,0,0,1,.56-.22.81.81,0,0,1,.59.22.91.91,0,0,1,.21.65.89.89,0,0,1-.21.63.78.78,0,0,1-.59.22.72.72,0,0,1-.54-.2A.82.82,0,0,1,88.47,158.13Z" fill="#146ac4"/>
    </g>
    <g>
      <path d="M62.73,171.78h2.66v.87H62.73v2.71h-.9v-2.71H59.18v-.87h2.65v-2.72h.9Z" fill="#00a67c"/>
      <path d="M76.37,176.8H70.16v-.91l2.49-2.46a17.54,17.54,0,0,0,1.5-1.61,4,4,0,0,0,.54-.94,2.63,2.63,0,0,0,.18-1,1.53,1.53,0,0,0-.46-1.18,1.76,1.76,0,0,0-1.27-.43,3.16,3.16,0,0,0-1.11.19,4,4,0,0,0-1.18.69l-.57-.72a4.42,4.42,0,0,1,2.85-1.07,3.06,3.06,0,0,1,2.08.67,2.28,2.28,0,0,1,.76,1.8,3.51,3.51,0,0,1-.5,1.75,11.24,11.24,0,0,1-1.89,2.18l-2.07,2v0h4.86Z" fill="#00a67c"/>
      <path d="M79.34,175.29l.1.14a14.6,14.6,0,0,1-.48,1.48c-.22.56-.43,1.08-.66,1.56h-.81c.12-.44.24-1,.38-1.63s.24-1.16.3-1.55Z" fill="#00a67c"/>
      <path d="M87.63,174.67h-1.4v2.13h-1v-2.13H80.6v-.92l4.49-6.28h1.14v6.24h1.4Zm-2.43-1v-3.09c0-.6,0-1.29.06-2.05h-.05a10.27,10.27,0,0,1-.58,1l-2.95,4.13Z" fill="#00a67c"/>
      <path d="M94.8,172.15a6.72,6.72,0,0,1-.77,3.59,2.63,2.63,0,0,1-2.36,1.19,2.6,2.6,0,0,1-2.32-1.22,6.54,6.54,0,0,1-.8-3.56,6.69,6.69,0,0,1,.77-3.6,2.87,2.87,0,0,1,4.68,0A6.52,6.52,0,0,1,94.8,172.15Zm-5.16,0a6.69,6.69,0,0,0,.48,2.94,1.63,1.63,0,0,0,1.55.93,1.62,1.62,0,0,0,1.55-.94,9.18,9.18,0,0,0,0-5.86,1.77,1.77,0,0,0-3.1,0A6.77,6.77,0,0,0,89.64,172.15Z" fill="#00a67c"/>
      <path d="M102.37,172.15a6.72,6.72,0,0,1-.77,3.59,2.65,2.65,0,0,1-2.37,1.19,2.61,2.61,0,0,1-2.32-1.22,6.55,6.55,0,0,1-.79-3.56,6.69,6.69,0,0,1,.77-3.6,2.87,2.87,0,0,1,4.68,0A6.52,6.52,0,0,1,102.37,172.15Zm-5.17,0a6.66,6.66,0,0,0,.49,2.94,1.75,1.75,0,0,0,3.1,0,9.18,9.18,0,0,0,0-5.86,1.77,1.77,0,0,0-3.1,0A6.74,6.74,0,0,0,97.2,172.15Z" fill="#00a67c"/>
    </g>
    <path d="M40,166.15H52v12H40Zm9.82,6.21L46,168.55l-3.82,3.81,1.06,1.07,1.86-1.86v4.18h1.8v-4.18l1.86,1.86Z" fill="#00a67c"/>
    <g>
      <rect x="40" y="191.5" width="16.33" height="65" fill="#146ac4" stroke="#146ac4" stroke-miterlimit="10"/>
      <rect x="87.35" y="191.5" width="24.49" height="65" fill="#146ac4" stroke="#146ac4" stroke-miterlimit="10"/>
      <rect x="232.65" y="191.5" width="24.49" height="65" fill="#146ac4" stroke="#146ac4" stroke-miterlimit="10"/>
      <rect x="128.16" y="191.5" width="16.33" height="65" fill="#146ac4" stroke="#146ac4" stroke-miterlimit="10"/>
      <rect x="152.65" y="191.5" width="16.33" height="65" fill="#146ac4" stroke="#146ac4" stroke-miterlimit="10"/>
      <rect x="191.84" y="191.5" width="16.33" height="65" fill="#146ac4" stroke="#146ac4" stroke-miterlimit="10"/>
      <rect x="263.67" y="191.5" width="16.33" height="65" fill="#146ac4" stroke="#146ac4" stroke-miterlimit="10"/>
      <rect x="64.49" y="191.5" width="8.16" height="65" fill="#146ac4" stroke="#146ac4" stroke-miterlimit="10"/>
      <rect x="216.33" y="191.5" width="8.16" height="65" fill="#146ac4" stroke="#146ac4" stroke-miterlimit="10"/>
    </g>
    <g>
      <path d="M15.61,2.35,26.32,0a.55.55,0,0,1,.7.49L27.52,8a.79.79,0,0,1-.61.78L16.2,11.14a.56.56,0,0,1-.7-.5L15,3.14A.79.79,0,0,1,15.61,2.35Z" fill="#146ac4" fill-rule="evenodd"/>
      <path d="M29.6,6.2H29a.45.45,0,1,1,0-.89h.56l-.2-2.25a.75.75,0,0,0-.74-.63h-.44L28.51,8a1.74,1.74,0,0,1-1.38,1.75l-6.78,1.48h9a.6.6,0,0,0,.62-.64Z" fill="#146ac4"/>
    </g>
    <g>
      <g>
        <path d="M47.1,10.55,46,7.59H42.23l-1.14,3H40l3.66-9.32h.91l3.65,9.32ZM45.61,6.62,44.53,3.75c-.14-.37-.28-.81-.43-1.34a10.75,10.75,0,0,1-.4,1.34L42.61,6.62Z" fill="#146ac4"/>
        <path d="M55,10.55,53.73,6.46c-.08-.25-.23-.81-.45-1.7h-.05c-.17.74-.32,1.32-.44,1.72l-1.32,4.07H50.26l-1.9-7h1.1c.45,1.75.79,3.08,1,4a16.32,16.32,0,0,1,.4,1.85h0c.05-.24.12-.55.23-.94s.19-.68.27-.91l1.27-4h1.14l1.25,4a15.42,15.42,0,0,1,.48,1.84h.05a5.58,5.58,0,0,1,.13-.71c.08-.32.52-2,1.33-5.12h1.09l-1.92,7Z" fill="#146ac4"/>
        <path d="M63.71,10.55l-.21-1h0a3,3,0,0,1-1,.88,3.1,3.1,0,0,1-1.29.23,2.29,2.29,0,0,1-1.62-.53,2,2,0,0,1-.59-1.52c0-1.4,1.12-2.14,3.37-2.21l1.18,0V5.94a1.82,1.82,0,0,0-.35-1.21A1.46,1.46,0,0,0,62,4.34a4.51,4.51,0,0,0-2,.54l-.33-.81a4.92,4.92,0,0,1,1.13-.44A5,5,0,0,1,62,3.47,2.61,2.61,0,0,1,63.88,4a2.27,2.27,0,0,1,.6,1.77v4.75ZM61.33,9.8a2.13,2.13,0,0,0,1.54-.54,2,2,0,0,0,.56-1.51V7.12l-1,0a3.83,3.83,0,0,0-1.81.39A1.18,1.18,0,0,0,60,8.64a1.05,1.05,0,0,0,.34.86A1.43,1.43,0,0,0,61.33,9.8Z" fill="#146ac4"/>
        <path d="M69.82,3.46a4.1,4.1,0,0,1,.83.08l-.14,1a3.24,3.24,0,0,0-.76-.1,1.85,1.85,0,0,0-1.45.69,2.51,2.51,0,0,0-.59,1.7v3.74H66.65v-7h.87l.12,1.29h0a3.1,3.1,0,0,1,.93-1A2.1,2.1,0,0,1,69.82,3.46Z" fill="#146ac4"/>
        <path d="M76.68,9.61h-.06a2.45,2.45,0,0,1-2.18,1.06,2.6,2.6,0,0,1-2.12-.93,4.14,4.14,0,0,1-.75-2.65,4.19,4.19,0,0,1,.76-2.68,2.55,2.55,0,0,1,2.11-1,2.51,2.51,0,0,1,2.17,1h.09l0-.5,0-.49V.67h1.06v9.88h-.86Zm-2.1.18a1.91,1.91,0,0,0,1.56-.59,3,3,0,0,0,.48-1.89V7.09A3.47,3.47,0,0,0,76.13,5a1.83,1.83,0,0,0-1.57-.64,1.6,1.6,0,0,0-1.41.72,3.58,3.58,0,0,0-.49,2,3.47,3.47,0,0,0,.48,2A1.68,1.68,0,0,0,74.58,9.79Z" fill="#146ac4"/>
        <path d="M88.16,10.55H87.09L85.22,4.33c-.09-.27-.19-.62-.3-1s-.16-.67-.17-.75a14.51,14.51,0,0,1-.44,1.83L82.5,10.55H81.43L79,1.27h1.15L81.57,7A21,21,0,0,1,82,9.18a17.34,17.34,0,0,1,.51-2.27l1.66-5.64h1.14L87.07,7a18.32,18.32,0,0,1,.51,2.22A17.74,17.74,0,0,1,88,7L89.5,1.27h1.14Z" fill="#146ac4"/>
        <path d="M96.2,10.55l-.21-1h0a2.89,2.89,0,0,1-1,.88,3.1,3.1,0,0,1-1.29.23A2.29,2.29,0,0,1,92,10.14a2,2,0,0,1-.59-1.52c0-1.4,1.12-2.14,3.37-2.21l1.18,0V5.94a1.77,1.77,0,0,0-.36-1.21,1.44,1.44,0,0,0-1.12-.39,4.55,4.55,0,0,0-2,.54l-.32-.81a5,5,0,0,1,1.12-.44,5.19,5.19,0,0,1,1.23-.16A2.63,2.63,0,0,1,96.38,4,2.31,2.31,0,0,1,97,5.8v4.75ZM93.83,9.8a2.13,2.13,0,0,0,1.54-.54,2,2,0,0,0,.56-1.51V7.12l-1.05,0a3.83,3.83,0,0,0-1.81.39,1.18,1.18,0,0,0-.56,1.08,1.06,1.06,0,0,0,.35.86A1.43,1.43,0,0,0,93.83,9.8Z" fill="#146ac4"/>
        <path d="M100.2,10.55h-1V.67h1Z" fill="#146ac4"/>
        <path d="M103.49,10.55h-1.06V.67h1.06Z" fill="#146ac4"/>
        <path d="M108.65,10.67a3.19,3.19,0,0,1-2.43-.94,3.64,3.64,0,0,1-.89-2.61,4,4,0,0,1,.83-2.67,2.74,2.74,0,0,1,2.22-1,2.64,2.64,0,0,1,2.07.86,3.3,3.3,0,0,1,.76,2.27v.67h-4.79A2.79,2.79,0,0,0,107,9.12a2.14,2.14,0,0,0,1.65.63,5.47,5.47,0,0,0,2.22-.47v.94a5.62,5.62,0,0,1-1,.35A6.09,6.09,0,0,1,108.65,10.67Zm-.28-6.33a1.76,1.76,0,0,0-1.34.55,2.53,2.53,0,0,0-.58,1.51h3.63a2.38,2.38,0,0,0-.44-1.53A1.58,1.58,0,0,0,108.37,4.34Z" fill="#146ac4"/>
        <path d="M115.25,9.8a3.27,3.27,0,0,0,.54,0c.17,0,.31,0,.41-.08v.8a1.92,1.92,0,0,1-.5.14,3.45,3.45,0,0,1-.6.05c-1.35,0-2-.71-2-2.12V4.41h-1V3.9l1-.44L113.52,2h.61V3.59h2v.82h-2V8.5a1.43,1.43,0,0,0,.3,1A1,1,0,0,0,115.25,9.8Z" fill="#146ac4"/>
      </g>
      <g>
        <path d="M131.53,10.55h-1V3.93c0-.55,0-1.07.05-1.56l-.3.28-1.51,1.24-.56-.73,2.46-1.89h.88Z" fill="#146ac4"/>
        <path d="M141.15,10.55h-6.09V9.64l2.44-2.46A19,19,0,0,0,139,5.57a4.1,4.1,0,0,0,.53-.94,2.63,2.63,0,0,0,.18-1,1.56,1.56,0,0,0-.45-1.18A1.73,1.73,0,0,0,138,2a3.29,3.29,0,0,0-1.09.19,4.22,4.22,0,0,0-1.15.7l-.56-.72A4.26,4.26,0,0,1,138,1.13,3,3,0,0,1,140,1.8a2.33,2.33,0,0,1,.74,1.8,3.51,3.51,0,0,1-.5,1.75,11,11,0,0,1-1.85,2.18l-2,2v.05h4.77Z" fill="#146ac4"/>
        <path d="M142.81,4.27c0-.57.25-.86.75-.86s.78.29.78.86a.89.89,0,0,1-.21.63.81.81,0,0,1-1.11,0A.86.86,0,0,1,142.81,4.27Zm0,5.6a1,1,0,0,1,.19-.64.7.7,0,0,1,.56-.22.72.72,0,0,1,.57.22.9.9,0,0,1,.21.64.9.9,0,0,1-.21.64.74.74,0,0,1-.57.22.78.78,0,0,1-.54-.2A.87.87,0,0,1,142.81,9.87Z" fill="#146ac4"/>
        <path d="M152.08,5.89a6.77,6.77,0,0,1-.76,3.6,2.8,2.8,0,0,1-4.59,0A6.66,6.66,0,0,1,146,5.89a6.85,6.85,0,0,1,.75-3.6,2.81,2.81,0,0,1,4.6,0A6.65,6.65,0,0,1,152.08,5.89Zm-5.06,0a6.76,6.76,0,0,0,.47,3,1.71,1.71,0,0,0,3,0A6.77,6.77,0,0,0,151,5.89,6.75,6.75,0,0,0,150.53,3a1.71,1.71,0,0,0-3,0A6.71,6.71,0,0,0,147,5.89Z" fill="#146ac4"/>
        <path d="M159.5,5.89a6.88,6.88,0,0,1-.75,3.6,2.57,2.57,0,0,1-2.32,1.18,2.54,2.54,0,0,1-2.28-1.21,6.66,6.66,0,0,1-.78-3.57,6.75,6.75,0,0,1,.76-3.6,2.8,2.8,0,0,1,4.59,0A6.65,6.65,0,0,1,159.5,5.89Zm-5.06,0a6.92,6.92,0,0,0,.47,3,1.71,1.71,0,0,0,3,0,6.75,6.75,0,0,0,.48-2.94A6.73,6.73,0,0,0,158,3,1.58,1.58,0,0,0,156.43,2a1.61,1.61,0,0,0-1.52.92A6.86,6.86,0,0,0,154.44,5.89Z" fill="#146ac4"/>
      </g>
    </g>
    <polygon points="174 5 170.5 8.5 169.5 7.5 174 3 178.5 7.5 177.5 8.5 174 5" fill="#146ac4"/>
  </g>
</svg>
