<svg xmlns="http://www.w3.org/2000/svg" viewBox="0 0 375 812">
  <g>
    <polyline points="375 812 0 812 0 0 375 0 375 812" fill="#146ac4"/>
    <polyline points="213.99 0 0 0 0 275.44 213.99 0" fill="#0e51b2"/>
    <polyline points="241.96 812 375 621.78 375 579.15 125.8 812 241.96 812" fill="#0e51b2"/>
    <polyline points="0 631.97 375 391 375 361.88 0 509.91 0 631.97" fill="#0e51b2"/>
    <path d="M25.63,812H68.41L375,64.82V0H230.9L25.63,812" fill="#0e51b2"/>
    <path d="M316.57,207.22l-12,29.26,20.65,15-8.64-44.29M158.1,71.94l-28.75,37,62.51,45.5,11.8-46.68L158.1,71.94" fill="#2c79ca"/>
    <polyline points="66.59 0 0 0 0 14.8 129.35 108.95 158.1 71.94 66.59 0" fill="#2763ba"/>
    <path d="M203.66,107.77l-11.8,46.68,112.7,82,12-29.26-2.46-12.61L203.66,107.77" fill="#2763ba"/>
    <polyline points="358.85 229.79 362.85 278.91 375 287.75 375 242.49 358.85 229.79" fill="#2c79ca"/>
    <polyline points="350.31 124.98 319.88 199.15 358.85 229.79 350.31 124.98" fill="#2c79ca"/>
    <polyline points="340.13 0 276.13 0 314.11 194.61 319.88 199.15 350.31 124.98 340.13 0" fill="#2763ba"/>
    <path d="M372.14,392.84,355,403.89l16.17,82.85,3.88-2.63V428l-2.86-35.14M325.21,251.51l23.56,120.72,21-8.29-6.93-85-37.64-27.4" fill="#2c79ca"/>
    <polyline points="369.78 363.94 348.77 372.24 354.95 403.89 372.14 392.84 369.78 363.94" fill="#2763ba"/>
    <polyline points="375 496.65 373.32 498.04 375 506.63 375 496.65" fill="#2c79ca"/>
    <polyline points="319.88 199.15 316.57 207.22 325.21 251.51 362.85 278.91 358.85 229.79 319.88 199.15" fill="#4287cf"/>
    <polyline points="314.11 194.61 316.57 207.22 319.88 199.15 314.11 194.61" fill="#3d73c1"/>
    <path d="M213.64,494.69l-20.41,13.12-4,9.81,56.54,54,21.67-14.67-53.77-62.24m-202.18-234L0,275.44V337L117.39,449.05q6.48-25.65,12.86-50.87L11.46,260.69" fill="#2c79ca"/>
    <polyline points="0 247.43 0 275.44 11.46 260.69 0 247.43" fill="#2763ba"/>
    <path d="M203.45,482.9l-73.2-84.72q-6.37,25.2-12.86,50.87l71.81,68.57,4-9.81,20.41-13.12Z" fill="#2763ba"/>
    <path d="M351.93,654.76l-7.65,10.94L375,695V681.46l-23.07-26.7m-70.06-81.09-18.2,15.05,50,47.74,12.42-11.61-44.22-51.18" fill="#2c79ca"/>
    <polyline points="326.09 624.85 313.67 636.46 344.28 665.7 351.94 654.76 326.09 624.85" fill="#2763ba"/>
    <polyline points="371.12 486.74 267.41 556.93 281.87 573.67 373.32 498.04 371.12 486.74" fill="#2c79ca"/>
    <polyline points="375 484.11 371.12 486.74 373.32 498.04 375 496.65 375 484.11" fill="#4287cf"/>
    <path d="M53.51,701.71,0,737.93v68.83l34.08-28.18c6.26-24.77,12.77-50.5,19.43-76.87M245.74,571.6l-109,73.74-30,73.11L263.67,588.72,245.74,571.6" fill="#2c79ca"/>
    <path d="M136.79,645.34,53.51,701.71c-6.66,26.37-13.17,52.1-19.43,76.87l72.71-60.13,30-73.11" fill="#2763ba"/>
    <polyline points="267.41 556.93 245.74 571.6 263.67 588.72 281.87 573.67 267.41 556.93" fill="#4287cf"/>
  </g>
</svg>
