<svg xmlns="http://www.w3.org/2000/svg" viewBox="0 0 360 740">
  <g>
    <polyline points="221.67 0 205.43 0 151.77 69.07 195.51 103.46 221.67 0" fill="#5b97d6"/>
    <polyline points="360 62.23 336.3 119.98 344.5 220.6 360 232.79 360 62.23" fill="#5b97d6"/>
    <path d="M348.34,267.75,355,349.38l5-2V276.24l-11.66-8.49M124.17,104.59,11,250.26l114,132,59.15-234-60-43.68" fill="#5b97d6"/>
    <path d="M360,375.36l-2.75,1.77L360,410.86v-35.5M0,323.49v166l108.78-42.94,3.91-15.48L0,323.49" fill="#5b97d6"/>
    <polyline points="358.39 478.12 270.6 550.72 313.05 599.86 360 555.99 360 486.37 358.39 478.12" fill="#5b97d6"/>
    <path d="M360,596.91l-22.14,31.66L360,654.2V596.91M253.12,565.17,102.52,689.71,81.89,740h81.17L301.12,611l-48-45.83M81.55,554.29,0,606.69V708.41l51.37-34.77L81.55,554.29" fill="#5b97d6"/>
    <polyline points="330.51 639.07 259.92 740 360 740 360 667.23 330.51 639.07" fill="#5b97d6"/>
    <path d="M181.63,496.92,131.32,619.53l104.59-70.79-54.28-51.82M340.75,387.73,205.09,474.9l51.62,59.75,99.56-67.38-15.52-79.54M292.38,227l-72,175.51,114.46-45.18L312.2,241.45,292.38,227" fill="#5b97d6"/>
    <polyline points="205.43 0 63.93 0 151.77 69.07 205.43 0" fill="#146ac4"/>
    <polyline points="0 14.21 0 237.53 11 250.26 124.17 104.59 0 14.21" fill="#146ac4"/>
    <polyline points="360 555.99 313.05 599.86 337.86 628.57 360 596.91 360 555.99" fill="#146ac4"/>
    <polyline points="301.12 611 163.06 740 259.92 740 330.51 639.07 301.12 611" fill="#146ac4"/>
    <polyline points="360 347.41 354.99 349.38 357.25 377.13 360 375.36 360 347.41" fill="#146ac4"/>
    <polyline points="108.78 446.57 0 489.51 0 606.69 81.55 554.29 108.78 446.57" fill="#146ac4"/>
    <polyline points="334.82 357.35 220.36 402.53 195.31 463.58 205.09 474.9 340.75 387.73 334.82 357.35" fill="#146ac4"/>
    <polyline points="360 0 326.53 0 336.3 119.98 360 62.23 360 0" fill="#146ac4"/>
    <polyline points="112.69 431.09 108.78 446.57 81.55 554.29 51.37 673.64 131.32 619.53 181.63 496.92 112.69 431.09" fill="#146ac4"/>
    <polyline points="184.19 148.27 125.04 382.25 195.31 463.58 220.36 402.53 292.38 227.02 184.19 148.27" fill="#146ac4"/>
    <polyline points="265.08 0 221.67 0 195.51 103.46 301.54 186.82 265.08 0" fill="#146ac4"/>
    <polyline points="102.52 689.71 41.71 740 81.89 740 102.52 689.71" fill="#146ac4"/>
    <polyline points="151.77 69.07 124.17 104.59 184.19 148.27 195.51 103.46 151.77 69.07" fill="#6ca2da"/>
    <polyline points="63.93 0 0 0 0 14.21 124.17 104.59 151.77 69.07 63.93 0" fill="#2c79ca"/>
    <polyline points="303.91 198.93 292.38 227.02 312.2 241.45 303.91 198.93" fill="#6ca2da"/>
    <polyline points="344.5 220.6 348.34 267.75 360 276.24 360 232.79 344.5 220.6" fill="#6ca2da"/>
    <polyline points="195.51 103.46 184.19 148.27 292.38 227.02 303.91 198.93 301.54 186.82 195.51 103.46" fill="#2c79ca"/>
    <polyline points="336.3 119.98 307.09 191.18 344.5 220.6 336.3 119.98" fill="#6ca2da"/>
    <path d="M357.25,377.13l-16.5,10.6,15.52,79.54,3.73-2.53V410.86l-2.75-33.73M312.2,241.45l22.62,115.9,20.17-8-6.65-81.63-36.14-26.3" fill="#6ca2da"/>
    <polyline points="354.99 349.38 334.82 357.35 340.75 387.73 357.25 377.13 354.99 349.38" fill="#2c79ca"/>
    <polyline points="326.53 0 265.08 0 301.54 186.82 307.09 191.18 336.3 119.98 326.53 0" fill="#2c79ca"/>
    <polyline points="307.09 191.18 303.91 198.93 312.2 241.45 348.34 267.75 344.5 220.6 307.09 191.18" fill="#7babde"/>
    <polyline points="301.54 186.82 303.91 198.93 307.09 191.18 301.54 186.82" fill="#4287cf"/>
    <polyline points="360 476.79 358.39 478.12 360 486.37 360 476.79" fill="#6ca2da"/>
    <polyline points="11 250.26 0 264.42 0 323.49 112.69 431.09 125.04 382.25 11 250.26" fill="#6ca2da"/>
    <polyline points="0 237.53 0 264.42 11 250.26 0 237.53" fill="#2c79ca"/>
    <polyline points="205.09 474.9 185.5 487.49 181.63 496.92 235.91 548.74 256.71 534.65 205.09 474.9" fill="#6ca2da"/>
    <polyline points="195.31 463.58 185.5 487.49 205.09 474.9 195.31 463.58" fill="#2c79ca"/>
    <polyline points="125.04 382.25 112.69 431.09 181.63 496.92 185.5 487.49 195.31 463.58 125.04 382.25" fill="#2c79ca"/>
    <path d="M337.86,628.57l-7.35,10.5L360,667.23v-13l-22.14-25.63M270.6,550.72l-17.48,14.45,48,45.83,11.93-11.14L270.6,550.72" fill="#6ca2da"/>
    <polyline points="313.05 599.86 301.12 611 330.51 639.07 337.86 628.57 313.05 599.86" fill="#2c79ca"/>
    <path d="M235.91,548.74,131.32,619.53l-28.8,70.18,150.6-124.54-17.21-16.43m120.36-81.47-99.56,67.38,13.89,16.07,87.79-72.6-2.12-10.85" fill="#6ca2da"/>
    <polyline points="51.37 673.64 0 708.41 0 740 34.6 740 51.37 673.64" fill="#6ca2da"/>
    <polyline points="131.32 619.53 51.37 673.64 34.6 740 41.71 740 102.52 689.71 131.32 619.53" fill="#2c79ca"/>
    <polyline points="360 464.74 356.27 467.27 358.39 478.12 360 476.79 360 464.74" fill="#7babde"/>
    <polyline points="256.71 534.65 235.91 548.74 253.12 565.17 270.6 550.72 256.71 534.65" fill="#7babde"/>
  </g>
</svg>
