<svg xmlns="http://www.w3.org/2000/svg" viewBox="0 0 100 100">
  <polyline points="100 100 0 100 0 0 100 0 100 100" fill="#3189cc"/>
  <polyline points="38.76 0 0 0 0 49.89 38.76 0" fill="#125da3"/>
  <polyline points="11.22 35.44 0 49.89 0 55.81 35.39 81.57 39.23 57.46 11.22 35.44" fill="#4695d1"/>
  <polyline points="0 26.62 0 49.89 11.22 35.44 0 26.62" fill="#2a6eac"/>
  <polyline points="82.07 91.14 77.44 100 60.72 100 93.33 100 82.07 91.14" fill="#4695d1"/>
  <polyline points="32.45 100 77.44 100 100 56.77 100 0 48.39 0 32.45 100" fill="#125da3"/>
  <polyline points="100 56.77 88.67 78.49 93.74 100 100 100 100 56.77" fill="#4695d1"/>
  <polyline points="100 0 70.14 0 88.67 78.49 100 56.77 100 0" fill="#2a6eac"/>
</svg>
