<svg xmlns="http://www.w3.org/2000/svg" viewBox="0 0 263 322">
  <path d="M226.53,132.63,197.89,239.49l-26.68-7.15L213.59,74.18A64.92,64.92,0,0,1,226.53,132.63Zm32.52,143.79a22.88,22.88,0,0,1-28,16.18L17.2,235.3A22.87,22.87,0,0,1,1,207.28H1a22.87,22.87,0,0,1,28-16.17,11.76,11.76,0,0,0,14.39-8.31L68.24,90.22A99,99,0,0,1,177.48,17.83l-2.31-.61a14.54,14.54,0,0,1,28.09,7.52l-2.3-.61a98.94,98.94,0,0,1,58.41,117.3L234.56,234a11.75,11.75,0,0,0,8.31,14.39A22.89,22.89,0,0,1,259.05,276.42Zm-20.58-11.6a28.79,28.79,0,0,1-20.33-35.21L243,137A81.94,81.94,0,0,0,84.66,94.62L59.85,187.2a28.79,28.79,0,0,1-35.21,20.33,5.88,5.88,0,1,0-3,11.35l213.83,57.3a5.88,5.88,0,0,0,3-11.36Zm-129.64,10.4a44.19,44.19,0,0,0,80.22,21.5Z"/>
</svg>
