<svg xmlns="http://www.w3.org/2000/svg" viewBox="0 0 320 322">
  <path d="M295,15a10,10,0,0,1,10,10V297a10,10,0,0,1-10,10H25a10,10,0,0,1-10-10V25A10,10,0,0,1,25,15H295m0-15H25A25,25,0,0,0,0,25V297a25,25,0,0,0,25,25H295a25,25,0,0,0,25-25V25A25,25,0,0,0,295,0Z" fill="#fff"/>
  <path d="M295,160H25V75a5,5,0,0,1,5-5H290a5,5,0,0,1,5,5Z" fill="#004d77"/>
  <g>
    <g>
      <path d="M209.52,102q7.57-6,15.19-11.87l37.22,3.55c6,.57,12.05,1.17,18.07,1.72-.07,1.36-.25,2.71-.36,4.07q-1.9,20.22-3.8,40.44-27.72-2.56-55.42-5.18-6.15-7.19-12.28-14.38c-.11-.15-.33-.29-.3-.5Q208.68,110.91,209.52,102Zm.95.43c-.12.53-.12,1.09-.19,1.63l-1.53,15.57,12.13,14.09L275,138.89l4-42.59-17.34-1.67Q243.36,92.88,225,91.12,217.77,96.78,210.47,102.41Z"/>
      <path d="M219,98.78c2.74.26,5.47.54,8.2.81a12.52,12.52,0,0,1,4.38,1.11,3.45,3.45,0,0,1,1.94,1.92,3,3,0,0,1-1.06,3,4.93,4.93,0,0,1-1.46.75,4.67,4.67,0,0,1,2.35,1.62,2.72,2.72,0,0,1,0,3.22,4.63,4.63,0,0,1-2.82,1.41,21.14,21.14,0,0,1-6.15-.1l-6.6-.67Zm5.7,5.65a4,4,0,0,0,2.36-.1.77.77,0,0,0,.12-1.3,4.06,4.06,0,0,0-2.31-.38C224.82,103.24,224.76,103.84,224.72,104.43Zm-.27,2.78c0,.72-.1,1.43-.14,2.14a6.81,6.81,0,0,0,2.66.06,1,1,0,0,0,.84-.87,1.09,1.09,0,0,0-.78-1A6.85,6.85,0,0,0,224.45,107.21Z"/>
      <path d="M235.4,100.42l12.25,1.17c-.11,1.23-.23,2.45-.35,3.68l-5.52-.53c0,.39-.07.79-.11,1.18,1.68.15,3.36.32,5,.48-.1,1.12-.21,2.24-.32,3.37-1.67-.16-3.34-.33-5-.47,0,.44-.09.88-.13,1.33l5.64.54c-.11,1.16-.23,2.32-.33,3.48l-12.34-1.17Q234.81,107,235.4,100.42Z"/>
      <path d="M253.12,102.42a13.58,13.58,0,0,1,6.36.37,11.8,11.8,0,0,1,3,1.3c-.66,1-1.39,2-2.11,3a7.59,7.59,0,0,0-3.1-1.19,3.45,3.45,0,0,0-1.83.14c-.18.08-.39.32-.2.5a2.65,2.65,0,0,0,1,.51c1.27.45,2.58.74,3.86,1.15a3.5,3.5,0,0,1,2.27,3.75,3.9,3.9,0,0,1-2.11,2.73,10.72,10.72,0,0,1-5.61,1,20.16,20.16,0,0,1-7.47-2c.77-1.15,1.55-2.28,2.31-3.42a7.56,7.56,0,0,0,2.68,1.36,6.42,6.42,0,0,0,2.64.35c.32-.07.74-.13.86-.48s-.24-.43-.43-.56a8,8,0,0,0-1.8-.56,9.68,9.68,0,0,1-3.85-1.62,3,3,0,0,1-.11-4.59A7.57,7.57,0,0,1,253.12,102.42Z"/>
      <path d="M263.1,103.12c4.63.4,9.26.87,13.89,1.31-.13,1.42-.27,2.83-.4,4.25-1.2-.12-2.41-.24-3.61-.34-.27,2.94-.56,5.88-.84,8.82l-6.58-.63.75-8.83c-1.2-.12-2.39-.25-3.59-.34C262.81,105.94,263,104.53,263.1,103.12Z"/>
      <path d="M213,109.34a2.46,2.46,0,1,1-1.79,1.42A2.46,2.46,0,0,1,213,109.34Zm0,.93a1.55,1.55,0,1,0,2,1.29A1.56,1.56,0,0,0,213,110.27Z"/>
      <path d="M220.34,113.8c3,.27,6,.58,8.95.88a11.33,11.33,0,0,1,4,1.24,2.93,2.93,0,0,1,1.57,1.86,3.13,3.13,0,0,1-.66,2.47,3.79,3.79,0,0,1-1.89,1.13,5,5,0,0,1,2.39,1.7,2.74,2.74,0,0,1,0,3.11,4.1,4.1,0,0,1-2.24,1.33,14.7,14.7,0,0,1-5.37.18c-2.67-.25-5.34-.54-8-.81C219.52,122.53,219.94,118.16,220.34,113.8Zm5.64,5.6a4.76,4.76,0,0,0,2.09,0,.92.92,0,0,0,.7-.73.73.73,0,0,0-.46-.78,4.63,4.63,0,0,0-2.16-.28C226.08,118.21,226,118.81,226,119.4Zm-.27,2.79c-.05.71-.1,1.42-.14,2.13a6.75,6.75,0,0,0,2.65.06,1,1,0,0,0,.84-.8,1,1,0,0,0-.72-1A6.89,6.89,0,0,0,225.71,122.19Z"/>
      <path d="M236.43,115.34l6.37.58-.66,7.15a2.77,2.77,0,0,0,0,1.31,1.47,1.47,0,0,0,1.18.88,2.13,2.13,0,0,0,1.79-.3,1.81,1.81,0,0,0,.57-1.35c.22-2.44.46-4.88.69-7.32,2.12.18,4.24.44,6.36.58a5.3,5.3,0,0,1,0,1c-.25,2.57-.48,5.15-.75,7.72a4.91,4.91,0,0,1-2.82,3.2,13.17,13.17,0,0,1-11.15-1,5.22,5.22,0,0,1-2.3-3.92C235.88,121,236.16,118.16,236.43,115.34Z"/>
      <path d="M252.76,117.12l.16-.18c2.38.23,4.76.44,7.14.65.63,1.19,1.22,2.41,1.84,3.61.8-1.06,1.57-2.14,2.36-3.2l7.42.71-6.59,6.53c-.14.16-.37.29-.35.54-.17,1.8-.35,3.61-.52,5.41-2.17-.2-4.34-.42-6.51-.61.16-1.84.36-3.67.51-5.51-.51-.83-1.1-1.62-1.64-2.44-1.22-1.78-2.44-3.55-3.64-5.33Z"/>
      <path d="M272.35,119.14a1.06,1.06,0,1,1-.56,1.31A1.05,1.05,0,0,1,272.35,119.14Zm.1.18a.88.88,0,0,0,.05,1.58.82.82,0,0,0,1.08-.87A.8.8,0,0,0,272.45,119.32Z"/>
      <path d="M272.44,119.46c.26.05.59,0,.79.19a.36.36,0,0,1-.27.56l.25.52c-.34.06-.34-.38-.5-.57-.24,0-.1.36-.17.51h-.22Zm.22.17c0,.09-.05.26-.06.35.16,0,.45.11.47-.14S272.79,119.69,272.66,119.63Z"/>
    </g>
    <g>
      <path d="M210.47,102.41q7.28-5.66,14.57-11.29,18.32,1.72,36.63,3.51L279,96.3l-4,42.59-54.14-5.19-12.13-14.09L210.28,104C210.35,103.5,210.35,102.94,210.47,102.41ZM219,98.78l-1.23,13.1,6.6.67a21.14,21.14,0,0,0,6.15.1,4.63,4.63,0,0,0,2.82-1.41,2.72,2.72,0,0,0,0-3.22A4.67,4.67,0,0,0,231,106.4a4.93,4.93,0,0,0,1.46-.75,3,3,0,0,0,1.06-3,3.45,3.45,0,0,0-1.94-1.92,12.52,12.52,0,0,0-4.38-1.11C224.49,99.32,221.76,99,219,98.78Zm16.38,1.64q-.59,6.54-1.18,13.06l12.34,1.17c.1-1.16.22-2.32.33-3.48l-5.64-.54c0-.45.09-.89.13-1.33,1.66.14,3.33.31,5,.47.11-1.13.22-2.25.32-3.37-1.67-.16-3.35-.33-5-.48,0-.39.08-.79.11-1.18l5.52.53c.12-1.23.24-2.45.35-3.68Zm17.72,2a7.57,7.57,0,0,0-3.66,1.83,3,3,0,0,0,.11,4.59,9.68,9.68,0,0,0,3.85,1.62,8,8,0,0,1,1.8.56c.19.13.43.3.43.56s-.54.41-.86.48a6.42,6.42,0,0,1-2.64-.35,7.56,7.56,0,0,1-2.68-1.36c-.76,1.14-1.54,2.27-2.31,3.42a20.16,20.16,0,0,0,7.47,2,10.72,10.72,0,0,0,5.61-1,3.9,3.9,0,0,0,2.11-2.73,3.5,3.5,0,0,0-2.27-3.75c-1.28-.41-2.59-.7-3.86-1.15a2.65,2.65,0,0,1-1-.51c-.19-.18,0-.42.2-.5a3.45,3.45,0,0,1,1.83-.14,7.59,7.59,0,0,1,3.1,1.19c.72-1,1.45-2,2.11-3a11.8,11.8,0,0,0-3-1.3A13.58,13.58,0,0,0,253.12,102.42Zm10,.7c-.1,1.41-.29,2.82-.38,4.24,1.2.09,2.39.22,3.59.34l-.75,8.83,6.58.63c.28-2.94.57-5.88.84-8.82,1.2.1,2.41.22,3.61.34.13-1.42.27-2.83.4-4.25C272.36,104,267.73,103.52,263.1,103.12ZM213,109.34a2.45,2.45,0,0,0-1.79,1.42,2.45,2.45,0,0,0,2.36,3.45,2.46,2.46,0,1,0-.57-4.87Zm7.37,4.46c-.4,4.36-.82,8.73-1.23,13.09,2.67.27,5.34.56,8,.81a14.7,14.7,0,0,0,5.37-.18,4.1,4.1,0,0,0,2.24-1.33,2.74,2.74,0,0,0,0-3.11,5,5,0,0,0-2.39-1.7,3.79,3.79,0,0,0,1.89-1.13,3.13,3.13,0,0,0,.66-2.47,2.93,2.93,0,0,0-1.57-1.86,11.33,11.33,0,0,0-4-1.24C226.31,114.38,223.33,114.07,220.34,113.8Zm16.09,1.54c-.27,2.82-.55,5.64-.8,8.46a5.22,5.22,0,0,0,2.3,3.92,13.17,13.17,0,0,0,11.15,1,4.91,4.91,0,0,0,2.82-3.2c.27-2.57.5-5.15.75-7.72a5.3,5.3,0,0,0,0-1c-2.12-.14-4.24-.4-6.36-.58-.23,2.44-.47,4.88-.69,7.32a1.81,1.81,0,0,1-.57,1.35,2.13,2.13,0,0,1-1.79.3,1.47,1.47,0,0,1-1.18-.88,2.77,2.77,0,0,1,0-1.31l.66-7.15Zm16.33,1.78.18.18c1.2,1.78,2.42,3.55,3.64,5.33.54.82,1.13,1.61,1.64,2.44-.15,1.84-.35,3.67-.51,5.51,2.17.19,4.34.41,6.51.61.17-1.8.35-3.61.52-5.41,0-.25.21-.38.35-.54l6.59-6.53-7.42-.71c-.79,1.06-1.56,2.14-2.36,3.2-.62-1.2-1.21-2.42-1.84-3.61-2.38-.21-4.76-.42-7.14-.65Zm19.59,2a1.06,1.06,0,0,0,.73,2,1.06,1.06,0,1,0-.73-2Z" fill="#f6ea18"/>
      <path d="M224.72,104.43c0-.59.1-1.19.17-1.78a4.06,4.06,0,0,1,2.31.38.77.77,0,0,1-.12,1.3A4,4,0,0,1,224.72,104.43Z" fill="#f6ea18"/>
      <path d="M224.45,107.21a6.85,6.85,0,0,1,2.58.37,1.09,1.09,0,0,1,.78,1,1,1,0,0,1-.84.87,6.81,6.81,0,0,1-2.66-.06C224.35,108.64,224.4,107.93,224.45,107.21Z" fill="#f6ea18"/>
      <path d="M226,119.4c.06-.59.1-1.19.17-1.77a4.63,4.63,0,0,1,2.16.28.73.73,0,0,1,.46.78.92.92,0,0,1-.7.73A4.76,4.76,0,0,1,226,119.4Z" fill="#f6ea18"/>
      <path d="M272.45,119.32a.8.8,0,0,1,1.13.71.82.82,0,0,1-1.08.87A.88.88,0,0,1,272.45,119.32Zm0,.14-.12,1.2h.22c.07-.15-.07-.51.17-.51.16.19.16.63.5.57l-.25-.52a.36.36,0,0,0,.27-.56C273,119.44,272.7,119.51,272.44,119.46Z" fill="#f6ea18"/>
      <path d="M272.66,119.63c.13.06.39,0,.41.21s-.31.16-.47.14C272.61,119.89,272.64,119.72,272.66,119.63Z" fill="#f6ea18"/>
      <path d="M225.71,122.19a6.89,6.89,0,0,1,2.63.38,1,1,0,0,1,.72,1,1,1,0,0,1-.84.8,6.75,6.75,0,0,1-2.65-.06C225.61,123.61,225.66,122.9,225.71,122.19Z" fill="#f6ea18"/>
    </g>
  </g>
  <g>
    <path d="M47.14,109.86l-3.63-9.49h-.06c.07.75.1,1.64.1,2.68v6.81H42.41V99.15h1.87L47.67,108h0l3.42-8.83H53v10.71H51.76V103c0-.79,0-1.65.1-2.58H51.8l-3.66,9.48Z" fill="#fff"/>
    <path d="M54.48,101.83h1.3l1.76,4.58a17.46,17.46,0,0,1,.71,2.26h.06c.06-.25.2-.67.4-1.28s.86-2.45,2-5.56H62L58.55,111a4.49,4.49,0,0,1-1.19,1.92,2.55,2.55,0,0,1-1.68.57,5.08,5.08,0,0,1-1.1-.12v-1a4.16,4.16,0,0,0,.9.09A1.85,1.85,0,0,0,57.26,111l.45-1.14Z" fill="#fff"/>
    <path d="M67.37,99.15h3a5.63,5.63,0,0,1,3.08.64,2.23,2.23,0,0,1,1,2,2.29,2.29,0,0,1-.54,1.57,2.47,2.47,0,0,1-1.54.8v.08c1.62.28,2.43,1.13,2.43,2.56a2.73,2.73,0,0,1-1,2.24,4.08,4.08,0,0,1-2.71.81H67.37Zm1.25,4.59h2a3.3,3.3,0,0,0,1.89-.42,1.58,1.58,0,0,0,.58-1.39,1.41,1.41,0,0,0-.65-1.3,4,4,0,0,0-2-.4H68.62Zm0,1.05v4h2.23a3.15,3.15,0,0,0,2-.51,1.85,1.85,0,0,0,.65-1.57,1.65,1.65,0,0,0-.67-1.46,3.56,3.56,0,0,0-2-.47Z" fill="#fff"/>
    <path d="M80.29,110a3.68,3.68,0,0,1-2.81-1.08,4.17,4.17,0,0,1-1-3,4.63,4.63,0,0,1,1-3.08A3.17,3.17,0,0,1,80,101.68a3.06,3.06,0,0,1,2.39,1,3.82,3.82,0,0,1,.87,2.62v.76H77.71a3.17,3.17,0,0,0,.71,2.15,2.47,2.47,0,0,0,1.91.73,6.5,6.5,0,0,0,2.56-.54v1.09a6,6,0,0,1-2.6.51ZM80,102.7a2,2,0,0,0-1.54.63,2.88,2.88,0,0,0-.68,1.75h4.19a2.71,2.71,0,0,0-.51-1.77A1.82,1.82,0,0,0,80,102.7Z" fill="#fff"/>
    <path d="M90.47,107.67a2,2,0,0,1-.83,1.73,4,4,0,0,1-2.34.6,5.09,5.09,0,0,1-2.49-.5v-1.13a5.75,5.75,0,0,0,1.24.46,4.85,4.85,0,0,0,1.28.17,2.92,2.92,0,0,0,1.46-.3A1.05,1.05,0,0,0,88.9,107a6.32,6.32,0,0,0-1.59-.79,8.88,8.88,0,0,1-1.59-.73,2.22,2.22,0,0,1-.7-.7,1.91,1.91,0,0,1-.23-1,1.82,1.82,0,0,1,.8-1.55,3.7,3.7,0,0,1,2.19-.57,6.45,6.45,0,0,1,2.53.53l-.43,1a5.9,5.9,0,0,0-2.19-.5,2.5,2.5,0,0,0-1.3.27.83.83,0,0,0-.44.75.9.9,0,0,0,.16.55,1.6,1.6,0,0,0,.53.43,11.31,11.31,0,0,0,1.41.6,5.11,5.11,0,0,1,1.92,1A1.83,1.83,0,0,1,90.47,107.67Z" fill="#fff"/>
    <path d="M95,109a3.18,3.18,0,0,0,.62,0,3,3,0,0,0,.48-.1v.94a2.36,2.36,0,0,1-.59.15,4.39,4.39,0,0,1-.69.06c-1.55,0-2.32-.81-2.32-2.45v-4.77H91.39v-.59l1.15-.51.51-1.71h.7v1.86h2.33v1H93.75v4.72a1.62,1.62,0,0,0,.35,1.11A1.19,1.19,0,0,0,95,109Z" fill="#fff"/>
    <path d="M101.81,99.15h3a5.63,5.63,0,0,1,3.08.64,2.23,2.23,0,0,1,1,2,2.29,2.29,0,0,1-.54,1.57,2.47,2.47,0,0,1-1.54.8v.08c1.62.28,2.43,1.13,2.43,2.56a2.73,2.73,0,0,1-1,2.24,4.08,4.08,0,0,1-2.71.81h-3.73Zm1.25,4.59h2a3.28,3.28,0,0,0,1.89-.42,1.6,1.6,0,0,0,.58-1.39,1.41,1.41,0,0,0-.65-1.3,4,4,0,0,0-2-.4h-1.83Zm0,1.05v4h2.23a3.15,3.15,0,0,0,1.95-.51,1.85,1.85,0,0,0,.65-1.57,1.65,1.65,0,0,0-.67-1.46,3.56,3.56,0,0,0-2-.47Z" fill="#fff"/>
    <path d="M112.48,101.83V107a2.08,2.08,0,0,0,.45,1.46,1.77,1.77,0,0,0,1.39.49,2.26,2.26,0,0,0,1.84-.69,3.47,3.47,0,0,0,.58-2.25v-4.22H118v8h-1l-.18-1.08h-.07a2.34,2.34,0,0,1-1,.91,3.48,3.48,0,0,1-1.51.31,3.06,3.06,0,0,1-2.19-.69,3,3,0,0,1-.73-2.23v-5.25Z" fill="#fff"/>
    <path d="M119.26,101.83h1.3l1.76,4.58a19.85,19.85,0,0,1,.72,2.26h0c.07-.25.2-.67.4-1.28s.87-2.45,2-5.56h1.3L123.33,111a4.49,4.49,0,0,1-1.19,1.92,2.55,2.55,0,0,1-1.68.57,5.08,5.08,0,0,1-1.1-.12v-1a4.16,4.16,0,0,0,.9.09,1.86,1.86,0,0,0,1.79-1.41l.44-1.14Z" fill="#fff"/>
    <path d="M40.87,132a1.9,1.9,0,0,1-.87-.16V131a3.15,3.15,0,0,0,.87.12,1.12,1.12,0,0,0,.88-.35,1.55,1.55,0,0,0,.3-1v-8.56h1v8.48a2.45,2.45,0,0,1-.56,1.73A2.09,2.09,0,0,1,40.87,132Z" fill="#fff"/>
    <path d="M52.74,125.45a4.71,4.71,0,0,1-1,3.23,3.63,3.63,0,0,1-2.89,1.18,3.68,3.68,0,0,1-2.91-1.16,5.66,5.66,0,0,1,0-6.51A3.75,3.75,0,0,1,48.83,121a3.67,3.67,0,0,1,2.88,1.17A4.79,4.79,0,0,1,52.74,125.45Zm-6.82,0a4.09,4.09,0,0,0,.74,2.64,2.63,2.63,0,0,0,2.15.9,2.59,2.59,0,0,0,2.15-.9,4.09,4.09,0,0,0,.73-2.64,4,4,0,0,0-.73-2.62,2.56,2.56,0,0,0-2.13-.9,2.66,2.66,0,0,0-2.17.9A4.05,4.05,0,0,0,45.92,125.45Z" fill="#fff"/>
    <path d="M61.14,129.74h-1v-4H55.64v4h-1v-8.56h1v3.64h4.51v-3.64h1Z" fill="#fff"/>
    <path d="M70.17,129.74H69l-4.68-7.19h0c.06.85.09,1.62.09,2.32v4.87h-.92v-8.56h1.12l4.67,7.16h0q0-.17-.06-1t0-1.23v-4.91h.93Z" fill="#fff"/>
    <path d="M80.47,127.46a2.12,2.12,0,0,1-.82,1.77,3.58,3.58,0,0,1-2.23.63,5.62,5.62,0,0,1-2.34-.39v-1a6.7,6.7,0,0,0,1.15.35,6.42,6.42,0,0,0,1.23.13,2.51,2.51,0,0,0,1.5-.38,1.25,1.25,0,0,0,.5-1.05,1.34,1.34,0,0,0-.18-.73,1.72,1.72,0,0,0-.59-.53,8.3,8.3,0,0,0-1.28-.54,4.12,4.12,0,0,1-1.7-1,2.28,2.28,0,0,1-.51-1.53,1.89,1.89,0,0,1,.74-1.58,3.07,3.07,0,0,1,2-.59,5.84,5.84,0,0,1,2.35.47l-.31.87a5.25,5.25,0,0,0-2.06-.45,2,2,0,0,0-1.23.34,1.14,1.14,0,0,0-.45,1,1.31,1.31,0,0,0,.72,1.25,6.5,6.5,0,0,0,1.19.52A4.79,4.79,0,0,1,80,126,2,2,0,0,1,80.47,127.46Z" fill="#fff"/>
    <path d="M86,129.74l-2.9-7.59h0c.06.6.09,1.32.09,2.14v5.45h-.92v-8.56h1.5l2.71,7.06h0l2.74-7.06h1.48v8.56h-1v-5.52c0-.63,0-1.32.08-2.06h0l-2.92,7.58Z" fill="#fff"/>
    <path d="M93,129.74v-8.56h1v8.56Z" fill="#fff"/>
    <path d="M99,129.74H98v-7.68H95.31v-.88h6.41v.88H99Z" fill="#fff"/>
    <path d="M109.51,129.74h-1v-4H104v4h-1v-8.56h1v3.64h4.5v-3.64h1Z" fill="#fff"/>
  </g>
  <g>
    <path d="M40,274.09h3.08a5.85,5.85,0,0,1,3.14.64,2.22,2.22,0,0,1,1,2,2.29,2.29,0,0,1-.54,1.57,2.64,2.64,0,0,1-1.58.81v.07c1.66.28,2.48,1.13,2.48,2.56a2.74,2.74,0,0,1-1,2.24,4.25,4.25,0,0,1-2.77.81H40Zm1.27,4.59h2.09a3.43,3.43,0,0,0,1.93-.42,1.58,1.58,0,0,0,.59-1.39,1.4,1.4,0,0,0-.66-1.3,4.12,4.12,0,0,0-2.09-.4H41.27Zm0,1.05v4h2.27a3.34,3.34,0,0,0,2-.5,1.86,1.86,0,0,0,.67-1.57,1.65,1.65,0,0,0-.69-1.47,3.68,3.68,0,0,0-2.07-.47Z" fill="#fff"/>
    <path d="M54.73,284.8l-.24-1.14h-.06a3.54,3.54,0,0,1-1.22,1,3.76,3.76,0,0,1-1.52.27,2.75,2.75,0,0,1-1.9-.62,2.22,2.22,0,0,1-.69-1.75q0-2.43,4-2.55l1.38,0v-.5a2.05,2.05,0,0,0-.41-1.4,1.73,1.73,0,0,0-1.32-.45,5.49,5.49,0,0,0-2.32.62l-.38-.93a6.22,6.22,0,0,1,1.33-.51,5.92,5.92,0,0,1,1.44-.18,3.14,3.14,0,0,1,2.17.64,2.61,2.61,0,0,1,.7,2v5.48Zm-2.79-.86a2.5,2.5,0,0,0,1.81-.62,2.28,2.28,0,0,0,.66-1.74v-.73l-1.23,0a4.7,4.7,0,0,0-2.13.45,1.35,1.35,0,0,0-.66,1.24,1.26,1.26,0,0,0,.41,1A1.71,1.71,0,0,0,51.94,283.94Z" fill="#fff"/>
    <path d="M59.44,284.8H58.2V273.4h1.24Z" fill="#fff"/>
    <path d="M67.09,284.8l-.25-1.14h-.06a3.37,3.37,0,0,1-1.22,1,3.71,3.71,0,0,1-1.51.27,2.78,2.78,0,0,1-1.91-.62,2.22,2.22,0,0,1-.69-1.75q0-2.43,4-2.55l1.39,0v-.5a2,2,0,0,0-.42-1.4,1.7,1.7,0,0,0-1.32-.45,5.48,5.48,0,0,0-2.31.62l-.38-.93a5.88,5.88,0,0,1,2.76-.69,3.13,3.13,0,0,1,2.17.64,2.61,2.61,0,0,1,.71,2v5.48Zm-2.8-.86a2.53,2.53,0,0,0,1.82-.62,2.28,2.28,0,0,0,.66-1.74v-.73l-1.24,0a4.73,4.73,0,0,0-2.13.45,1.36,1.36,0,0,0-.65,1.24,1.23,1.23,0,0,0,.41,1A1.68,1.68,0,0,0,64.29,283.94Z" fill="#fff"/>
    <path d="M76.15,284.8v-5.19a2,2,0,0,0-.46-1.47,1.87,1.87,0,0,0-1.42-.48,2.38,2.38,0,0,0-1.88.68,3.37,3.37,0,0,0-.6,2.25v4.21H70.55v-8h1l.2,1.1h.06a2.61,2.61,0,0,1,1.07-.92,3.5,3.5,0,0,1,1.53-.32,3.13,3.13,0,0,1,2.22.7,2.91,2.91,0,0,1,.74,2.23v5.24Z" fill="#fff"/>
    <path d="M83.19,285a3.48,3.48,0,0,1-2.74-1.08,4.33,4.33,0,0,1-1-3,4.53,4.53,0,0,1,1-3.12,3.6,3.6,0,0,1,2.82-1.09,5.81,5.81,0,0,1,1.17.12,4,4,0,0,1,.93.29l-.38,1a5.59,5.59,0,0,0-.9-.27,4.13,4.13,0,0,0-.85-.11c-1.67,0-2.5,1-2.5,3.12a3.68,3.68,0,0,0,.61,2.27,2.13,2.13,0,0,0,1.8.79,5.59,5.59,0,0,0,2.1-.43v1.08A4.54,4.54,0,0,1,83.19,285Z" fill="#fff"/>
    <path d="M90.65,285a3.81,3.81,0,0,1-2.86-1.09,4.13,4.13,0,0,1-1.05-3,4.64,4.64,0,0,1,1-3.08,3.27,3.27,0,0,1,2.62-1.14,3.12,3.12,0,0,1,2.43,1,3.73,3.73,0,0,1,.89,2.62V281H88a3.16,3.16,0,0,0,.73,2.14,2.53,2.53,0,0,0,1.94.73,6.71,6.71,0,0,0,2.61-.54v1.09a6.83,6.83,0,0,1-1.24.4A7.13,7.13,0,0,1,90.65,285Zm-.34-7.31a2,2,0,0,0-1.57.63,2.91,2.91,0,0,0-.69,1.75h4.28a2.61,2.61,0,0,0-.53-1.76A1.83,1.83,0,0,0,90.31,277.64Z" fill="#fff"/>
    <path d="M95.58,277.56c0-.66.3-1,.88-1s.92.33.92,1a1,1,0,0,1-.24.73.91.91,0,0,1-.68.25.88.88,0,0,1-.63-.23A1,1,0,0,1,95.58,277.56Zm0,6.46a1.09,1.09,0,0,1,.23-.74.82.82,0,0,1,.65-.25.89.89,0,0,1,.68.25,1,1,0,0,1,.24.74,1.06,1.06,0,0,1-.24.74.91.91,0,0,1-.68.25.88.88,0,0,1-.63-.23A1,1,0,0,1,95.58,284Z" fill="#fff"/>
  </g>
  <g>
    <path d="M198.38,279h3.07v1h-3.07v3.12h-1V280h-3.05v-1h3.05v-3.14h1Z" fill="#30d178"/>
    <path d="M214.12,284.8H207v-1.05l2.87-2.83a19.21,19.21,0,0,0,1.73-1.86,4.76,4.76,0,0,0,.63-1.09,3,3,0,0,0,.21-1.13,1.79,1.79,0,0,0-.53-1.36,2,2,0,0,0-1.47-.5,3.72,3.72,0,0,0-1.29.22,5,5,0,0,0-1.35.8l-.65-.83a5.06,5.06,0,0,1,3.28-1.23,3.46,3.46,0,0,1,2.4.77,2.61,2.61,0,0,1,.88,2.08,4,4,0,0,1-.58,2,13.35,13.35,0,0,1-2.18,2.52l-2.39,2.29v.06h5.61Z" fill="#30d178"/>
    <path d="M217.55,283.06l.11.16c-.13.49-.32,1.06-.56,1.71s-.5,1.25-.76,1.8h-.93c.13-.51.28-1.13.44-1.88s.28-1.35.34-1.79Z" fill="#30d178"/>
    <path d="M227.11,282.34h-1.62v2.46H224.3v-2.46H219v-1.06l5.18-7.25h1.31v7.2h1.62Zm-2.81-1.11v-3.56c0-.7,0-1.48.08-2.36h-.06a11,11,0,0,1-.67,1.16l-3.41,4.76Z" fill="#30d178"/>
    <path d="M235.38,279.43a7.69,7.69,0,0,1-.89,4.15,3,3,0,0,1-2.72,1.37,3,3,0,0,1-2.68-1.41,7.54,7.54,0,0,1-.92-4.11,7.71,7.71,0,0,1,.89-4.15,3.32,3.32,0,0,1,5.4.06A7.44,7.44,0,0,1,235.38,279.43Zm-5.95,0a7.6,7.6,0,0,0,.56,3.4,2,2,0,0,0,3.57,0,10.51,10.51,0,0,0,0-6.77,2,2,0,0,0-3.57,0A7.52,7.52,0,0,0,229.43,279.43Z" fill="#30d178"/>
    <path d="M244.11,279.43a7.69,7.69,0,0,1-.89,4.15,3.32,3.32,0,0,1-5.4,0,7.54,7.54,0,0,1-.92-4.11,7.71,7.71,0,0,1,.89-4.15,3.32,3.32,0,0,1,5.4.06A7.44,7.44,0,0,1,244.11,279.43Zm-6,0a7.6,7.6,0,0,0,.56,3.4,2,2,0,0,0,3.57,0,10.51,10.51,0,0,0,0-6.77,2,2,0,0,0-3.57,0A7.52,7.52,0,0,0,238.16,279.43Z" fill="#30d178"/>
  </g>
  <path d="M256,267h24v24H256Zm19.64,12.44L268,271.8l-7.64,7.64,2.12,2.12,3.72-3.72v8.36h3.6v-8.36l3.72,3.72Z" fill="#30d178"/>
  <g>
    <rect x="40" y="175.5" width="16.33" height="70" fill="#fff"/>
    <rect x="87.35" y="175.5" width="24.49" height="70" fill="#fff"/>
    <rect x="232.65" y="175.5" width="24.49" height="70" fill="#fff"/>
    <rect x="128.16" y="175.5" width="16.33" height="70" fill="#fff"/>
    <rect x="152.65" y="175.5" width="16.33" height="70" fill="#fff"/>
    <rect x="191.84" y="175.5" width="16.33" height="70" fill="#fff"/>
    <rect x="263.67" y="175.5" width="16.33" height="70" fill="#fff"/>
    <rect x="64.49" y="175.5" width="8.16" height="70" fill="#fff"/>
    <rect x="216.33" y="175.5" width="8.16" height="70" fill="#fff"/>
  </g>
  <rect x="25" y="25" width="30" height="28.3" rx="5" fill="#fff"/>
  <g>
    <path d="M33.11,35.91l10.71-2.34a.56.56,0,0,1,.7.5l.5,7.51a.79.79,0,0,1-.61.78L33.7,44.69a.55.55,0,0,1-.7-.49l-.5-7.51A.79.79,0,0,1,33.11,35.91Z" fill="#515766" fill-rule="evenodd"/>
    <path d="M47.1,39.76h-.65a.46.46,0,0,1-.47-.45.47.47,0,0,1,.47-.45H47l-.2-2.24a.75.75,0,0,0-.74-.64h-.44L46,41.52a1.75,1.75,0,0,1-1.38,1.75l-6.78,1.48h9a.6.6,0,0,0,.62-.64Z" fill="#a1a6b3" fill-rule="evenodd"/>
  </g>
  <g>
    <path d="M72.1,44.55l-1.15-3H67.23l-1.14,3H65l3.66-9.32h.91l3.65,9.32Zm-1.49-3.93-1.08-2.87c-.14-.37-.28-.81-.43-1.34a10.75,10.75,0,0,1-.4,1.34l-1.09,2.87Z" fill="#fff"/>
    <path d="M82.58,44.55H81.52l-1.88-6.22c-.08-.27-.18-.62-.29-1a5.41,5.41,0,0,1-.17-.75,14.67,14.67,0,0,1-.45,1.83l-1.81,6.18H75.85l-2.46-9.28h1.14L76,41a21.28,21.28,0,0,1,.45,2.18,15.84,15.84,0,0,1,.5-2.27l1.67-5.64h1.14L81.49,41A18.32,18.32,0,0,1,82,43.18,19.81,19.81,0,0,1,82.46,41l1.46-5.72h1.14Z" fill="#fff"/>
    <path d="M92.34,44.55l-1.16-3H87.47l-1.14,3H85.24l3.66-9.32h.91l3.64,9.32Zm-1.49-3.93-1.08-2.87c-.14-.37-.28-.81-.43-1.34a12.77,12.77,0,0,1-.4,1.34l-1.09,2.87Z" fill="#fff"/>
    <path d="M95.8,40.69v3.86H94.73V35.27h2.54a4,4,0,0,1,2.52.65,2.38,2.38,0,0,1,.81,2,2.48,2.48,0,0,1-1.86,2.49l2.52,4.17H100l-2.24-3.86Zm0-.93h1.48A2.59,2.59,0,0,0,99,39.31a1.73,1.73,0,0,0,.53-1.37A1.54,1.54,0,0,0,99,36.62a2.93,2.93,0,0,0-1.74-.41H95.8Z" fill="#fff"/>
    <path d="M110.15,39.82a4.68,4.68,0,0,1-1.24,3.51,4.94,4.94,0,0,1-3.59,1.22h-2.57V35.27h2.84a4.17,4.17,0,0,1,4.56,4.55Zm-1.14,0a3.7,3.7,0,0,0-.91-2.73,3.65,3.65,0,0,0-2.7-.92h-1.57v7.41h1.31a4,4,0,0,0,2.9-1A3.75,3.75,0,0,0,109,39.85Z" fill="#fff"/>
    <path d="M120.31,44.55h-1.07l-1.87-6.22c-.08-.27-.18-.62-.29-1a6.33,6.33,0,0,1-.18-.75,14.51,14.51,0,0,1-.44,1.83l-1.81,6.18h-1.07l-2.46-9.28h1.14L113.72,41c.2.8.35,1.53.45,2.18a15.84,15.84,0,0,1,.5-2.27l1.66-5.64h1.14L119.22,41a18.32,18.32,0,0,1,.51,2.22,17.74,17.74,0,0,1,.46-2.19l1.46-5.72h1.14Z" fill="#fff"/>
    <path d="M130.07,44.55l-1.16-3H125.2l-1.14,3H123l3.67-9.32h.91l3.64,9.32Zm-1.49-3.93-1.08-2.87a13.42,13.42,0,0,1-.43-1.34c-.1.4-.23.85-.4,1.34l-1.09,2.87Z" fill="#fff"/>
    <path d="M132.46,44.55V35.27h1.07v8.3h4.09v1Z" fill="#fff"/>
    <path d="M139.2,44.55V35.27h1.07v8.3h4.09v1Z" fill="#fff"/>
    <path d="M151.1,44.55h-5.17V35.27h5.17v.95H147v3h3.84v1H147v3.41h4.09Z" fill="#fff"/>
    <path d="M156,44.55h-1.08V36.22H152v-.95h6.94v.95H156Z" fill="#fff"/>
  </g>
  <path d="M295,38.9a2.5,2.5,0,1,1-2.5-2.5A2.5,2.5,0,0,1,295,38.9Zm-17.5-2a2.5,2.5,0,1,0,2.5,2.5A2.5,2.5,0,0,0,277.5,36.9Zm7.5,0a2.5,2.5,0,1,0,2.5,2.5A2.5,2.5,0,0,0,285,36.9Z" fill="#fff"/>
</svg>
