<svg xmlns="http://www.w3.org/2000/svg" viewBox="0 0 224 279">
  <path d="M194,158a18,18,0,1,1-18,18,18,18,0,0,1,18-18m0-12a30,30,0,1,0,30,30,30,30,0,0,0-30-30Z"/>
  <path d="M112,158a18,18,0,1,1-18,18,18,18,0,0,1,18-18m0-12a30,30,0,1,0,30,30,30,30,0,0,0-30-30Z"/>
  <path d="M30,158a18,18,0,1,1-18,18,18,18,0,0,1,18-18m0-12a30,30,0,1,0,30,30,30,30,0,0,0-30-30Z"/>
  <path d="M194,85a18,18,0,1,1-18,18,18,18,0,0,1,18-18m0-12a30,30,0,1,0,30,30,30,30,0,0,0-30-30Z"/>
  <path d="M112,85a18,18,0,1,1-18,18,18,18,0,0,1,18-18m0-12a30,30,0,1,0,30,30,30,30,0,0,0-30-30Z"/>
  <path d="M30,85a18,18,0,1,1-18,18A18,18,0,0,1,30,85m0-12a30,30,0,1,0,30,30A30,30,0,0,0,30,73Z"/>
  <path d="M194,12a18,18,0,1,1-18,18,18,18,0,0,1,18-18m0-12a30,30,0,1,0,30,30A30,30,0,0,0,194,0Z"/>
  <path d="M112,12A18,18,0,1,1,94,30a18,18,0,0,1,18-18m0-12a30,30,0,1,0,30,30A30,30,0,0,0,112,0Z"/>
  <path d="M30,12A18,18,0,1,1,12,30,18,18,0,0,1,30,12M30,0A30,30,0,1,0,60,30,30,30,0,0,0,30,0Z"/>
  <path d="M112,231a18,18,0,1,1-18,18,18,18,0,0,1,18-18m0-12a30,30,0,1,0,30,30,30,30,0,0,0-30-30Z"/>
  <path d="M32.54,37.14h-3V28.88l0-1.36L29.6,26c-.5.5-.85.83-1,1l-1.64,1.32-1.46-1.82,4.6-3.66h2.48Z"/>
  <path d="M117,37.24H107v-2.1l3.58-3.62c1.06-1.09,1.76-1.84,2.08-2.26a5.08,5.08,0,0,0,.71-1.17,3,3,0,0,0,.21-1.11,1.63,1.63,0,0,0-.47-1.28,1.85,1.85,0,0,0-1.27-.42,3.69,3.69,0,0,0-1.61.38,8.18,8.18,0,0,0-1.63,1.08L107,24.8a10.77,10.77,0,0,1,1.75-1.27,6.2,6.2,0,0,1,1.51-.57,8,8,0,0,1,1.84-.2,5.35,5.35,0,0,1,2.36.49A3.73,3.73,0,0,1,116,24.61a3.64,3.64,0,0,1,.57,2,5,5,0,0,1-.35,1.85,7.39,7.39,0,0,1-1.07,1.77,27.85,27.85,0,0,1-2.56,2.59l-1.84,1.73v.13H117Z"/>
  <path d="M198.52,26.06a3.34,3.34,0,0,1-.81,2.27,4.15,4.15,0,0,1-2.27,1.29v.06a4.61,4.61,0,0,1,2.61,1.05,3,3,0,0,1,.89,2.25,3.82,3.82,0,0,1-1.49,3.21,6.87,6.87,0,0,1-4.27,1.15,10.44,10.44,0,0,1-4.12-.77V34a8.91,8.91,0,0,0,1.82.68,7.61,7.61,0,0,0,2,.27,3.8,3.8,0,0,0,2.2-.51,1.85,1.85,0,0,0,.72-1.63,1.49,1.49,0,0,0-.82-1.43,6.09,6.09,0,0,0-2.62-.42h-1.08V28.65h1.1a5.15,5.15,0,0,0,2.43-.44,1.56,1.56,0,0,0,.76-1.49c0-1.08-.67-1.62-2-1.62a4.56,4.56,0,0,0-1.43.24,6.77,6.77,0,0,0-1.62.81l-1.39-2.08a7.73,7.73,0,0,1,4.66-1.41,6,6,0,0,1,3.5.9A2.89,2.89,0,0,1,198.52,26.06Z"/>
  <path d="M35.38,107.18H33.66v3H30.71v-3H24.62v-2.1l6.26-9.22h2.78v9h1.72Zm-4.67-2.34v-2.43c0-.4,0-1,.05-1.75s.06-1.22.08-1.34h-.08a11,11,0,0,1-.87,1.56l-2.61,4Z"/>
  <path d="M112.25,100.92a4.59,4.59,0,0,1,3.29,1.16,4.19,4.19,0,0,1,1.23,3.19A4.64,4.64,0,0,1,115.3,109a6.23,6.23,0,0,1-4.22,1.29,8.2,8.2,0,0,1-3.85-.78v-2.6a8.36,8.36,0,0,0,1.8.67,8,8,0,0,0,1.94.26c1.84,0,2.76-.76,2.76-2.27s-1-2.16-2.86-2.16a8.26,8.26,0,0,0-1.14.1c-.42.07-.76.15-1,.22l-1.2-.64.54-7.28h7.74v2.56H110.7l-.27,2.8.34-.06A6.82,6.82,0,0,1,112.25,100.92Z"/>
  <path d="M189,104.06q0-4.25,1.79-6.31a6.73,6.73,0,0,1,5.37-2.07,9.48,9.48,0,0,1,1.91.15v2.41a7.83,7.83,0,0,0-1.72-.2,5.92,5.92,0,0,0-2.53.47,3.2,3.2,0,0,0-1.47,1.39,6.3,6.3,0,0,0-.58,2.61h.13a3.32,3.32,0,0,1,3.1-1.66,3.86,3.86,0,0,1,3,1.2,4.79,4.79,0,0,1,1.08,3.32,5,5,0,0,1-1.29,3.62,4.73,4.73,0,0,1-3.57,1.33,5.08,5.08,0,0,1-2.76-.73,4.75,4.75,0,0,1-1.82-2.14A8.11,8.11,0,0,1,189,104.06Zm5.16,3.85a1.79,1.79,0,0,0,1.48-.65,2.87,2.87,0,0,0,.52-1.85,2.52,2.52,0,0,0-.49-1.65,1.74,1.74,0,0,0-1.45-.6,2.22,2.22,0,0,0-1.57.6,1.79,1.79,0,0,0-.65,1.38,3.15,3.15,0,0,0,.61,2A1.88,1.88,0,0,0,194.12,107.91Z"/>
  <path d="M26.56,183.13l5.36-11.72h-7v-2.54H35.12v1.9l-5.4,12.36Z"/>
  <path d="M112,168.67a5.43,5.43,0,0,1,3.31.93,3,3,0,0,1,1.25,2.52,3.25,3.25,0,0,1-.61,1.95,5,5,0,0,1-1.95,1.52,6.83,6.83,0,0,1,2.3,1.8,3.3,3.3,0,0,1,.7,2,3.41,3.41,0,0,1-1.38,2.83,5.75,5.75,0,0,1-3.62,1.07,6,6,0,0,1-3.68-1,3.31,3.31,0,0,1-1.34-2.82,3.78,3.78,0,0,1,.65-2.17,5.4,5.4,0,0,1,2.08-1.67A5.29,5.29,0,0,1,108,174a3.59,3.59,0,0,1-.54-1.92,2.94,2.94,0,0,1,1.27-2.48A5.41,5.41,0,0,1,112,168.67Zm-2.23,10.66a1.59,1.59,0,0,0,.59,1.31,2.44,2.44,0,0,0,1.6.47,2.51,2.51,0,0,0,1.68-.48,1.62,1.62,0,0,0,.56-1.28,1.77,1.77,0,0,0-.55-1.22,7.17,7.17,0,0,0-1.8-1.22C110.48,177.55,109.78,178.36,109.78,179.33Zm2.21-8.45a1.88,1.88,0,0,0-1.24.39,1.32,1.32,0,0,0-.48,1.06,1.63,1.63,0,0,0,.38,1,4,4,0,0,0,1.36,1,3.77,3.77,0,0,0,1.34-.91,1.72,1.72,0,0,0,.38-1.09,1.27,1.27,0,0,0-.49-1.06A1.93,1.93,0,0,0,112,170.88Z"/>
  <path d="M199,174.94q0,4.22-1.78,6.3a6.67,6.67,0,0,1-5.38,2.08,10,10,0,0,1-1.92-.14v-2.42a6.87,6.87,0,0,0,1.72.21,6,6,0,0,0,2.49-.45,3.11,3.11,0,0,0,1.49-1.4,6.29,6.29,0,0,0,.6-2.62h-.12a3.35,3.35,0,0,1-1.31,1.29,4.11,4.11,0,0,1-1.86.37A3.75,3.75,0,0,1,190,177a4.8,4.8,0,0,1-1.08-3.33,5,5,0,0,1,1.3-3.63,4.74,4.74,0,0,1,3.55-1.33,5.14,5.14,0,0,1,2.77.74,4.8,4.8,0,0,1,1.82,2.16A8,8,0,0,1,199,174.94Zm-5.17-3.84a1.79,1.79,0,0,0-1.46.65,2.85,2.85,0,0,0-.53,1.85,2.56,2.56,0,0,0,.48,1.64,1.72,1.72,0,0,0,1.45.61,2.26,2.26,0,0,0,1.58-.6,1.84,1.84,0,0,0,.65-1.38,3.15,3.15,0,0,0-.61-2A1.9,1.9,0,0,0,193.87,171.1Z"/>
  <path d="M117,249a9.92,9.92,0,0,1-1.23,5.54,4.76,4.76,0,0,1-7.5-.06A9.85,9.85,0,0,1,107,249a10.11,10.11,0,0,1,1.22-5.57,4.75,4.75,0,0,1,7.5.09A9.85,9.85,0,0,1,117,249Zm-7,0a11.21,11.21,0,0,0,.45,3.77,1.57,1.57,0,0,0,1.53,1.14,1.59,1.59,0,0,0,1.52-1.16,15.27,15.27,0,0,0,0-7.52,1.6,1.6,0,0,0-1.52-1.15,1.58,1.58,0,0,0-1.52,1.15A10.94,10.94,0,0,0,110,249Z"/>
</svg>
