<svg width="46" height="46" fill="none" xmlns="http://www.w3.org/2000/svg"><path fill-rule="evenodd" clip-rule="evenodd" d="M10.86 0h24.28C41.139 0 46 4.862 46 10.86v24.28C46 41.139 41.138 46 35.14 46H10.86C4.861 46 0 41.138 0 35.14V10.86C0 4.861 4.862 0 10.86 0zm0 2A8.86 8.86 0 0 0 2 10.86v24.28A8.86 8.86 0 0 0 10.86 44h24.28A8.86 8.86 0 0 0 44 35.14V10.86A8.86 8.86 0 0 0 35.14 2H10.86z" fill="#3060A2"/><path d="M2 10.86A8.86 8.86 0 0 1 10.86 2h24.28A8.86 8.86 0 0 1 44 10.86v24.28A8.86 8.86 0 0 1 35.14 44H10.86A8.86 8.86 0 0 1 2 35.14V10.86z" fill="#3060A2"/><path d="M2 10.86A8.86 8.86 0 0 1 10.86 2h24.28A8.86 8.86 0 0 1 44 10.86v24.28A8.86 8.86 0 0 1 35.14 44H10.86A8.86 8.86 0 0 1 2 35.14V10.86z" fill="#fff"/><path d="M2 10.86A8.86 8.86 0 0 1 10.86 2h24.28A8.86 8.86 0 0 1 44 10.86v24.28A8.86 8.86 0 0 1 35.14 44H10.86A8.86 8.86 0 0 1 2 35.14V10.86z" fill="url(#a)"/><path fill-rule="evenodd" clip-rule="evenodd" d="m10.672 15.294 19.665-4.679c.657-.156 1.234.291 1.274.998l.92 15.013c.041.707-.465 1.403-1.112 1.56l-19.675 4.678c-.657.156-1.234-.291-1.274-.988l-.92-15.013c-.041-.706.464-1.403 1.122-1.559v-.01z" fill="url(#b)"/><path d="M32.532 26.796c.041.687-.465 1.365-1.112 1.517l-19.675 4.552c-.657.151-1.234-.283-1.274-.961l-.148-2.341-.155-2.461 19.675-4.552 2.387-.553.155 2.461.148 2.338z" fill="#0070EB"/><path opacity=".3" d="M36.345 23.265h-1.173a.876.876 0 0 1-.87-.87.87.87 0 0 1 .87-.87h1.022l-.385-4.36c-.06-.677-.667-1.244-1.345-1.244h-.81l.688 10.763c.102 1.558-1.011 3.055-2.518 3.399L19.36 32.966h16.59c.678 0 1.193-.556 1.133-1.234l-.739-8.467z" fill="url(#c)"/><path fill-rule="evenodd" clip-rule="evenodd" d="m12.636 28.168 1.382-.38a.741.741 0 0 1 .937.755 1.112 1.112 0 0 1-.817 1.014l-.877.24-.06 1.144-.72.197.155-2.97zm.721.402.655-.18a.203.203 0 0 1 .257.207.47.47 0 0 1-.344.428l-.6.164.032-.62z" fill="#fff"/><path d="m15.38 27.486-.155 2.971.72-.197.156-2.97-.72.196zM18.855 29.602l-.078-2.248-.777.213v1.252a.5.5 0 0 1-.32.467l-.142.055a.2.2 0 0 1-.272-.197l.074-1.396-.768.21-.074 1.405a.649.649 0 0 0 .82.66l.113-.032a.772.772 0 0 0 .569-.744v.589l.855-.234zM21.154 27l-.188.567c-.67-.16-.926-.028-.987.1-.078.162.056.225.369.21.563-.025.901.104.932.54 0 .68-1.02 1.12-2.14.924l.22-.644c.421.175.65.12.927.075.39-.062.35-.402-.182-.355-.531.047-.935-.064-.916-.46.033-.69.786-1.137 1.965-.957zM21.637 27.354v.523l.894-.223v.837l.596-.149v-.836l.893-.223v-.523l-.596.148-.297.075v-.846l-.596.149v.845l-.298.075-.596.148z" fill="#fff"/><defs><linearGradient id="a" x1="2" y1="2" x2="44" y2="44" gradientUnits="userSpaceOnUse"><stop stop-color="#fff" stop-opacity="0"/><stop offset="1" stop-color="#3C4355" stop-opacity=".4"/></linearGradient><linearGradient id="b" x1="21.04" y1="10.584" x2="25.7" y2="32.792" gradientUnits="userSpaceOnUse"><stop stop-color="#606981"/><stop offset="1" stop-color="#3C4355"/></linearGradient><linearGradient id="c" x1="28.225" y1="15.921" x2="31.754" y2="32.901" gradientUnits="userSpaceOnUse"><stop stop-color="#606981"/><stop offset="1" stop-color="#3C4355"/></linearGradient></defs></svg>