<svg xmlns="http://www.w3.org/2000/svg" width="24" height="24" fill="none"><path fill="#00008B" d="M22 5H2v14h20V5Z" style="fill:#00008b;fill:color(display-p3 0 0 .5451);fill-opacity:1"/><path fill="#fff" fill-rule="evenodd" d="m7.86 13.366.369 1.152 1.134-.43-.671 1.014 1.043.616-1.207.106.168 1.203-.835-.882-.84.882.169-1.203-1.208-.106 1.043-.616-.67-1.014 1.134.43.372-1.152ZM17.74 15.444l.174.547.54-.204-.317.481.496.296-.577.051.08.573-.397-.42-.397.42.076-.573-.572-.051.496-.296-.321-.48.54.203.178-.547ZM17.74 6.885l.174.547.54-.204-.317.482.496.295-.577.051.08.573-.397-.42-.397.42.076-.573-.572-.051.496-.295-.321-.482.54.204.178-.547ZM15.22 10.36l.178.551.54-.204-.32.481.495.296-.572.047.076.573-.397-.42-.398.42.08-.573-.576-.047.496-.296-.317-.48.54.203.175-.55ZM20.592 9.504l.178.55.54-.204-.32.482.495.295-.572.051.076.569-.397-.416-.398.416.08-.569-.576-.051.496-.295-.317-.482.54.204.175-.55ZM19.023 12.082l.139.343.368.025-.28.237.087.361-.314-.193-.313.193.087-.36-.284-.238.372-.025.138-.343Z" clip-rule="evenodd" style="fill:#fff;fill-opacity:1"/><path fill="#fff" d="M13.436 5v.638L8.996 7.86l-1.279.64-4.437 2.22H2v-.639l4.44-2.22 1.278-.64L12.156 5h1.28Z" style="fill:#fff;fill-opacity:1"/><path fill="#fff" d="m7.717 8.499 4.44 2.22h1.28v-.639l-4.44-2.22-1.28.639ZM3.28 5H2v.64l.084.042L6.439 7.86l1.28-.64L3.28 5Z" style="fill:#fff;fill-opacity:1"/><path fill="#fff" d="M6.766 5v5.718h1.908V5H6.766ZM2 6.907v1.908h11.436V6.907H2Z" style="fill:#fff;fill-opacity:1"/><path fill="red" d="M2 7.287v1.145h11.436V7.287H2ZM7.146 5v5.718H8.29V5H7.146ZM2 10.718l3.81-1.907h.854l-3.81 1.907H2Zm.175-5.204c.073-.113.164-.211.27-.292l3.37 1.685H4.96L2.175 5.514Zm6.597 1.393L12.583 5h.853L9.622 6.907h-.85Zm4.664 3.811L9.622 8.811h.853l2.958 1.48v.427h.003Z" style="fill:red;fill:color(display-p3 1 0 0);fill-opacity:1"/><path fill="red" d="M2.175 5.514c.073-.113.164-.211.27-.292L2 5v.427l.175.087Z" style="fill:red;fill:color(display-p3 1 0 0);fill-opacity:1"/></svg>
