<svg xmlns="http://www.w3.org/2000/svg" width="24" height="24" fill="none"><path fill="#009B3A" fill-rule="evenodd" d="M2 19V5h20v14H2Z" clip-rule="evenodd" style="fill:#009b3a;fill:color(display-p3 0 .6078 .2275);fill-opacity:1"/><path fill="#FEDF00" d="M2.542 12 12 18.04 21.458 12 12 5.96 2.542 12Z" style="fill:#fedf00;fill:color(display-p3 .9961 .8745 0);fill-opacity:1"/><path fill="#002776" d="M12 15.988a3.988 3.988 0 1 0 0-7.976 3.988 3.988 0 0 0 0 7.976Z" style="fill:#002776;fill:color(display-p3 0 .1529 .4627);fill-opacity:1"/><path fill="#fff" fill-rule="evenodd" d="M9.721 10.86c-.534 0-1.063.047-1.582.139.054-.211.126-.415.212-.611a9.696 9.696 0 0 1 7.599 2.17c-.03.217-.078.428-.142.632a9.116 9.116 0 0 0-6.087-2.33Z" clip-rule="evenodd" style="fill:#fff;fill-opacity:1"/><path fill="#009B3A" fill-rule="evenodd" d="M8.599 10.834a.163.163 0 0 0 .113-.07c.027-.04.039-.09.033-.14a.201.201 0 0 0-.066-.126.163.163 0 0 0-.127-.04.162.162 0 0 0-.113.07.2.2 0 0 0-.033.138c.006.05.03.096.066.127a.163.163 0 0 0 .127.041Zm-.01-.07a.093.093 0 0 0 .067-.043.132.132 0 0 0 .019-.088.132.132 0 0 0-.04-.08.093.093 0 0 0-.074-.026.093.093 0 0 0-.066.043.132.132 0 0 0-.02.088c.005.031.019.06.04.08.022.02.048.03.075.026ZM8.908 10.8l.07-.005-.01-.14.152-.011a.12.12 0 0 0 .07-.21.12.12 0 0 0-.086-.029l-.217.016.021.379Zm.056-.216.146-.01a.049.049 0 1 0-.007-.098l-.146.01.007.098Z" clip-rule="evenodd" style="fill:#009b3a;fill:color(display-p3 0 .6078 .2275);fill-opacity:1"/><path fill="#009B3A" d="M9.23 10.777c-.003-.054-.012-.173-.093-.167l-.103.007c.12-.008.128.11.131.165" style="fill:#009b3a;fill:color(display-p3 0 .6078 .2275);fill-opacity:1"/><path fill="#009B3A" fill-rule="evenodd" d="m9.39 10.77.178-.003a.163.163 0 0 0 .16-.166v-.054a.163.163 0 0 0-.166-.16l-.18.003.007.38Zm.069-.072.103-.002a.103.103 0 0 0 .101-.105v-.032a.103.103 0 0 0-.105-.101l-.103.001.004.239Z" clip-rule="evenodd" style="fill:#009b3a;fill:color(display-p3 0 .6078 .2275);fill-opacity:1"/><path fill="#009B3A" d="m9.872 10.765.342.012.002-.07-.276-.01.003-.098.217.008.002-.065-.217-.008.003-.076.26.01.003-.071-.326-.011-.013.38ZM10.354 10.786l.064.005.023-.26.053.267.06.005.098-.253-.023.26.065.005.033-.378-.094-.008-.099.253-.053-.267-.094-.008-.034.379ZM11.14 10.874l.281.049.011-.065-.216-.037.014-.085.177.03.011-.064-.176-.03.01-.06.21.037.01-.064-.274-.048-.057.337Z" style="fill:#009b3a;fill:color(display-p3 0 .6078 .2275);fill-opacity:1"/><path fill="#009B3A" fill-rule="evenodd" d="m11.862 11.016.069.018.035-.137.147.038a.12.12 0 0 0 .06-.231l-.21-.054-.1.366Zm.122-.187.141.037a.049.049 0 0 0 .025-.095l-.142-.037-.024.095ZM12.328 11.14l.067.022.043-.135.145.046a.12.12 0 0 0 .072-.228l-.207-.065-.12.36Zm.131-.18.14.044a.05.05 0 0 0 .061-.032.05.05 0 0 0-.032-.061l-.14-.044-.029.093Z" clip-rule="evenodd" style="fill:#009b3a;fill:color(display-p3 0 .6078 .2275);fill-opacity:1"/><path fill="#009B3A" d="M12.636 11.237c.017-.051.053-.165-.025-.19l-.098-.03c.114.035.078.15.061.2" style="fill:#009b3a;fill:color(display-p3 0 .6078 .2275);fill-opacity:1"/><path fill="#009B3A" fill-rule="evenodd" d="M12.947 11.349c.042.016.09.012.132-.01a.201.201 0 0 0 .094-.108.201.201 0 0 0 0-.144.163.163 0 0 0-.093-.094.163.163 0 0 0-.133.01.201.201 0 0 0-.094.108.201.201 0 0 0 0 .143.162.162 0 0 0 .094.095Zm.024-.066c.025.009.054.006.08-.008a.131.131 0 0 0 .056-.069.132.132 0 0 0 .002-.09.093.093 0 0 0-.054-.057.093.093 0 0 0-.079.008.132.132 0 0 0-.057.069.132.132 0 0 0-.002.09c.01.027.03.047.054.057ZM13.394 11.53c.041.018.09.017.133-.003a.2.2 0 0 0 .1-.103.201.201 0 0 0 .007-.144.163.163 0 0 0-.089-.099.163.163 0 0 0-.133.003.201.201 0 0 0-.1.103.202.202 0 0 0-.007.143.162.162 0 0 0 .089.1Zm.028-.065c.024.01.053.01.08-.004a.132.132 0 0 0 .06-.066.132.132 0 0 0 .007-.089.093.093 0 0 0-.052-.06.093.093 0 0 0-.079.004.133.133 0 0 0-.06.065.132.132 0 0 0-.007.09c.008.027.027.05.051.06Z" clip-rule="evenodd" style="fill:#009b3a;fill:color(display-p3 0 .6078 .2275);fill-opacity:1"/><path fill="#009B3A" d="m13.626 11.423-.132-.057-.021.05.131.057.022-.05Z" style="fill:#009b3a;fill:color(display-p3 0 .6078 .2275);fill-opacity:1"/><path fill="#009B3A" d="m13.626 11.424-.05-.022-.076.174.05.022.076-.175Z" style="fill:#009b3a;fill:color(display-p3 0 .6078 .2275);fill-opacity:1"/><path fill="#009B3A" fill-rule="evenodd" d="m13.678 11.657.063.031.063-.126.136.068a.12.12 0 0 0 .107-.214l-.195-.097-.174.338Zm.158-.158.13.065a.049.049 0 0 0 .044-.087l-.13-.065-.044.087Z" clip-rule="evenodd" style="fill:#009b3a;fill:color(display-p3 0 .6078 .2275);fill-opacity:1"/><path fill="#009B3A" d="M13.967 11.801c.025-.049.078-.155.005-.192l-.092-.046c.107.054.053.16.03.209M14.108 11.875l.298.169.035-.062-.241-.136.048-.085.189.107.032-.057-.189-.107.037-.066.227.129.035-.062-.284-.16-.187.33ZM14.662 12.061c-.02.032 0 .068.046.097.046.03.077.028.09.008.042-.065-.198-.16-.124-.274.063-.098.173-.022.214.004.04.027.107.095.056.173l-.07-.045c.022-.034-.002-.067-.039-.09-.035-.023-.064-.033-.085 0-.036.053.2.153.127.266-.053.084-.145.047-.207.008-.053-.034-.131-.113-.08-.193l.072.046ZM15.07 12.33c-.022.032-.004.068.04.1.045.031.076.032.09.012.045-.063-.19-.17-.11-.28.069-.094.174-.013.214.016.04.028.102.1.046.175l-.067-.048c.024-.033.002-.068-.034-.093-.034-.024-.062-.036-.085-.004-.038.051.192.163.114.273-.058.08-.149.04-.208-.003-.05-.037-.125-.12-.07-.197l.07.05Z" style="fill:#009b3a;fill:color(display-p3 0 .6078 .2275);fill-opacity:1"/><path fill="#009B3A" fill-rule="evenodd" d="M15.455 12.768c.035.028.082.04.129.031a.201.201 0 0 0 .123-.073.201.201 0 0 0 .044-.137.163.163 0 0 0-.06-.118.162.162 0 0 0-.129-.032.2.2 0 0 0-.123.074.2.2 0 0 0-.044.136c.003.048.024.09.06.119Zm.044-.055c.02.016.048.022.077.016a.132.132 0 0 0 .075-.047.132.132 0 0 0 .03-.085.093.093 0 0 0-.034-.071.093.093 0 0 0-.077-.017.132.132 0 0 0-.075.048.132.132 0 0 0-.03.084c0 .03.013.055.034.072Z" clip-rule="evenodd" style="fill:#009b3a;fill:color(display-p3 0 .6078 .2275);fill-opacity:1"/><path fill="#fff" d="m8.744 11.113-.053.162.082.027" style="fill:#fff;fill-opacity:1"/><path fill="#fff" d="m8.744 11.113.053.162-.081.027" style="fill:#fff;fill-opacity:1"/><path fill="#fff" d="M8.907 11.23h-.17v.086" style="fill:#fff;fill-opacity:1"/><path fill="#fff" d="m8.906 11.23-.138.101-.05-.069" style="fill:#fff;fill-opacity:1"/><path fill="#fff" d="m8.582 11.231.138.1.05-.069" style="fill:#fff;fill-opacity:1"/><path fill="#fff" d="M8.582 11.23h.171v.086" style="fill:#fff;fill-opacity:1"/><path fill="#fff" d="m8.845 11.422-.053-.163-.081.027" style="fill:#fff;fill-opacity:1"/><path fill="#fff" d="m8.845 11.422-.138-.1.05-.07" style="fill:#fff;fill-opacity:1"/><path fill="#fff" d="m8.644 11.422.138-.1-.05-.07" style="fill:#fff;fill-opacity:1"/><path fill="#fff" d="m8.644 11.422.053-.163.081.027M9.097 12.79l-.053.162.081.027" style="fill:#fff;fill-opacity:1"/><path fill="#fff" d="m9.097 12.79.053.162-.082.027" style="fill:#fff;fill-opacity:1"/><path fill="#fff" d="M9.259 12.908h-.171v.085" style="fill:#fff;fill-opacity:1"/><path fill="#fff" d="m9.259 12.908-.138.1-.05-.069" style="fill:#fff;fill-opacity:1"/><path fill="#fff" d="m8.935 12.908.138.1.05-.069" style="fill:#fff;fill-opacity:1"/><path fill="#fff" d="M8.935 12.908h.17v.085" style="fill:#fff;fill-opacity:1"/><path fill="#fff" d="m9.197 13.099-.053-.163-.08.027" style="fill:#fff;fill-opacity:1"/><path fill="#fff" d="m9.198 13.099-.139-.1.05-.07" style="fill:#fff;fill-opacity:1"/><path fill="#fff" d="m8.996 13.099.138-.1-.05-.07" style="fill:#fff;fill-opacity:1"/><path fill="#fff" d="m8.997 13.099.052-.163.082.027M8.608 13.176l-.044.136.068.022" style="fill:#fff;fill-opacity:1"/><path fill="#fff" d="m8.609 13.176.044.136-.068.022" style="fill:#fff;fill-opacity:1"/><path fill="#fff" d="M8.744 13.274h-.142v.072" style="fill:#fff;fill-opacity:1"/><path fill="#fff" d="m8.744 13.274-.116.084-.041-.058" style="fill:#fff;fill-opacity:1"/><path fill="#fff" d="m8.473 13.274.115.084.042-.057" style="fill:#fff;fill-opacity:1"/><path fill="#fff" d="M8.472 13.274h.143v.072" style="fill:#fff;fill-opacity:1"/><path fill="#fff" d="m8.692 13.434-.044-.136-.067.022" style="fill:#fff;fill-opacity:1"/><path fill="#fff" d="m8.692 13.434-.115-.084.041-.058" style="fill:#fff;fill-opacity:1"/><path fill="#fff" d="m8.524 13.434.116-.084-.042-.058" style="fill:#fff;fill-opacity:1"/><path fill="#fff" d="m8.524 13.434.044-.136.068.022M9.488 12.635l-.025.077.039.013" style="fill:#fff;fill-opacity:1"/><path fill="#fff" d="m9.488 12.635.025.077-.038.013" style="fill:#fff;fill-opacity:1"/><path fill="#fff" d="M9.565 12.691h-.081v.04" style="fill:#fff;fill-opacity:1"/><path fill="#fff" d="m9.565 12.691-.066.048-.024-.033" style="fill:#fff;fill-opacity:1"/><path fill="#fff" d="m9.41 12.691.066.048.024-.033" style="fill:#fff;fill-opacity:1"/><path fill="#fff" d="M9.41 12.691h.082v.04" style="fill:#fff;fill-opacity:1"/><path fill="#fff" d="m9.535 12.782-.025-.077-.039.012" style="fill:#fff;fill-opacity:1"/><path fill="#fff" d="m9.535 12.782-.066-.048.024-.033" style="fill:#fff;fill-opacity:1"/><path fill="#fff" d="m9.44 12.782.065-.048-.024-.033" style="fill:#fff;fill-opacity:1"/><path fill="#fff" d="m9.44 12.782.024-.077.04.012M9.927 13.214l-.044.136.067.022" style="fill:#fff;fill-opacity:1"/><path fill="#fff" d="m9.927 13.214.044.136-.068.022" style="fill:#fff;fill-opacity:1"/><path fill="#fff" d="M10.063 13.313H9.92v.07" style="fill:#fff;fill-opacity:1"/><path fill="#fff" d="m10.062 13.313-.115.083-.042-.057" style="fill:#fff;fill-opacity:1"/><path fill="#fff" d="m9.792 13.313.115.083.042-.057" style="fill:#fff;fill-opacity:1"/><path fill="#fff" d="M9.792 13.313h.142v.07" style="fill:#fff;fill-opacity:1"/><path fill="#fff" d="m10.01 13.472-.043-.136-.068.022" style="fill:#fff;fill-opacity:1"/><path fill="#fff" d="m10.01 13.472-.115-.084.042-.057" style="fill:#fff;fill-opacity:1"/><path fill="#fff" d="m9.843 13.472.115-.084-.042-.058" style="fill:#fff;fill-opacity:1"/><path fill="#fff" d="m9.843 13.472.044-.136.068.022M9.808 13.639l-.036.108.055.018" style="fill:#fff;fill-opacity:1"/><path fill="#fff" d="m9.807 13.639.035.108-.054.018" style="fill:#fff;fill-opacity:1"/><path fill="#fff" d="M9.916 13.717h-.114v.057" style="fill:#fff;fill-opacity:1"/><path fill="#fff" d="m9.916 13.717-.092.067-.034-.046" style="fill:#fff;fill-opacity:1"/><path fill="#fff" d="m9.7 13.717.091.067.034-.046" style="fill:#fff;fill-opacity:1"/><path fill="#fff" d="M9.7 13.717h.113v.057" style="fill:#fff;fill-opacity:1"/><path fill="#fff" d="m9.875 13.845-.035-.109-.054.018" style="fill:#fff;fill-opacity:1"/><path fill="#fff" d="m9.874 13.845-.092-.067.034-.046" style="fill:#fff;fill-opacity:1"/><path fill="#fff" d="m9.741 13.845.092-.067-.033-.046" style="fill:#fff;fill-opacity:1"/><path fill="#fff" d="m9.741 13.845.036-.109.054.018M13.237 10.592l-.053.162.082.027" style="fill:#fff;fill-opacity:1"/><path fill="#fff" d="m13.237 10.592.053.162-.081.027" style="fill:#fff;fill-opacity:1"/><path fill="#fff" d="M13.4 10.71h-.17v.085" style="fill:#fff;fill-opacity:1"/><path fill="#fff" d="m13.4 10.71-.138.1-.05-.069" style="fill:#fff;fill-opacity:1"/><path fill="#fff" d="m13.075 10.71.139.1.05-.069" style="fill:#fff;fill-opacity:1"/><path fill="#fff" d="M13.075 10.71h.171v.085" style="fill:#fff;fill-opacity:1"/><path fill="#fff" d="m13.338 10.901-.053-.163-.081.027" style="fill:#fff;fill-opacity:1"/><path fill="#fff" d="m13.337 10.901-.138-.1.05-.07" style="fill:#fff;fill-opacity:1"/><path fill="#fff" d="m13.137 10.901.138-.1-.05-.07" style="fill:#fff;fill-opacity:1"/><path fill="#fff" d="m13.137 10.9.053-.162.081.027M14.794 13.229l-.053.163.081.026" style="fill:#fff;fill-opacity:1"/><path fill="#fff" d="m14.794 13.229.053.163-.081.026" style="fill:#fff;fill-opacity:1"/><path fill="#fff" d="M14.957 13.347h-.17v.085" style="fill:#fff;fill-opacity:1"/><path fill="#fff" d="m14.957 13.347-.138.1-.05-.068" style="fill:#fff;fill-opacity:1"/><path fill="#fff" d="m14.63 13.347.14.1.05-.068" style="fill:#fff;fill-opacity:1"/><path fill="#fff" d="M14.632 13.347h.17v.086" style="fill:#fff;fill-opacity:1"/><path fill="#fff" d="m14.895 13.538-.053-.162-.082.026" style="fill:#fff;fill-opacity:1"/><path fill="#fff" d="m14.894 13.538-.138-.1.05-.07" style="fill:#fff;fill-opacity:1"/><path fill="#fff" d="m14.693 13.538.139-.1-.05-.07" style="fill:#fff;fill-opacity:1"/><path fill="#fff" d="m14.694 13.538.053-.162.08.026M15.348 13.324l-.036.108.055.018" style="fill:#fff;fill-opacity:1"/><path fill="#fff" d="m15.348 13.324.035.108-.054.018" style="fill:#fff;fill-opacity:1"/><path fill="#fff" d="M15.456 13.403h-.114v.057" style="fill:#fff;fill-opacity:1"/><path fill="#fff" d="m15.456 13.403-.092.067-.034-.046" style="fill:#fff;fill-opacity:1"/><path fill="#fff" d="m15.24 13.403.091.067.034-.046" style="fill:#fff;fill-opacity:1"/><path fill="#fff" d="M15.24 13.403h.113v.057" style="fill:#fff;fill-opacity:1"/><path fill="#fff" d="m15.415 13.53-.035-.108-.054.017" style="fill:#fff;fill-opacity:1"/><path fill="#fff" d="m15.415 13.53-.092-.067.034-.046" style="fill:#fff;fill-opacity:1"/><path fill="#fff" d="m15.281 13.53.092-.067-.033-.046" style="fill:#fff;fill-opacity:1"/><path fill="#fff" d="m15.28 13.53.036-.108.054.017M14.957 13.61l-.044.136.068.022" style="fill:#fff;fill-opacity:1"/><path fill="#fff" d="m14.957 13.61.044.136-.067.022" style="fill:#fff;fill-opacity:1"/><path fill="#fff" d="M15.093 13.709h-.143v.07" style="fill:#fff;fill-opacity:1"/><path fill="#fff" d="m15.092 13.709-.115.083-.042-.057" style="fill:#fff;fill-opacity:1"/><path fill="#fff" d="m14.822 13.709.116.083.041-.057" style="fill:#fff;fill-opacity:1"/><path fill="#fff" d="M14.822 13.709h.142v.07" style="fill:#fff;fill-opacity:1"/><path fill="#fff" d="m15.042 13.868-.044-.136-.068.023" style="fill:#fff;fill-opacity:1"/><path fill="#fff" d="m15.041 13.868-.115-.084.042-.057" style="fill:#fff;fill-opacity:1"/><path fill="#fff" d="m14.873 13.868.115-.084-.042-.058" style="fill:#fff;fill-opacity:1"/><path fill="#fff" d="m14.873 13.868.044-.136.068.022M13.996 14.446l-.044.135.068.022" style="fill:#fff;fill-opacity:1"/><path fill="#fff" d="m13.996 14.446.044.135-.067.022" style="fill:#fff;fill-opacity:1"/><path fill="#fff" d="M14.132 14.544h-.143v.072" style="fill:#fff;fill-opacity:1"/><path fill="#fff" d="m14.131 14.544-.115.084-.042-.058" style="fill:#fff;fill-opacity:1"/><path fill="#fff" d="m13.861 14.544.116.084.041-.058" style="fill:#fff;fill-opacity:1"/><path fill="#fff" d="M13.86 14.544h.143v.072" style="fill:#fff;fill-opacity:1"/><path fill="#fff" d="m14.08 14.704-.044-.136-.068.022" style="fill:#fff;fill-opacity:1"/><path fill="#fff" d="m14.08 14.704-.115-.084.042-.058" style="fill:#fff;fill-opacity:1"/><path fill="#fff" d="m13.915 14.704.115-.084-.042-.058" style="fill:#fff;fill-opacity:1"/><path fill="#fff" d="m13.915 14.704.044-.136.068.022M13.992 14.876l-.035.108.054.018" style="fill:#fff;fill-opacity:1"/><path fill="#fff" d="m13.993 14.876.035.108-.054.018" style="fill:#fff;fill-opacity:1"/><path fill="#fff" d="M14.1 14.955h-.113v.057" style="fill:#fff;fill-opacity:1"/><path fill="#fff" d="m14.1 14.955-.092.067-.033-.046" style="fill:#fff;fill-opacity:1"/><path fill="#fff" d="m13.883 14.955.092.067.034-.046" style="fill:#fff;fill-opacity:1"/><path fill="#fff" d="M13.883 14.955h.114v.057" style="fill:#fff;fill-opacity:1"/><path fill="#fff" d="m14.059 15.082-.036-.108-.054.018" style="fill:#fff;fill-opacity:1"/><path fill="#fff" d="m14.058 15.082-.092-.067.033-.046" style="fill:#fff;fill-opacity:1"/><path fill="#fff" d="m13.925 15.082.092-.067-.034-.046" style="fill:#fff;fill-opacity:1"/><path fill="#fff" d="m13.925 15.082.035-.108.054.017M14.394 14.16l-.036.108.054.018" style="fill:#fff;fill-opacity:1"/><path fill="#fff" d="m14.394 14.16.035.108-.054.018" style="fill:#fff;fill-opacity:1"/><path fill="#fff" d="M14.501 14.238h-.114v.057" style="fill:#fff;fill-opacity:1"/><path fill="#fff" d="m14.501 14.239-.092.066-.034-.046" style="fill:#fff;fill-opacity:1"/><path fill="#fff" d="m14.284 14.238.092.067.034-.046" style="fill:#fff;fill-opacity:1"/><path fill="#fff" d="M14.284 14.238h.114v.057" style="fill:#fff;fill-opacity:1"/><path fill="#fff" d="m14.46 14.366-.034-.108-.055.017" style="fill:#fff;fill-opacity:1"/><path fill="#fff" d="m14.46 14.366-.092-.067.034-.046" style="fill:#fff;fill-opacity:1"/><path fill="#fff" d="m14.326 14.366.092-.067-.033-.046" style="fill:#fff;fill-opacity:1"/><path fill="#fff" d="m14.326 14.366.036-.109.054.018M14.713 13.93l-.044.136.068.022" style="fill:#fff;fill-opacity:1"/><path fill="#fff" d="m14.713 13.93.044.136-.067.022" style="fill:#fff;fill-opacity:1"/><path fill="#fff" d="M14.85 14.029h-.142v.071" style="fill:#fff;fill-opacity:1"/><path fill="#fff" d="m14.851 14.029-.115.084-.042-.058" style="fill:#fff;fill-opacity:1"/><path fill="#fff" d="m14.578 14.029.115.084.042-.058" style="fill:#fff;fill-opacity:1"/><path fill="#fff" d="M14.578 14.029h.142v.071" style="fill:#fff;fill-opacity:1"/><path fill="#fff" d="m14.798 14.188-.044-.135-.068.022" style="fill:#fff;fill-opacity:1"/><path fill="#fff" d="m14.797 14.188-.115-.084.042-.057" style="fill:#fff;fill-opacity:1"/><path fill="#fff" d="m14.629 14.188.115-.084-.042-.057" style="fill:#fff;fill-opacity:1"/><path fill="#fff" d="m14.63 14.188.043-.136.068.023M13.98 14.084l-.035.108.054.018" style="fill:#fff;fill-opacity:1"/><path fill="#fff" d="m13.98 14.084.036.108-.054.018" style="fill:#fff;fill-opacity:1"/><path fill="#fff" d="M14.089 14.162h-.114v.057" style="fill:#fff;fill-opacity:1"/><path fill="#fff" d="m14.089 14.163-.092.067-.034-.046" style="fill:#fff;fill-opacity:1"/><path fill="#fff" d="m13.872 14.162.092.067.034-.046" style="fill:#fff;fill-opacity:1"/><path fill="#fff" d="M13.872 14.162h.114v.057" style="fill:#fff;fill-opacity:1"/><path fill="#fff" d="m14.048 14.29-.035-.109-.055.018" style="fill:#fff;fill-opacity:1"/><path fill="#fff" d="m14.048 14.29-.092-.067.033-.046" style="fill:#fff;fill-opacity:1"/><path fill="#fff" d="m13.914 14.29.092-.067-.033-.046" style="fill:#fff;fill-opacity:1"/><path fill="#fff" d="m13.914 14.29.036-.108.054.017M10.48 12.02l-.043.136.067.022" style="fill:#fff;fill-opacity:1"/><path fill="#fff" d="m10.48 12.02.045.136-.068.022" style="fill:#fff;fill-opacity:1"/><path fill="#fff" d="M10.615 12.119h-.142v.07" style="fill:#fff;fill-opacity:1"/><path fill="#fff" d="m10.615 12.119-.116.083-.041-.057" style="fill:#fff;fill-opacity:1"/><path fill="#fff" d="m10.345 12.119.115.084.042-.058" style="fill:#fff;fill-opacity:1"/><path fill="#fff" d="M10.345 12.119h.143v.071" style="fill:#fff;fill-opacity:1"/><path fill="#fff" d="m10.563 12.278-.043-.136-.068.023" style="fill:#fff;fill-opacity:1"/><path fill="#fff" d="m10.564 12.278-.115-.084.041-.057" style="fill:#fff;fill-opacity:1"/><path fill="#fff" d="m10.396 12.278.116-.084-.042-.057" style="fill:#fff;fill-opacity:1"/><path fill="#fff" d="m10.396 12.278.044-.136.068.023M13.085 11.685l-.035.109.054.017" style="fill:#fff;fill-opacity:1"/><path fill="#fff" d="m13.085 11.685.036.109-.055.017" style="fill:#fff;fill-opacity:1"/><path fill="#fff" d="M13.193 11.764h-.114v.057" style="fill:#fff;fill-opacity:1"/><path fill="#fff" d="m13.193 11.764-.092.067-.033-.046" style="fill:#fff;fill-opacity:1"/><path fill="#fff" d="m12.977 11.764.092.067.033-.046" style="fill:#fff;fill-opacity:1"/><path fill="#fff" d="M12.977 11.764h.114v.057" style="fill:#fff;fill-opacity:1"/><path fill="#fff" d="m13.152 11.891-.035-.108-.054.018" style="fill:#fff;fill-opacity:1"/><path fill="#fff" d="m13.153 11.891-.093-.067.034-.046" style="fill:#fff;fill-opacity:1"/><path fill="#fff" d="m13.017 11.892.092-.067-.034-.047" style="fill:#fff;fill-opacity:1"/><path fill="#fff" d="m13.016 11.892.035-.109.054.018M12 13.62l-.053.162.082.027" style="fill:#fff;fill-opacity:1"/><path fill="#fff" d="m12 13.62.053.162-.081.027" style="fill:#fff;fill-opacity:1"/><path fill="#fff" d="M12.162 13.738h-.17v.085" style="fill:#fff;fill-opacity:1"/><path fill="#fff" d="m12.162 13.738-.138.1-.05-.069" style="fill:#fff;fill-opacity:1"/><path fill="#fff" d="m11.838 13.738.138.1.05-.069" style="fill:#fff;fill-opacity:1"/><path fill="#fff" d="M11.838 13.738h.17v.085" style="fill:#fff;fill-opacity:1"/><path fill="#fff" d="m12.1 13.929-.052-.163-.082.027" style="fill:#fff;fill-opacity:1"/><path fill="#fff" d="m12.101 13.93-.138-.101.05-.07" style="fill:#fff;fill-opacity:1"/><path fill="#fff" d="m11.9 13.929.138-.1-.05-.07" style="fill:#fff;fill-opacity:1"/><path fill="#fff" d="m11.9 13.929.053-.163.08.027M12.46 12.856l-.043.135.068.022" style="fill:#fff;fill-opacity:1"/><path fill="#fff" d="m12.461 12.856.044.135-.068.022" style="fill:#fff;fill-opacity:1"/><path fill="#fff" d="M12.597 12.954h-.143v.072" style="fill:#fff;fill-opacity:1"/><path fill="#fff" d="m12.596 12.954-.115.084-.042-.058" style="fill:#fff;fill-opacity:1"/><path fill="#fff" d="m12.326 12.954.115.084.042-.057" style="fill:#fff;fill-opacity:1"/><path fill="#fff" d="M12.326 12.954h.142v.072" style="fill:#fff;fill-opacity:1"/><path fill="#fff" d="m12.545 13.114-.044-.136-.068.022" style="fill:#fff;fill-opacity:1"/><path fill="#fff" d="m12.545 13.114-.115-.084.042-.058" style="fill:#fff;fill-opacity:1"/><path fill="#fff" d="m12.38 13.113.115-.083-.042-.058" style="fill:#fff;fill-opacity:1"/><path fill="#fff" d="m12.38 13.113.043-.135.068.022M12.001 12.498l-.044.135.068.022" style="fill:#fff;fill-opacity:1"/><path fill="#fff" d="m12.001 12.498.044.135-.068.022" style="fill:#fff;fill-opacity:1"/><path fill="#fff" d="M12.137 12.596h-.143v.072" style="fill:#fff;fill-opacity:1"/><path fill="#fff" d="m12.136 12.596-.115.084-.042-.058" style="fill:#fff;fill-opacity:1"/><path fill="#fff" d="m11.865 12.596.115.084.042-.058" style="fill:#fff;fill-opacity:1"/><path fill="#fff" d="M11.865 12.596h.142v.072" style="fill:#fff;fill-opacity:1"/><path fill="#fff" d="m12.085 12.756-.044-.136-.068.022" style="fill:#fff;fill-opacity:1"/><path fill="#fff" d="m12.084 12.755-.115-.083.042-.058" style="fill:#fff;fill-opacity:1"/><path fill="#fff" d="m11.917 12.755.115-.083-.042-.058" style="fill:#fff;fill-opacity:1"/><path fill="#fff" d="m11.917 12.756.044-.136.068.022M11.599 12.884l-.036.109.055.017" style="fill:#fff;fill-opacity:1"/><path fill="#fff" d="m11.598 12.884.035.109-.054.017" style="fill:#fff;fill-opacity:1"/><path fill="#fff" d="M11.707 12.963h-.114v.057" style="fill:#fff;fill-opacity:1"/><path fill="#fff" d="m11.707 12.963-.092.067-.034-.046" style="fill:#fff;fill-opacity:1"/><path fill="#fff" d="m11.49 12.963.092.067.034-.046" style="fill:#fff;fill-opacity:1"/><path fill="#fff" d="M11.491 12.963h.114v.057" style="fill:#fff;fill-opacity:1"/><path fill="#fff" d="m11.666 13.09-.035-.108-.054.018" style="fill:#fff;fill-opacity:1"/><path fill="#fff" d="m11.665 13.09-.092-.066.034-.047" style="fill:#fff;fill-opacity:1"/><path fill="#fff" d="m11.532 13.09.092-.066-.033-.047" style="fill:#fff;fill-opacity:1"/><path fill="#fff" d="m11.533 13.09.035-.108.054.018M11.799 13.194l-.025.077.038.013" style="fill:#fff;fill-opacity:1"/><path fill="#fff" d="m11.799 13.194.025.077-.039.013" style="fill:#fff;fill-opacity:1"/><path fill="#fff" d="M11.876 13.25h-.081v.04" style="fill:#fff;fill-opacity:1"/><path fill="#fff" d="m11.876 13.25-.066.048-.024-.033" style="fill:#fff;fill-opacity:1"/><path fill="#fff" d="m11.722 13.25.066.048.024-.033" style="fill:#fff;fill-opacity:1"/><path fill="#fff" d="M11.722 13.25h.081v.04" style="fill:#fff;fill-opacity:1"/><path fill="#fff" d="m11.847 13.341-.025-.077-.04.012" style="fill:#fff;fill-opacity:1"/><path fill="#fff" d="m11.847 13.341-.066-.048.024-.033" style="fill:#fff;fill-opacity:1"/><path fill="#fff" d="m11.751 13.341.066-.048-.024-.033" style="fill:#fff;fill-opacity:1"/><path fill="#fff" d="m11.75 13.341.026-.077.039.012M13.194 14.544l-.044.135.068.022" style="fill:#fff;fill-opacity:1"/><path fill="#fff" d="m13.194 14.544.044.135-.068.022" style="fill:#fff;fill-opacity:1"/><path fill="#fff" d="M13.33 14.642h-.143v.071" style="fill:#fff;fill-opacity:1"/><path fill="#fff" d="m13.329 14.642-.116.084-.041-.058" style="fill:#fff;fill-opacity:1"/><path fill="#fff" d="m13.059 14.642.115.084.042-.058" style="fill:#fff;fill-opacity:1"/><path fill="#fff" d="M13.058 14.642h.143v.071" style="fill:#fff;fill-opacity:1"/><path fill="#fff" d="m13.276 14.801-.044-.135-.067.022" style="fill:#fff;fill-opacity:1"/><path fill="#fff" d="m13.277 14.801-.115-.083.041-.058" style="fill:#fff;fill-opacity:1"/><path fill="#fff" d="m13.111 14.801.116-.084-.042-.057" style="fill:#fff;fill-opacity:1"/><path fill="#fff" d="m13.112 14.801.044-.135.067.022M13.535 14.22l-.035.108.054.017" style="fill:#fff;fill-opacity:1"/><path fill="#fff" d="m13.536 14.22.035.108-.054.017" style="fill:#fff;fill-opacity:1"/><path fill="#fff" d="M13.644 14.298h-.114v.057" style="fill:#fff;fill-opacity:1"/><path fill="#fff" d="m13.644 14.298-.093.067-.033-.046" style="fill:#fff;fill-opacity:1"/><path fill="#fff" d="m13.427 14.298.092.067.033-.046" style="fill:#fff;fill-opacity:1"/><path fill="#fff" d="M13.427 14.298h.114v.057" style="fill:#fff;fill-opacity:1"/><path fill="#fff" d="m13.602 14.425-.035-.108-.054.018" style="fill:#fff;fill-opacity:1"/><path fill="#fff" d="m13.603 14.426-.092-.067.033-.046" style="fill:#fff;fill-opacity:1"/><path fill="#fff" d="m13.469 14.425.092-.067-.034-.046" style="fill:#fff;fill-opacity:1"/><path fill="#fff" d="m13.468 14.425.035-.108.054.018M12.879 14.122l-.035.108.054.018" style="fill:#fff;fill-opacity:1"/><path fill="#fff" d="m12.88 14.122.034.108-.054.018" style="fill:#fff;fill-opacity:1"/><path fill="#fff" d="M12.987 14.2h-.114v.057" style="fill:#fff;fill-opacity:1"/><path fill="#fff" d="m12.987 14.2-.092.067-.033-.046" style="fill:#fff;fill-opacity:1"/><path fill="#fff" d="m12.77 14.2.093.067.033-.046" style="fill:#fff;fill-opacity:1"/><path fill="#fff" d="M12.771 14.2h.114v.057" style="fill:#fff;fill-opacity:1"/><path fill="#fff" d="m12.946 14.328-.035-.108-.054.017" style="fill:#fff;fill-opacity:1"/><path fill="#fff" d="m12.947 14.328-.093-.067.034-.046" style="fill:#fff;fill-opacity:1"/><path fill="#fff" d="m12.812 14.328.092-.067-.034-.046" style="fill:#fff;fill-opacity:1"/><path fill="#fff" d="m12.81 14.328.036-.109.054.018M10.4 13.945l-.053.163.08.026" style="fill:#fff;fill-opacity:1"/><path fill="#fff" d="m10.4 13.945.052.163-.08.026" style="fill:#fff;fill-opacity:1"/><path fill="#fff" d="M10.562 14.063h-.171v.086" style="fill:#fff;fill-opacity:1"/><path fill="#fff" d="m10.563 14.063-.139.1-.05-.068" style="fill:#fff;fill-opacity:1"/><path fill="#fff" d="m10.237 14.063.139.1.05-.068" style="fill:#fff;fill-opacity:1"/><path fill="#fff" d="M10.237 14.063h.171v.086" style="fill:#fff;fill-opacity:1"/><path fill="#fff" d="m10.5 14.255-.053-.163-.081.026" style="fill:#fff;fill-opacity:1"/><path fill="#fff" d="m10.5 14.255-.138-.1.05-.07" style="fill:#fff;fill-opacity:1"/><path fill="#fff" d="m10.299 14.255.138-.101-.05-.07" style="fill:#fff;fill-opacity:1"/><path fill="#fff" d="m10.3 14.254.052-.162.081.026M12 15.063l-.018.054.027.01" style="fill:#fff;fill-opacity:1"/><path fill="#fff" d="m12 15.063.017.054-.027.01" style="fill:#fff;fill-opacity:1"/><path fill="#fff" d="M12.054 15.102h-.057v.029" style="fill:#fff;fill-opacity:1"/><path fill="#fff" d="m12.055 15.102-.046.034-.017-.023" style="fill:#fff;fill-opacity:1"/><path fill="#fff" d="m11.946 15.102.046.034.017-.023" style="fill:#fff;fill-opacity:1"/><path fill="#fff" d="M11.946 15.102h.057v.029" style="fill:#fff;fill-opacity:1"/><path fill="#fff" d="m12.033 15.166-.017-.054-.027.009" style="fill:#fff;fill-opacity:1"/><path fill="#fff" d="m12.033 15.166-.046-.033.017-.023" style="fill:#fff;fill-opacity:1"/><path fill="#fff" d="m11.966 15.166.046-.033-.017-.023" style="fill:#fff;fill-opacity:1"/><path fill="#fff" d="m11.966 15.166.018-.054.027.009" style="fill:#fff;fill-opacity:1"/></svg>
