<svg xmlns="http://www.w3.org/2000/svg" width="24" height="24" fill="none"><path fill="red" d="M5 5H2v14h20V5H5Z" style="fill:red;fill:color(display-p3 1 0 0);fill-opacity:1"/><path fill="#fff" d="M6.5 5h11v14h-11V5Zm5.706 11.652-.103-1.978a.218.218 0 0 1 .255-.224l1.968.346-.266-.734a.148.148 0 0 1 .046-.167l2.156-1.746-.485-.227a.149.149 0 0 1-.078-.181l.426-1.31-1.242.263a.148.148 0 0 1-.167-.087l-.241-.566-.97 1.04a.149.149 0 0 1-.254-.13l.468-2.412-.75.434a.149.149 0 0 1-.208-.062L12 7.417l-.76 1.494a.15.15 0 0 1-.21.062l-.749-.434.468 2.411a.15.15 0 0 1-.255.13l-.969-1.04-.24.567a.149.149 0 0 1-.168.087l-1.242-.264.426 1.31a.15.15 0 0 1-.078.182l-.486.227 2.157 1.746a.149.149 0 0 1 .046.167l-.266.734 1.969-.346a.218.218 0 0 1 .254.224l-.103 1.978h.412Z" style="fill:#fff;fill-opacity:1"/></svg>
