<svg xmlns="http://www.w3.org/2000/svg" width="24" height="24" fill="none"><path fill="#EE1C25" d="M2 5h20v14H2V5Z" style="fill:#ee1c25;fill:color(display-p3 .9333 .1098 .1451);fill-opacity:1"/><path fill="#FF0" d="m5.54 7.133 1.57 4.755L3 8.95h5.08l-4.11 2.94 1.57-4.756ZM10.34 6.326l-.149 1.66-.871-1.429 1.558.653-1.65.373 1.112-1.257ZM12.41 8.275l-.79 1.473-.24-1.65 1.179 1.197-1.668-.286 1.52-.734ZM12.608 11.214l-1.334 1.027.466-1.602.58 1.565-1.405-.93 1.693-.06ZM10.305 12.447l-.079 1.665-.93-1.393 1.584.588-1.633.441 1.058-1.301Z" style="fill:#ff0;fill:color(display-p3 1 1 0);fill-opacity:1"/></svg>
