<svg xmlns="http://www.w3.org/2000/svg" width="24" height="24" fill="none"><path fill="#039" d="M22 5H2v14h20V5Z" style="fill:#039;fill:color(display-p3 0 .2 .6);fill-opacity:1"/><path fill="#FC0" d="m12.001 5.5-.285.878.439.142L12 5.5Z" style="fill:#fc0;fill:color(display-p3 1 .8 0);fill-opacity:1"/><path fill="#FC0" d="m12.001 5.5.285.878-.439.142.154-1.02Z" style="fill:#fc0;fill:color(display-p3 1 .8 0);fill-opacity:1"/><path fill="#FC0" d="M12.878 6.138h-.923v.461l.923-.461Z" style="fill:#fc0;fill:color(display-p3 1 .8 0);fill-opacity:1"/><path fill="#FC0" d="m12.878 6.138-.747.542-.27-.373 1.017-.17Z" style="fill:#fc0;fill:color(display-p3 1 .8 0);fill-opacity:1"/><path fill="#FC0" d="m12.544 7.17-.285-.878-.439.143.724.735Z" style="fill:#fc0;fill:color(display-p3 1 .8 0);fill-opacity:1"/><path fill="#FC0" d="m12.544 7.17-.747-.543.272-.373.475.916Z" style="fill:#fc0;fill:color(display-p3 1 .8 0);fill-opacity:1"/><path fill="#FC0" d="M11.122 6.138h.923v.461l-.923-.461Z" style="fill:#fc0;fill:color(display-p3 1 .8 0);fill-opacity:1"/><path fill="#FC0" d="m11.122 6.138.747.542.27-.373-1.017-.17Z" style="fill:#fc0;fill:color(display-p3 1 .8 0);fill-opacity:1"/><path fill="#FC0" d="m11.457 7.17.285-.878.439.142-.724.735Z" style="fill:#fc0;fill:color(display-p3 1 .8 0);fill-opacity:1"/><path fill="#FC0" d="m11.457 7.17.746-.543-.27-.373-.476.915ZM12.001 16.573l-.285.877.439.143-.154-1.02Z" style="fill:#fc0;fill:color(display-p3 1 .8 0);fill-opacity:1"/><path fill="#FC0" d="m12.001 16.573.285.877-.439.143.154-1.02Z" style="fill:#fc0;fill:color(display-p3 1 .8 0);fill-opacity:1"/><path fill="#FC0" d="M12.879 17.21h-.923v.462l.923-.462Z" style="fill:#fc0;fill:color(display-p3 1 .8 0);fill-opacity:1"/><path fill="#FC0" d="m12.879 17.21-.747.543-.27-.373 1.017-.17Z" style="fill:#fc0;fill:color(display-p3 1 .8 0);fill-opacity:1"/><path fill="#FC0" d="m12.542 18.242-.285-.878-.439.143.724.735Z" style="fill:#fc0;fill:color(display-p3 1 .8 0);fill-opacity:1"/><path fill="#FC0" d="m12.542 18.242-.746-.542.27-.374.476.916Z" style="fill:#fc0;fill:color(display-p3 1 .8 0);fill-opacity:1"/><path fill="#FC0" d="M11.122 17.21h.923v.462l-.923-.461Z" style="fill:#fc0;fill:color(display-p3 1 .8 0);fill-opacity:1"/><path fill="#FC0" d="m11.122 17.21.747.543.27-.373-1.017-.17Z" style="fill:#fc0;fill:color(display-p3 1 .8 0);fill-opacity:1"/><path fill="#FC0" d="m11.457 18.242.285-.878.439.143-.724.735Z" style="fill:#fc0;fill:color(display-p3 1 .8 0);fill-opacity:1"/><path fill="#FC0" d="m11.457 18.242.746-.542-.27-.374-.476.916ZM6.463 11.037l-.285.877.439.143-.154-1.02Z" style="fill:#fc0;fill:color(display-p3 1 .8 0);fill-opacity:1"/><path fill="#FC0" d="m6.463 11.037.285.877-.439.143.154-1.02Z" style="fill:#fc0;fill:color(display-p3 1 .8 0);fill-opacity:1"/><path fill="#FC0" d="M7.343 11.674H6.42v.462l.923-.462Z" style="fill:#fc0;fill:color(display-p3 1 .8 0);fill-opacity:1"/><path fill="#FC0" d="m7.343 11.674-.747.543-.27-.374 1.017-.169Z" style="fill:#fc0;fill:color(display-p3 1 .8 0);fill-opacity:1"/><path fill="#FC0" d="m7.006 12.706-.285-.878-.44.143.725.735Z" style="fill:#fc0;fill:color(display-p3 1 .8 0);fill-opacity:1"/><path fill="#FC0" d="m7.006 12.706-.747-.543.272-.373.475.916Z" style="fill:#fc0;fill:color(display-p3 1 .8 0);fill-opacity:1"/><path fill="#FC0" d="M5.584 11.674h.923v.462l-.923-.462Z" style="fill:#fc0;fill:color(display-p3 1 .8 0);fill-opacity:1"/><path fill="#FC0" d="m5.584 11.674.746.543.272-.373-1.018-.17Z" style="fill:#fc0;fill:color(display-p3 1 .8 0);fill-opacity:1"/><path fill="#FC0" d="m5.92 12.706.286-.878.439.143-.724.735Z" style="fill:#fc0;fill:color(display-p3 1 .8 0);fill-opacity:1"/><path fill="#FC0" d="m5.92 12.706.747-.543-.27-.373-.476.916ZM8.69 7.911l.746-.542-.271-.373-.476.915Z" style="fill:#fc0;fill:color(display-p3 1 .8 0);fill-opacity:1"/><path fill="#FC0" d="m8.69 7.911.285-.877.438.142-.724.735Z" style="fill:#fc0;fill:color(display-p3 1 .8 0);fill-opacity:1"/><path fill="#FC0" d="m8.354 6.88.747.542.271-.373-1.018-.17Z" style="fill:#fc0;fill:color(display-p3 1 .8 0);fill-opacity:1"/><path fill="#FC0" d="M8.354 6.88h.923v.461l-.923-.461Z" style="fill:#fc0;fill:color(display-p3 1 .8 0);fill-opacity:1"/><path fill="#FC0" d="m9.232 6.242-.285.878.44.142-.155-1.02Z" style="fill:#fc0;fill:color(display-p3 1 .8 0);fill-opacity:1"/><path fill="#FC0" d="m9.232 6.242.286.878-.44.142.154-1.02Z" style="fill:#fc0;fill:color(display-p3 1 .8 0);fill-opacity:1"/><path fill="#FC0" d="m9.773 7.911-.746-.542.271-.374.475.916Z" style="fill:#fc0;fill:color(display-p3 1 .8 0);fill-opacity:1"/><path fill="#FC0" d="m9.773 7.911-.285-.878-.438.143.723.735Z" style="fill:#fc0;fill:color(display-p3 1 .8 0);fill-opacity:1"/><path fill="#FC0" d="m10.11 6.88-.747.542-.271-.373 1.017-.17Z" style="fill:#fc0;fill:color(display-p3 1 .8 0);fill-opacity:1"/><path fill="#FC0" d="M10.11 6.88h-.923v.461l.922-.461ZM7.746 9.938l-.285-.878-.439.143.724.735Z" style="fill:#fc0;fill:color(display-p3 1 .8 0);fill-opacity:1"/><path fill="#FC0" d="M7.746 9.938 7 9.395l.27-.373.476.915Z" style="fill:#fc0;fill:color(display-p3 1 .8 0);fill-opacity:1"/><path fill="#FC0" d="m6.662 9.937.747-.542-.272-.373-.475.915Z" style="fill:#fc0;fill:color(display-p3 1 .8 0);fill-opacity:1"/><path fill="#FC0" d="m6.662 9.937.285-.877.439.142-.724.735Z" style="fill:#fc0;fill:color(display-p3 1 .8 0);fill-opacity:1"/><path fill="#FC0" d="m6.327 8.906.747.542.27-.373-1.017-.17Z" style="fill:#fc0;fill:color(display-p3 1 .8 0);fill-opacity:1"/><path fill="#FC0" d="M6.327 8.906h.923v.461l-.923-.461Z" style="fill:#fc0;fill:color(display-p3 1 .8 0);fill-opacity:1"/><path fill="#FC0" d="m8.082 8.906-.746.542-.272-.373 1.018-.17Z" style="fill:#fc0;fill:color(display-p3 1 .8 0);fill-opacity:1"/><path fill="#FC0" d="M8.082 8.906h-.923v.461l.923-.461Z" style="fill:#fc0;fill:color(display-p3 1 .8 0);fill-opacity:1"/><path fill="#FC0" d="m7.205 8.268.285.878-.439.142.154-1.02Z" style="fill:#fc0;fill:color(display-p3 1 .8 0);fill-opacity:1"/><path fill="#FC0" d="m7.205 8.268-.285.878.439.142-.154-1.02ZM8.083 14.442H7.16v.462l.923-.462Z" style="fill:#fc0;fill:color(display-p3 1 .8 0);fill-opacity:1"/><path fill="#FC0" d="m8.083 14.442-.746.543-.272-.373 1.018-.17Z" style="fill:#fc0;fill:color(display-p3 1 .8 0);fill-opacity:1"/><path fill="#FC0" d="m7.748 15.474-.285-.877-.439.142.724.735Z" style="fill:#fc0;fill:color(display-p3 1 .8 0);fill-opacity:1"/><path fill="#FC0" d="m7.748 15.474-.746-.542.27-.373.476.915Z" style="fill:#fc0;fill:color(display-p3 1 .8 0);fill-opacity:1"/><path fill="#FC0" d="m6.662 15.474.747-.542-.272-.373-.475.915Z" style="fill:#fc0;fill:color(display-p3 1 .8 0);fill-opacity:1"/><path fill="#FC0" d="m6.662 15.474.285-.877.439.142-.724.735Z" style="fill:#fc0;fill:color(display-p3 1 .8 0);fill-opacity:1"/><path fill="#FC0" d="m7.204 13.805.285.877-.439.143.154-1.02Z" style="fill:#fc0;fill:color(display-p3 1 .8 0);fill-opacity:1"/><path fill="#FC0" d="m7.204 13.805-.285.877.439.143-.154-1.02Z" style="fill:#fc0;fill:color(display-p3 1 .8 0);fill-opacity:1"/><path fill="#FC0" d="M6.327 14.442h.923v.462l-.923-.462Z" style="fill:#fc0;fill:color(display-p3 1 .8 0);fill-opacity:1"/><path fill="#FC0" d="m6.327 14.442.747.543.27-.374-1.017-.169ZM10.11 16.469h-.923v.461l.922-.461Z" style="fill:#fc0;fill:color(display-p3 1 .8 0);fill-opacity:1"/><path fill="#FC0" d="m10.11 16.469-.747.542-.271-.373 1.017-.17Z" style="fill:#fc0;fill:color(display-p3 1 .8 0);fill-opacity:1"/><path fill="#FC0" d="m9.774 17.5-.285-.877-.439.142.724.735Z" style="fill:#fc0;fill:color(display-p3 1 .8 0);fill-opacity:1"/><path fill="#FC0" d="m9.774 17.5-.746-.542.271-.373.475.915Z" style="fill:#fc0;fill:color(display-p3 1 .8 0);fill-opacity:1"/><path fill="#FC0" d="m8.69 17.5.746-.542-.271-.373-.476.915Z" style="fill:#fc0;fill:color(display-p3 1 .8 0);fill-opacity:1"/><path fill="#FC0" d="m8.69 17.5.285-.877.438.142-.724.735Z" style="fill:#fc0;fill:color(display-p3 1 .8 0);fill-opacity:1"/><path fill="#FC0" d="m9.231 15.831.286.878-.44.142.154-1.02Z" style="fill:#fc0;fill:color(display-p3 1 .8 0);fill-opacity:1"/><path fill="#FC0" d="m9.231 15.831-.285.878.44.142-.155-1.02Z" style="fill:#fc0;fill:color(display-p3 1 .8 0);fill-opacity:1"/><path fill="#FC0" d="M8.354 16.469h.922v.461l-.922-.461Z" style="fill:#fc0;fill:color(display-p3 1 .8 0);fill-opacity:1"/><path fill="#FC0" d="m8.354 16.469.746.542.271-.373-1.017-.17ZM17.536 11.036l.285.878-.439.143.154-1.02Z" style="fill:#fc0;fill:color(display-p3 1 .8 0);fill-opacity:1"/><path fill="#FC0" d="m17.536 11.036-.285.878.439.143-.154-1.02Z" style="fill:#fc0;fill:color(display-p3 1 .8 0);fill-opacity:1"/><path fill="#FC0" d="M16.655 11.675h.923v.461l-.923-.46Z" style="fill:#fc0;fill:color(display-p3 1 .8 0);fill-opacity:1"/><path fill="#FC0" d="m16.655 11.675.747.542.271-.373-1.018-.169Z" style="fill:#fc0;fill:color(display-p3 1 .8 0);fill-opacity:1"/><path fill="#FC0" d="m16.992 12.706.285-.878.44.143-.725.735Z" style="fill:#fc0;fill:color(display-p3 1 .8 0);fill-opacity:1"/><path fill="#FC0" d="m16.992 12.706.747-.543-.271-.373-.476.916Z" style="fill:#fc0;fill:color(display-p3 1 .8 0);fill-opacity:1"/><path fill="#FC0" d="M18.414 11.674h-.923v.462l.923-.462Z" style="fill:#fc0;fill:color(display-p3 1 .8 0);fill-opacity:1"/><path fill="#FC0" d="m18.414 11.674-.746.543-.272-.374 1.018-.169Z" style="fill:#fc0;fill:color(display-p3 1 .8 0);fill-opacity:1"/><path fill="#FC0" d="m18.078 12.706-.285-.878-.439.143.724.735Z" style="fill:#fc0;fill:color(display-p3 1 .8 0);fill-opacity:1"/><path fill="#FC0" d="m18.078 12.706-.746-.543.27-.373.476.916ZM15.31 7.911l-.746-.542.271-.373.475.915Z" style="fill:#fc0;fill:color(display-p3 1 .8 0);fill-opacity:1"/><path fill="#FC0" d="m15.31 7.911-.285-.877-.438.142.723.735Z" style="fill:#fc0;fill:color(display-p3 1 .8 0);fill-opacity:1"/><path fill="#FC0" d="m15.645 6.88-.747.542-.271-.373 1.018-.17Z" style="fill:#fc0;fill:color(display-p3 1 .8 0);fill-opacity:1"/><path fill="#FC0" d="M15.645 6.88h-.923v.46l.923-.46Z" style="fill:#fc0;fill:color(display-p3 1 .8 0);fill-opacity:1"/><path fill="#FC0" d="m14.767 6.242.285.878-.439.142.154-1.02Z" style="fill:#fc0;fill:color(display-p3 1 .8 0);fill-opacity:1"/><path fill="#FC0" d="m14.767 6.242-.285.878.438.142-.153-1.02Z" style="fill:#fc0;fill:color(display-p3 1 .8 0);fill-opacity:1"/><path fill="#FC0" d="m14.226 7.91.746-.541-.271-.374-.475.916Z" style="fill:#fc0;fill:color(display-p3 1 .8 0);fill-opacity:1"/><path fill="#FC0" d="m14.226 7.91.285-.877.439.143-.724.735Z" style="fill:#fc0;fill:color(display-p3 1 .8 0);fill-opacity:1"/><path fill="#FC0" d="m13.89 6.88.746.542.271-.373-1.017-.17Z" style="fill:#fc0;fill:color(display-p3 1 .8 0);fill-opacity:1"/><path fill="#FC0" d="M13.89 6.88h.922v.46l-.922-.46ZM16.252 9.938l.285-.878.439.143-.724.735Z" style="fill:#fc0;fill:color(display-p3 1 .8 0);fill-opacity:1"/><path fill="#FC0" d="m16.252 9.938.747-.543-.272-.373-.475.915Z" style="fill:#fc0;fill:color(display-p3 1 .8 0);fill-opacity:1"/><path fill="#FC0" d="m17.337 9.937-.747-.542.272-.373.475.915Z" style="fill:#fc0;fill:color(display-p3 1 .8 0);fill-opacity:1"/><path fill="#FC0" d="m17.337 9.937-.285-.877-.439.142.724.735Z" style="fill:#fc0;fill:color(display-p3 1 .8 0);fill-opacity:1"/><path fill="#FC0" d="m17.672 8.906-.747.542-.27-.373 1.017-.17Z" style="fill:#fc0;fill:color(display-p3 1 .8 0);fill-opacity:1"/><path fill="#FC0" d="M17.672 8.906h-.923v.461l.923-.461Z" style="fill:#fc0;fill:color(display-p3 1 .8 0);fill-opacity:1"/><path fill="#FC0" d="m15.917 8.906.746.542.272-.373-1.018-.17Z" style="fill:#fc0;fill:color(display-p3 1 .8 0);fill-opacity:1"/><path fill="#FC0" d="M15.917 8.906h.923v.461l-.923-.461Z" style="fill:#fc0;fill:color(display-p3 1 .8 0);fill-opacity:1"/><path fill="#FC0" d="m16.794 8.268-.285.878.439.142-.154-1.02Z" style="fill:#fc0;fill:color(display-p3 1 .8 0);fill-opacity:1"/><path fill="#FC0" d="m16.794 8.268.285.878-.439.142.154-1.02ZM15.916 14.442h.923v.462l-.923-.462Z" style="fill:#fc0;fill:color(display-p3 1 .8 0);fill-opacity:1"/><path fill="#FC0" d="m15.916 14.442.747.543.27-.374-1.017-.169Z" style="fill:#fc0;fill:color(display-p3 1 .8 0);fill-opacity:1"/><path fill="#FC0" d="m16.252 15.474.285-.878.439.143-.724.735Z" style="fill:#fc0;fill:color(display-p3 1 .8 0);fill-opacity:1"/><path fill="#FC0" d="m16.252 15.474.747-.542-.272-.374-.475.916Z" style="fill:#fc0;fill:color(display-p3 1 .8 0);fill-opacity:1"/><path fill="#FC0" d="m17.337 15.474-.747-.542.272-.374.475.916Z" style="fill:#fc0;fill:color(display-p3 1 .8 0);fill-opacity:1"/><path fill="#FC0" d="m17.337 15.474-.285-.878-.439.143.724.735Z" style="fill:#fc0;fill:color(display-p3 1 .8 0);fill-opacity:1"/><path fill="#FC0" d="m16.794 13.805-.285.877.439.143-.154-1.02Z" style="fill:#fc0;fill:color(display-p3 1 .8 0);fill-opacity:1"/><path fill="#FC0" d="m16.794 13.805.285.877-.439.143.154-1.02Z" style="fill:#fc0;fill:color(display-p3 1 .8 0);fill-opacity:1"/><path fill="#FC0" d="M17.672 14.442h-.923v.461l.923-.46Z" style="fill:#fc0;fill:color(display-p3 1 .8 0);fill-opacity:1"/><path fill="#FC0" d="m17.672 14.442-.747.543-.27-.374 1.017-.169ZM13.89 16.469h.922v.461l-.922-.461Z" style="fill:#fc0;fill:color(display-p3 1 .8 0);fill-opacity:1"/><path fill="#FC0" d="m13.89 16.469.746.542.271-.373-1.017-.17Z" style="fill:#fc0;fill:color(display-p3 1 .8 0);fill-opacity:1"/><path fill="#FC0" d="m14.226 17.5.285-.877.439.142-.724.735Z" style="fill:#fc0;fill:color(display-p3 1 .8 0);fill-opacity:1"/><path fill="#FC0" d="m14.226 17.5.746-.542-.271-.373-.475.915Z" style="fill:#fc0;fill:color(display-p3 1 .8 0);fill-opacity:1"/><path fill="#FC0" d="m15.309 17.5-.747-.542.271-.373.476.915Z" style="fill:#fc0;fill:color(display-p3 1 .8 0);fill-opacity:1"/><path fill="#FC0" d="m15.309 17.5-.285-.877-.44.142.725.735Z" style="fill:#fc0;fill:color(display-p3 1 .8 0);fill-opacity:1"/><path fill="#FC0" d="m14.768 15.831-.286.878.44.142-.154-1.02Z" style="fill:#fc0;fill:color(display-p3 1 .8 0);fill-opacity:1"/><path fill="#FC0" d="m14.768 15.831.285.878-.44.142.155-1.02Z" style="fill:#fc0;fill:color(display-p3 1 .8 0);fill-opacity:1"/><path fill="#FC0" d="M15.646 16.469h-.922v.461l.922-.461Z" style="fill:#fc0;fill:color(display-p3 1 .8 0);fill-opacity:1"/><path fill="#FC0" d="m15.646 16.469-.746.542-.271-.373 1.018-.17Z" style="fill:#fc0;fill:color(display-p3 1 .8 0);fill-opacity:1"/></svg>
