<svg xmlns="http://www.w3.org/2000/svg" width="24" height="24" fill="none"><path fill="#012169" d="M2 5v14h20V5H2Z" style="fill:#012169;fill:color(display-p3 .0039 .1294 .4118);fill-opacity:1"/><path fill="#fff" fill-rule="evenodd" d="M9.317 12 2.001 7.732V5h.683L12 10.435 21.317 5h.684v2.732L14.684 12 22 16.268V19h-.684l-9.316-5.435L2.684 19H2v-2.732L9.317 12Z" clip-rule="evenodd" style="fill:#fff;fill-opacity:1"/><path fill="#C8102E" d="m2 18.877 10-5.833V12L2 17.834v1.043ZM22 16.79 13.79 12H12l10 5.833V16.79Z" style="fill:#c8102e;fill:color(display-p3 .7843 .0627 .1804);fill-opacity:1"/><path fill="#C8102E" fill-rule="evenodd" d="M10.211 12 2 7.21V6.167L12 12h-1.789Zm1.79 0v-1.043L22 5.123v1.044L12 12Z" clip-rule="evenodd" style="fill:#c8102e;fill:color(display-p3 .7843 .0627 .1804);fill-opacity:1"/><path fill="#fff" fill-rule="evenodd" d="M10 9.667V5h4v4.667h8v4.666h-8V19h-4v-4.667H2V9.667h8Z" clip-rule="evenodd" style="fill:#fff;fill-opacity:1"/><path fill="#C8102E" fill-rule="evenodd" d="M10.8 10.6V5h2.4v5.6H22v2.8h-8.8V19h-2.4v-5.6H2v-2.8h8.8Z" clip-rule="evenodd" style="fill:#c8102e;fill:color(display-p3 .7843 .0627 .1804);fill-opacity:1"/></svg>
