<svg xmlns="http://www.w3.org/2000/svg" width="24" height="24" fill="none"><path fill="#EE1C25" d="M2 5h20v14H2V5Z" style="fill:#ee1c25;fill:color(display-p3 .9333 .1098 .1451);fill-opacity:1"/><path fill="#fff" d="M13.076 7.921a.67.67 0 0 0-.425.402.637.637 0 0 0 .069.574 1.039 1.039 0 0 1-.485 1.544.922.922 0 0 0-.365.272.893.893 0 0 0-.147.856.9.9 0 0 0 .254.373 1.592 1.592 0 0 1-.66-1.015c-.077-.41.014-.831.252-1.176a.371.371 0 0 1-.027-.025 1.6 1.6 0 0 0-.263 1.197c.075.417.313.79.664 1.038a2.14 2.14 0 0 1-1.13-1.018 2.064 2.064 0 0 1-.15-1.495c.14-.5.464-.931.909-1.213a2.2 2.2 0 0 1 1.504-.314Z" style="fill:#fff;fill-opacity:1"/><path fill="#EE1C25" d="m12.097 9.226-.659.28.702.151-.477-.525.07.699" style="fill:#ee1c25;fill:color(display-p3 .9333 .1098 .1451);fill-opacity:1"/><path fill="#fff" d="M16.338 11.708a.674.674 0 0 0-1.058-.036c-.098.12-.223.217-.364.284a1.086 1.086 0 0 1-.911.01 1.092 1.092 0 0 1-.377-.275.939.939 0 0 0-1.255-.135.895.895 0 0 0-.282.351c.125-.398.404-.73.777-.927.374-.196.812-.24 1.222-.123a.353.353 0 0 1 .015-.032 1.688 1.688 0 0 0-1.244.119 1.62 1.62 0 0 0-.8.937 2.077 2.077 0 0 1 .634-1.368 2.148 2.148 0 0 1 1.405-.595 2.2 2.2 0 0 1 1.461.48c.413.33.69.796.777 1.31Z" style="fill:#fff;fill-opacity:1"/><path fill="#EE1C25" d="m14.765 11.19-.478-.53.073.7.36-.604-.655.278" style="fill:#ee1c25;fill:color(display-p3 .9333 .1098 .1451);fill-opacity:1"/><path fill="#fff" d="M8.765 14.718a.68.68 0 0 0 .79-.302.644.644 0 0 0 .086-.285c.009-.154.052-.305.126-.44a1.098 1.098 0 0 1 1.197-.535.943.943 0 0 0 .855-.239.907.907 0 0 0 .239-.384.883.883 0 0 0 .02-.447c.135.394.106.824-.08 1.2a1.634 1.634 0 0 1-.914.81.348.348 0 0 1 .007.034c.407-.145.743-.439.934-.82a1.6 1.6 0 0 0 .093-1.22c.28.437.385.96.295 1.471-.09.51-.368.972-.783 1.297a2.2 2.2 0 0 1-1.463.464 2.163 2.163 0 0 1-1.402-.604Z" style="fill:#fff;fill-opacity:1"/><path fill="#EE1C25" d="m10.342 14.219.7.149-.474-.524.067.698.366-.606" style="fill:#ee1c25;fill:color(display-p3 .9333 .1098 .1451);fill-opacity:1"/><path fill="#fff" d="M13.692 15.888a.632.632 0 0 0 .097-.567.66.66 0 0 0-.403-.428 1.101 1.101 0 0 1-.39-.254 1.07 1.07 0 0 1-.247-.391 1.038 1.038 0 0 1 .09-.885.877.877 0 0 0 .028-.867.946.946 0 0 0-.732-.5c.425 0 .836.16 1.145.45.31.29.493.684.511 1.1a.399.399 0 0 1 .037.005 1.64 1.64 0 0 0-.515-1.122 1.709 1.709 0 0 0-1.162-.468 2.205 2.205 0 0 1 1.524.187c.47.243.836.645 1.026 1.13.19.486.193 1.02.007 1.501a2.077 2.077 0 0 1-1.016 1.11Z" style="fill:#fff;fill-opacity:1"/><path fill="#EE1C25" d="m13.685 14.271.358-.603-.655.276.702.157-.48-.53" style="fill:#ee1c25;fill:color(display-p3 .9333 .1098 .1451);fill-opacity:1"/><path fill="#fff" d="M8.395 9.787a.639.639 0 0 0 .26.518.675.675 0 0 0 .58.114 1.104 1.104 0 0 1 .899.155c.129.089.237.204.315.337.08.134.127.282.14.436a.888.888 0 0 0 .153.422c.086.127.203.23.341.3a.942.942 0 0 0 .889-.018 1.663 1.663 0 0 1-2.26-.3.383.383 0 0 1-.033.018 1.7 1.7 0 0 0 2.3.32 2.17 2.17 0 0 1-1.34.734 2.202 2.202 0 0 1-1.502-.325 2.113 2.113 0 0 1-.9-1.218c-.138-.5-.081-1.031.158-1.493Z" style="fill:#fff;fill-opacity:1"/><path fill="#EE1C25" d="m9.364 11.099.07.698.363-.605-.658.28.702.152" style="fill:#ee1c25;fill:color(display-p3 .9333 .1098 .1451);fill-opacity:1"/></svg>
