<svg xmlns="http://www.w3.org/2000/svg" width="24" height="24" fill="none"><path fill="#fff" d="M2 5h20v14H2V5Z" style="fill:#fff;fill-opacity:1"/><path fill="#F15B25" d="M2 5h20v4.667H2V5Z" style="fill:#f15b25;fill:color(display-p3 .9451 .3569 .1451);fill-opacity:1"/><path fill="#006934" d="M2 14.333h20V19H2v-4.667Z" style="fill:#006934;fill:color(display-p3 0 .4118 .2039);fill-opacity:1"/><path fill="#2C2C6F" d="M11.975 14.158A2.15 2.15 0 0 0 14.118 12a2.15 2.15 0 0 0-2.143-2.158A2.15 2.15 0 0 0 9.832 12a2.15 2.15 0 0 0 2.143 2.158Z" style="fill:#2c2c6f;fill:color(display-p3 .1725 .1725 .4353);fill-opacity:1"/><path fill="#fff" d="M11.976 13.867A1.86 1.86 0 0 0 13.829 12a1.86 1.86 0 0 0-1.854-1.867A1.86 1.86 0 0 0 10.123 12c0 1.03.83 1.867 1.854 1.867Z" style="fill:#fff;fill-opacity:1"/><path fill="#2C2C6F" d="M11.975 12.373c.205 0 .37-.167.37-.373a.372.372 0 0 0-.37-.373.372.372 0 0 0-.37.373c0 .206.165.373.37.373Z" style="fill:#2c2c6f;fill:color(display-p3 .1725 .1725 .4353);fill-opacity:1"/><path fill="#2C2C6F" d="m11.976 10.133.07 1.124-.07.556-.07-.556.07-1.124ZM12.207 10.23a.082.082 0 0 0 .021-.162.081.081 0 0 0-.091.07.082.082 0 0 0 .07.092ZM11.975 13.867l-.07-1.124.07-.556.07.556-.07 1.124ZM11.745 13.77a.082.082 0 0 0-.021.162.082.082 0 0 0 .021-.162ZM12.454 10.197l-.22 1.103-.21.519.075-.556.355-1.066ZM12.654 10.35a.08.08 0 0 0 .106-.043.082.082 0 0 0-.044-.107.08.08 0 0 0-.106.044.082.082 0 0 0 .044.107ZM11.496 13.803l.22-1.103.21-.52-.074.556-.356 1.067ZM11.296 13.649a.08.08 0 0 0-.106.044.082.082 0 0 0 .045.107.08.08 0 0 0 .106-.044.082.082 0 0 0-.045-.107ZM12.902 10.383l-.497 1.008-.336.447.215-.517.618-.938ZM13.055 10.584a.08.08 0 0 0 .114-.015.082.082 0 0 0-.016-.115.08.08 0 0 0-.113.015.082.082 0 0 0 .015.115ZM11.048 13.616l.497-1.008.336-.446-.215.517-.618.937ZM10.895 13.416a.08.08 0 0 0-.113.015.082.082 0 0 0 .015.114.08.08 0 0 0 .114-.014.082.082 0 0 0-.016-.115ZM13.287 10.68l-.74.844-.44.343.342-.443.838-.744ZM13.382 10.913a.08.08 0 0 0 .114.015.082.082 0 0 0 .014-.114.08.08 0 0 0-.113-.015.082.082 0 0 0-.015.114ZM10.665 13.32l.739-.844.44-.344-.342.443-.837.745ZM10.57 13.087a.08.08 0 0 0-.114-.016.082.082 0 0 0-.015.115.08.08 0 0 0 .114.015.082.082 0 0 0 .014-.114ZM13.58 11.066l-.932.623-.513.218.444-.339 1-.502ZM13.612 11.317a.08.08 0 0 0 .106.044.082.082 0 0 0 .044-.107.08.08 0 0 0-.106-.044.082.082 0 0 0-.044.107ZM10.37 12.934l.932-.623.513-.218-.444.339-1 .502ZM10.338 12.683a.08.08 0 0 0-.106-.044.082.082 0 0 0-.044.107.08.08 0 0 0 .106.044.082.082 0 0 0 .044-.107ZM13.765 11.517l-1.06.358-.55.077.515-.212 1.095-.223ZM13.731 11.767a.081.081 0 1 0 .161-.021.081.081 0 1 0-.16.021ZM10.183 12.483l1.06-.358.551-.077-.515.212-1.096.223ZM10.217 12.233a.081.081 0 1 0-.161.021.081.081 0 1 0 .16-.021ZM13.829 11.999l-1.115.07-.552-.068.552-.07 1.115.068ZM13.733 12.233a.081.081 0 0 0 .07.091.081.081 0 0 0 .09-.07.081.081 0 0 0-.069-.092.082.082 0 0 0-.091.07ZM10.121 12.001l1.115-.07.553.068-.553.07L10.121 12ZM10.217 11.767a.081.081 0 0 0-.07-.092.081.081 0 0 0-.09.07.081.081 0 0 0 .07.093.082.082 0 0 0 .09-.071ZM13.765 12.483l-1.095-.223-.515-.212.55.077 1.06.358ZM13.612 12.683a.082.082 0 0 0 .044.107.08.08 0 0 0 .106-.045.082.082 0 0 0-.044-.106.08.08 0 0 0-.106.044ZM10.184 11.517l1.095.223.516.211-.552-.076-1.059-.358ZM10.337 11.317a.082.082 0 0 0-.044-.107.082.082 0 0 0-.062.15.08.08 0 0 0 .106-.043ZM13.583 12.934l-1.001-.502-.444-.338.513.217.932.623ZM13.382 13.087a.082.082 0 0 0 .016.114.08.08 0 0 0 .113-.014.082.082 0 0 0-.015-.115.08.08 0 0 0-.114.015ZM10.37 11.067l1.001.501.444.339-.513-.218-.931-.622ZM10.57 10.914a.082.082 0 0 0-.014-.115.08.08 0 0 0-.114.015.082.082 0 0 0 .015.114.08.08 0 0 0 .114-.014ZM13.287 13.32l-.838-.745-.341-.442.44.344.739.843ZM13.055 13.416a.082.082 0 0 0-.015.115.08.08 0 0 0 .114.015.082.082 0 0 0 .014-.114.08.08 0 0 0-.113-.016ZM10.665 10.68l.838.745.342.443-.44-.344-.74-.844ZM10.898 10.584a.082.082 0 0 0 .014-.114.08.08 0 0 0-.113-.016.082.082 0 0 0-.015.115.08.08 0 0 0 .114.015ZM12.902 13.617l-.618-.938-.216-.517.336.447.498 1.008ZM12.654 13.649a.082.082 0 0 0 .062.151.082.082 0 0 0-.062-.151ZM11.05 10.383l.617.938.216.517-.336-.447-.498-1.008ZM11.297 10.351a.082.082 0 0 0 .044-.107.081.081 0 1 0-.15.063.081.081 0 0 0 .106.044ZM12.454 13.803l-.355-1.067-.076-.555.21.52.221 1.102ZM12.206 13.77a.081.081 0 0 0-.07.091.081.081 0 0 0 .091.07.082.082 0 0 0 .07-.09.081.081 0 0 0-.091-.071ZM11.495 10.197l.356 1.067.076.555-.21-.52-.222-1.102ZM11.743 10.23a.081.081 0 0 0 .07-.091.081.081 0 0 0-.091-.07.082.082 0 0 0 .021.161Z" style="fill:#2c2c6f;fill:color(display-p3 .1725 .1725 .4353);fill-opacity:1"/></svg>
