<svg width="24" height="24" viewBox="0 0 24 24" fill="none" xmlns="http://www.w3.org/2000/svg">
<path d="M20.3333 13.6C19.9408 18.3363 16 22.0316 11.1961 22.0316C8.23391 22.0316 5.6 20.6266 3.92422 18.4466L3.90828 18.425C4.82297 18.3759 5.67953 18.2539 6.51 18.0637L6.40828 18.0834C7.65453 19.2206 9.31984 19.9172 11.1478 19.9172C11.9508 19.9172 12.7223 19.7828 13.4411 19.5353L13.3916 19.5502C13.2375 19.4216 13.1388 19.2313 13.1333 19.0178V19.0169V17.6419C13.1333 17.2645 12.8273 16.9586 12.45 16.9586C12.068 16.9586 11.7583 16.6489 11.7583 16.2669V15.4336C12.1833 15.0836 12.5916 14.7169 13.0166 14.3086C13.0166 14.3086 13.0666 14.2336 13.0998 14.2003H13.8248C14.2022 14.2003 14.5081 14.5063 14.5081 14.8836C14.5081 15.2656 14.8178 15.5753 15.1998 15.5753C15.5478 15.6148 15.8158 15.9075 15.8158 16.2628C15.8158 16.6181 15.5478 16.9108 15.2031 16.95L15.2 16.9503C14.8209 16.9503 14.5131 17.2553 14.5084 17.6333V19.0088C14.5084 19.0088 14.5084 19.0087 14.5084 19.067C16.5619 17.9387 17.9811 15.8775 18.1981 13.4694L18.2002 13.442C18.3653 13.7314 18.6358 13.9448 18.9581 14.0317L18.9669 14.0337C19.0614 14.0586 19.1703 14.0737 19.2825 14.0755H19.2836C19.2842 14.0755 19.2852 14.0755 19.2859 14.0755C19.6303 14.0755 19.9419 13.9353 20.1669 13.7089L20.3333 13.6ZM3.08328 13.875C3.475 13.875 3.84156 13.875 4.2 13.8167C4.14453 13.5341 4.10297 13.1964 4.08422 12.8527L4.08344 12.8333C4.08375 11.2667 4.59328 9.81906 5.45547 8.64703L5.44172 8.66656C5.46422 8.67031 5.49031 8.6725 5.51672 8.6725C5.54312 8.6725 5.56922 8.67031 5.59453 8.66625L5.59172 8.66656H7C7.37844 8.67125 7.68328 8.97906 7.68328 9.35812V10.7248C7.68328 11.1069 7.99297 11.4166 8.375 11.4166C8.64047 11.4209 8.86906 11.5741 8.98156 11.7959L8.98344 11.7998C9.26672 11.5581 9.54172 11.3081 9.81672 11.0331C10.2291 10.6164 10.8011 10.3583 11.4333 10.3581C11.4819 10.3542 11.5386 10.352 11.5958 10.352C11.653 10.352 11.7097 10.3542 11.7656 10.3586L11.7583 10.3581C11.3588 10.2327 11.0503 9.92438 10.9273 9.53375L10.9248 9.52484C10.8891 9.41656 10.8684 9.29187 10.8684 9.16234C10.8684 9.03281 10.8891 8.90812 10.9273 8.79141L10.925 8.79984H10.4417V7.96656C10.4417 7.58922 10.1358 7.28328 9.75844 7.28328H6.70844C7.75156 6.43062 9.06219 5.86781 10.4973 5.73531L10.5252 5.73328C10.1578 5.51109 9.91609 5.11391 9.91609 4.66016C9.91609 4.31437 10.0566 4.00141 10.2834 3.775L10.4002 3.65828C5.67828 4.06641 2 8 2 12.7928C2 12.807 2 12.8212 2.00016 12.8355V12.8333C2.00563 13.2795 2.03875 13.7125 2.09797 14.1372L2.09188 14.0833C2.37031 13.9517 2.69672 13.875 3.04109 13.875C3.04141 13.875 3.04156 13.875 3.04188 13.875H3.08328ZM12.1917 13.4333C12.3769 13.243 12.4909 12.9827 12.4909 12.6958C12.4909 12.4089 12.3767 12.1486 12.1914 11.958L12.1916 11.9583C12.003 11.7692 11.7422 11.6522 11.4541 11.6522C11.1659 11.6522 10.9052 11.7692 10.7166 11.9583C8.87859 13.9125 6.27625 15.1297 3.38937 15.1297C3.28172 15.1297 3.17437 15.128 3.0675 15.1247L3.08312 15.125C2.50781 15.125 2.04141 15.5914 2.04141 16.1667C2.04141 16.742 2.50781 17.2084 3.08312 17.2084C3.15781 17.21 3.24594 17.2111 3.33422 17.2111C6.80016 17.2111 9.92797 15.7628 12.1452 13.4383L12.1497 13.4334L12.1917 13.4333ZM22 2L20.65 2.45L18.8417 4.25828H11.6167L11.1667 4.70828L16.7834 6.31656L14.3252 8.81656H12.5169L12.0669 9.26656L13.9502 9.64156L12.9752 10.6166V11.0666H13.4252L14.4002 10.0916L14.7752 11.9748L15.2334 11.5248V9.67484L17.6834 7.17484L19.2917 12.8331L19.7417 12.3831V5.15812L21.55 3.34984L22 2Z" fill="#4684C4" style="fill:#4684C4;fill:color(display-p3 0.2745 0.5176 0.7686);fill-opacity:1;"/>
</svg>
