<svg xmlns="http://www.w3.org/2000/svg" width="24" height="24" fill="none"><path fill="#fff" d="M22 5H2v14h20V5Z" style="fill:#fff;fill-opacity:1"/><path fill="#000" d="m5.138 9.24 1.881-2.903.476.326-1.882 2.903-.475-.326Zm.713.49 1.882-2.904.475.326-1.882 2.903-.475-.326Zm.713.488 1.882-2.903.475.326-1.882 2.903-.475-.326ZM15.541 16.359l1.882-2.903.475.326-1.882 2.903-.475-.326Zm.713.489 1.882-2.903.475.326-1.881 2.903-.476-.326Zm.713.489 1.882-2.903.475.326-1.881 2.903-.476-.326Z" style="fill:#000;fill-opacity:1"/><path fill="#fff" fill-rule="evenodd" d="m18.538 16.49-2.366-1.62.156-.241 2.366 1.62-.156.24Z" clip-rule="evenodd" style="fill:#fff;fill-opacity:1"/><path fill="#CD2E3A" d="M9.394 10.042a3.365 3.365 0 0 1 2.16-1.476 3.36 3.36 0 0 1 2.562.53 3.538 3.538 0 0 1 1.461 2.227c.181.909.004 1.85-.494 2.618l-5.69-3.899Z" style="fill:#cd2e3a;fill:color(display-p3 .8039 .1804 .2275);fill-opacity:1"/><path fill="#0047A0" d="M9.381 10.052a3.547 3.547 0 0 0-.495 2.62c.182.91.708 1.712 1.463 2.23a3.362 3.362 0 0 0 2.563.531 3.367 3.367 0 0 0 2.163-1.478c.25-.384.338-.856.247-1.31a1.771 1.771 0 0 0-.731-1.115 1.68 1.68 0 0 0-1.282-.265 1.684 1.684 0 0 0-1.081.738l-2.847-1.951Z" style="fill:#0047a0;fill:color(display-p3 0 .2784 .6275);fill-opacity:1"/><path fill="#CD2E3A" d="M12.236 12.006a1.782 1.782 0 0 0-.484-2.427 1.675 1.675 0 0 0-2.365.474 1.782 1.782 0 0 0 .485 2.427c.786.54 1.845.327 2.364-.474Z" style="fill:#cd2e3a;fill:color(display-p3 .8039 .1804 .2275);fill-opacity:1"/><path fill="#000" d="M7.019 17.663 5.137 14.76l.475-.326 1.882 2.903-.475.326Zm.713-.49L5.85 14.272l.475-.326 1.882 2.903-.475.326Zm.713-.488-1.882-2.903.475-.326L8.92 16.36l-.475.326ZM17.423 10.544 15.54 7.64l.476-.326 1.881 2.903-.475.326Zm.713-.489-1.882-2.903.476-.326L18.61 9.73l-.475.326Zm.713-.489-1.882-2.903.476-.326 1.881 2.903-.475.326Z" style="fill:#000;fill-opacity:1"/><path fill="#fff" fill-rule="evenodd" d="m7.46 15.438-.709.485-.156-.24.71-.486.155.24Zm9.697-6.635-.828.566-.156-.24.827-.567.157.24Zm1.419-.971-.71.485-.156-.24.71-.486.155.24Z" clip-rule="evenodd" style="fill:#fff;fill-opacity:1"/><path fill="#E4E6ED" fill-rule="evenodd" d="M21.5 5.5h-19v13h19v-13ZM22 5v14H2V5h20Z" clip-rule="evenodd" style="fill:#e4e6ed;fill:color(display-p3 .8941 .902 .9294);fill-opacity:1"/></svg>
