<svg xmlns="http://www.w3.org/2000/svg" width="24" height="24" fill="none"><g clip-path="url(#a)"><path fill="#fff" d="M2 5h27.781v14H2V5Z" style="fill:#fff;fill-opacity:1"/><path fill="#C00" fill-rule="evenodd" d="M22 6H2V5h20v1ZM2 7h20v1H2V7Zm20 3H2V9h20v1ZM2 11h20v1H2v-1Z" clip-rule="evenodd" style="fill:#c00;fill:color(display-p3 .8 0 0);fill-opacity:1"/><path fill="#006" d="M2 5h11v8H2V5Z" style="fill:#006;fill:color(display-p3 0 0 .4);fill-opacity:1"/><path fill="#C00" fill-rule="evenodd" d="M22 14H2v-1h20v1ZM2 15h20v1H2v-1Zm20 3H2v-1h20v1Z" clip-rule="evenodd" style="fill:#c00;fill:color(display-p3 .8 0 0);fill-opacity:1"/><path fill="#FC0" d="m9.452 6.5.221 1.525.856-1.277-.459 1.47 1.32-.776-1.045 1.125 1.525-.123L10.444 9l1.426.556-1.525-.123 1.046 1.125-1.32-.777.458 1.471-.856-1.277-.221 1.525-.221-1.525-.856 1.277.459-1.47-1.32.776 1.045-1.125-1.525.123L8.46 9l-1.426-.556 1.525.123-1.046-1.125 1.321.777-.459-1.471.856 1.277.221-1.525Zm-1.24.063a2.627 2.627 0 0 0-2.516.201 2.683 2.683 0 0 0 0 4.471 2.63 2.63 0 0 0 2.516.203 2.962 2.962 0 0 1-4.276-.874 3.018 3.018 0 0 1 0-3.128c.286-.47.694-.853 1.181-1.105a2.957 2.957 0 0 1 3.095.231Z" style="fill:#fc0;fill:color(display-p3 1 .8 0);fill-opacity:1"/></g><defs><clipPath id="a"><path fill="#fff" d="M0 0h24v24H0z" style="fill:#fff;fill-opacity:1"/></clipPath></defs></svg>
