<svg width="24" height="24" viewBox="0 0 24 24" fill="none" xmlns="http://www.w3.org/2000/svg">
<path d="M11.9927 19.9997C9.74917 19.9997 7.85617 19.6306 6.31371 18.8925C4.77124 18.1544 4 17.2486 4 16.1751V7.84177C4 6.78617 4.77961 5.88198 6.33883 5.12919C7.89806 4.3764 9.78194 4 11.9905 4C14.1838 4 16.067 4.37672 17.6401 5.13017C19.2131 5.88361 19.9997 6.78748 19.9997 7.84177V16.1751C19.9997 17.2486 19.2214 18.1544 17.665 18.8925C16.1085 19.6306 14.2178 19.9997 11.9927 19.9997V19.9997ZM11.9912 9.29029C13.156 9.29029 14.3548 9.11585 15.5877 8.76696C16.8206 8.41808 17.6371 8.01845 18.0371 7.56806C17.6291 7.12694 16.8039 6.72526 15.5614 6.36304C14.3189 6.00083 13.1283 5.81973 11.9896 5.81973C10.794 5.81973 9.58574 5.99736 8.36471 6.35263C7.14369 6.7079 6.33834 7.11305 5.94865 7.56806C6.35113 8.03234 7.15227 8.43545 8.35206 8.77738C9.55187 9.11932 10.7649 9.29029 11.9912 9.29029ZM11.9773 13.731C12.5373 13.731 13.0942 13.6962 13.6479 13.6268C14.2017 13.5573 14.7442 13.4548 15.2755 13.3193C15.8068 13.1837 16.3167 13.0172 16.8051 12.8198C17.2935 12.6224 17.7518 12.4015 18.1799 12.157V9.63494C17.7448 9.86309 17.2811 10.069 16.7889 10.2526C16.2968 10.4362 15.7858 10.5904 15.2561 10.715C14.7264 10.8397 14.1857 10.9347 13.6341 11.0002C13.0825 11.0657 12.5299 11.0984 11.9761 11.0984C11.4139 11.0984 10.8516 11.0657 10.2894 11.0002C9.7271 10.9347 9.18143 10.8388 8.65233 10.7125C8.12322 10.5862 7.61899 10.4318 7.13963 10.2493C6.66025 10.0668 6.22028 9.86198 5.81973 9.63494V12.157C6.24737 12.405 6.70406 12.6266 7.18981 12.8218C7.67558 13.017 8.18097 13.1826 8.70598 13.3186C9.23098 13.4546 9.76819 13.5573 10.3176 13.6268C10.867 13.6962 11.4203 13.731 11.9773 13.731ZM11.9912 18.1799C12.6409 18.1822 13.3088 18.1282 13.9949 18.0181C14.6811 17.908 15.3164 17.7612 15.901 17.5777C16.4855 17.3941 16.9852 17.1843 17.4001 16.9481C17.815 16.7118 18.075 16.4734 18.1799 16.2326V14.0656C17.7399 14.3005 17.2735 14.5111 16.7806 14.6976C16.2877 14.8841 15.775 15.039 15.2425 15.1623C14.71 15.2857 14.1696 15.3812 13.6212 15.449C13.0728 15.5168 12.5248 15.5507 11.9773 15.5507C11.4355 15.5507 10.8943 15.5189 10.3538 15.4553C9.81325 15.3917 9.28513 15.2973 8.76938 15.1722C8.25363 15.0471 7.74731 14.8923 7.25044 14.7076C6.75355 14.523 6.27665 14.3085 5.81973 14.064V16.2533C5.90377 16.4897 6.14658 16.7223 6.54815 16.951C6.94972 17.1797 7.44536 17.3864 8.03508 17.571C8.62481 17.7556 9.26654 17.9033 9.96027 18.014C10.654 18.1246 11.331 18.1799 11.9912 18.1799Z" fill="#4684C4" style="fill:#4684C4;fill:color(display-p3 0.2745 0.5176 0.7686);fill-opacity:1;"/>
</svg>
