<svg width="24" height="24" fill="none" xmlns="http://www.w3.org/2000/svg"><path d="M2 5h21v14H2V5z" fill="#fff" style="fill:#fff;fill-opacity:1"/><path fill-rule="evenodd" clip-rule="evenodd" d="M21.5 5.5h-19v13h19v-13zM22 5v14H2V5h20z" fill="#E4E6ED" style="fill:color(display-p3 .8941 .902 .9294);fill-opacity:1"/><path d="M2 5h20v7H2V5z" fill="#ED2939" style="fill:color(display-p3 .9294 .1608 .2235);fill-opacity:1"/><path d="M6.436 11.076a2.576 2.576 0 1 0 0-5.152 2.576 2.576 0 0 0 0 5.152z" fill="#fff" style="fill:#fff;fill-opacity:1"/><path d="M7.602 11.076a2.576 2.576 0 1 0 0-5.153 2.576 2.576 0 0 0 0 5.153z" fill="#ED2939" style="fill:color(display-p3 .9294 .1608 .2235);fill-opacity:1"/><path d="m7.845 6.351-.394 1.214 1.032-.75H7.207l1.032.75-.394-1.214zM9.889 7.836H8.613l1.032.75-.394-1.214-.395 1.214 1.033-.75zM6.582 10.238l1.033-.75H6.339l1.032.75-.394-1.213-.395 1.213zM9.108 10.238l-.394-1.213-.395 1.213 1.033-.75H8.076l1.032.75zM5.802 7.836l1.032.75-.394-1.213-.395 1.213 1.033-.75H5.802z" fill="#fff" style="fill:#fff;fill-opacity:1"/></svg>
