<svg width="36" height="36" fill="none" xmlns="http://www.w3.org/2000/svg"><path fill-rule="evenodd" clip-rule="evenodd" d="M30 10.5a1.5 1.5 0 0 1 1.5 1.5v7.868a6.803 6.803 0 0 0-8.37 8.632H6A1.5 1.5 0 0 1 4.5 27V12A1.5 1.5 0 0 1 6 10.5h4.5V9A1.5 1.5 0 0 1 12 7.5h12A1.5 1.5 0 0 1 25.5 9v1.5H30zm-12 4.125a4.875 4.875 0 1 0 4.875 4.875A4.89 4.89 0 0 0 18 14.625z" fill="#C5C8D0" style="fill:color(display-p3 .7725 .7843 .8157);fill-opacity:1"/><path d="M34.806 26.403a5.203 5.203 0 1 1-10.406 0 5.203 5.203 0 0 1 10.406 0z" fill="#4684C4" style="fill:color(display-p3 .2745 .5176 .7686);fill-opacity:1"/><path d="M28.713 29.61v-2.325H26.4v-1.772h2.313V23.2h1.784v2.313h2.313v1.772h-2.313v2.325h-1.784z" fill="#fff" style="fill:#fff;fill-opacity:1"/></svg>